<?xml version="1.0" encoding="utf-8"?>

<!DOCTYPE svg PUBLIC "-//W3C//DTD SVG 1.1//EN" "http://www.w3.org/Graphics/SVG/1.1/DTD/svg11.dtd">
<!-- Uploaded to: SVG Repo, www.svgrepo.com, Generator: SVG Repo Mixer Tools -->
<svg fill="#000000" version="1.1" id="Layer_1" xmlns="http://www.w3.org/2000/svg" xmlns:xlink="http://www.w3.org/1999/xlink" 
	 width="800px" height="800px" viewBox="0 0 72 72" enable-background="new 0 0 72 72" xml:space="preserve">
<g>
	<path d="M61.729,13.492c-4.978,0-9.358-4.051-9.432-9.03c-0.018-1.094-0.906-1.975-2-1.975H20.613
		c-1.094,0-1.847,0.881-1.864,1.975c-0.073,4.978-4.045,9.032-9.022,9.032c-1.105,0-1.727,0.896-1.727,2v28.609
		C8,61.039,34.05,69.096,35.17,69.43c0.188,0.057,0.108,0.084,0.3,0.084c0.238,0,0.75-0.043,0.978-0.129
		c1.114-0.418,27.553-10.436,27.553-25.271V15.494C64.001,14.389,62.832,13.492,61.729,13.492z M60,17.341v17.146H36v-28h12.475
		C49.408,12.487,54,16.477,60,17.341z M22.434,6.487H34v28H12V17.341C17,16.477,21.499,12.487,22.434,6.487z M12,44.104v-7.617h22
		v28.212C27.688,62.338,12,55.337,12,44.104z M36,65.374V36.487h24v7.626C60,53.817,43.296,62.483,36,65.374z"/>
	<path d="M26.09,55.339c-3.479-1.748-6.159-4.204-7.748-7.106c-0.264-0.483-0.873-0.664-1.357-0.396
		c-0.484,0.265-0.662,0.873-0.396,1.356c1.784,3.26,4.759,6.002,8.604,7.934c0.144,0.072,0.297,0.105,0.448,0.105
		c0.366,0,0.718-0.201,0.894-0.551C26.783,56.188,26.584,55.587,26.09,55.339z"/>
	<path d="M16.688,44.212c-0.144-0.515-0.205-0.827-0.209-0.849c-0.102-0.543-0.625-0.895-1.165-0.797
		c-0.542,0.102-0.901,0.621-0.801,1.164c0,0,0.07,0.381,0.25,1.021c0.124,0.441,0.525,0.729,0.962,0.729
		c0.089,0,0.18-0.012,0.272-0.037C16.528,45.296,16.838,44.743,16.688,44.212z"/>
</g>
</svg>