<?xml version="1.0" encoding="iso-8859-1"?>
<!-- Uploaded to: SVG Repo, www.svgrepo.com, Generator: SVG Repo Mixer Tools -->
<svg fill="#000000" height="800px" width="800px" version="1.1" id="Layer_1" xmlns="http://www.w3.org/2000/svg" xmlns:xlink="http://www.w3.org/1999/xlink" 
	 viewBox="0 0 512.001 512.001" xml:space="preserve">
<g>
	<g>
		<polygon points="335.105,162.962 325.357,162.861 332.454,168.944 336.276,168.878 		"/>
	</g>
</g>
<g>
	<g>
		<path d="M368.699,332.671l-17.802-89.929c-5.934,0.1-31.695,0.536-37.15,0.628c-10.766,0.182-19.963-6.692-23.377-16.151
			l-4.364-12.152c-3.721,1.867-7.708,3.095-11.848,3.648l-58.407,7.809l-16.779,84.772v-28.779l4.314-54.327l-4.897,0.654
			c-17.439,2.331-31.448-8.17-35.579-15.938l-36.735-69.07l52.952,60.445c4.245,4.844,10.653,7.195,16.928,6.357l75.77-10.13
			c10.48-1.4,17.829-11.031,16.429-21.5c0-0.001,0-0.002,0-0.003c-1.386-10.361-10.973-17.835-21.5-16.427l-65.602,8.77
			l-47.952-54.737l52.466,35.603l3.792-0.507l2.359-29.715c0.785-9.885-6.557-18.551-16.437-19.4l-64.155-5.515
			c-4.787-0.411-9.54,1.104-13.206,4.209s-5.941,7.546-6.321,12.335L98.6,277.348v211.555c0,12.757,10.342,23.098,23.098,23.098
			c12.756,0,23.098-10.341,23.098-23.098V290.644l7.982,0.687v197.572c0,12.757,10.342,23.098,23.098,23.098
			c12.756,0,23.098-10.342,23.098-23.098V343.596c1.869,1.389,4.146,2.172,6.519,2.172c6.288,0,14.452,0,23.78,0V488.33
			c0,13.072,10.597,23.67,23.67,23.67c13.073,0,23.67-10.597,23.67-23.67V345.768c3.404,0,6.816,0,10.22,0V488.33
			c0,13.072,10.597,23.67,23.67,23.67s23.67-10.597,23.67-23.67V345.768c9.329,0,17.494,0,23.78,0
			C364.846,345.768,370.042,339.458,368.699,332.671z"/>
	</g>
</g>
<g>
	<g>
		<path d="M383.968,101.934c-9.782,0.001-18.321,5.302-22.92,13.183c6.799-1.41,7.955-1.806,10.949-1.664l-24.894,10.099
			l-28.163-4.253c-8.999-1.354-17.385,4.832-18.744,13.826c-1.358,8.994,4.833,17.385,13.826,18.744l32.628,4.926
			c6.125,0.925,7.428-0.528,37.718-12.815c-2.591,2.779-25.814,17.139-26.923,17.801v6.738l36.808-0.622
			c5.802-0.098,11.313,1.146,16.242,3.441v-42.879C410.493,113.81,398.617,101.934,383.968,101.934z"/>
	</g>
</g>
<g>
	<g>
		<path d="M353.273,31.504c-14.301,0-26.438,9.227-30.809,22.049c-1.616-21.098-19.234-37.717-40.746-37.717
			c-22.577,0-40.88,18.303-40.88,40.88c-0.001,22.577,18.302,40.88,40.879,40.88c18.628,0,34.335-12.464,39.264-29.503
			c1.991,16.069,15.684,28.51,32.292,28.51c17.977,0,32.55-14.573,32.55-32.55S371.251,31.504,353.273,31.504z"/>
	</g>
</g>
<g>
	<g>
		<path d="M296.111,112.785c-12.017,0-22.155,0-36.683,0c-12.331,0-22.887,8.699-25.282,20.796l-3.011,15.215
			c12.662-1.694,20.248-2.708,33.084-4.423c8.778-1.174,17.603,0.774,25.104,5.575C281.458,137.68,284.477,121.464,296.111,112.785z
			"/>
	</g>
</g>
<g>
	<g>
		<path d="M394.884,186.419c-0.107,0-0.213,0.001-0.319,0.002l-64.071,1.083l-17.069-24.767c-4.961-0.051-9.268-0.783-14.054-3.405
			c3.649,4.939,6.129,10.816,6.989,17.241c1.423,10.638-1.813,21.099-8.408,29.003l7.67,11.13c3.461,5.022,9.167,8.013,15.252,8.013
			c0.104,0,0.21-0.001,0.314-0.002l74.001-1.251c10.23-0.173,18.382-8.606,18.209-18.835
			C413.229,194.507,404.97,186.419,394.884,186.419z"/>
	</g>
</g>
<g>
	<g>
		<circle cx="171.236" cy="42.482" r="42.482"/>
	</g>
</g>
</svg>