<?xml version="1.0" encoding="UTF-8" standalone="no"?>
<!-- Generator: Adobe Illustrator 22.0.1, SVG Export Plug-In . SVG Version: 6.00 Build 0)  -->

<svg
   version="1.1"
   x="0px"
   y="0px"
   viewBox="0 0 347 220"
   style="enable-background:new 0 0 347 220;"
   xml:space="preserve"
   id="svg1"
   sodipodi:docname="Allianz.svg"
   inkscape:version="1.3.2 (091e20e, 2023-11-25)"
   xmlns:inkscape="http://www.inkscape.org/namespaces/inkscape"
   xmlns:sodipodi="http://sodipodi.sourceforge.net/DTD/sodipodi-0.dtd"
   xmlns="http://www.w3.org/2000/svg"
   xmlns:svg="http://www.w3.org/2000/svg"><defs
   id="defs1" /><sodipodi:namedview
   id="namedview1"
   pagecolor="#ffffff"
   bordercolor="#000000"
   borderopacity="0.25"
   inkscape:showpageshadow="2"
   inkscape:pageopacity="0.0"
   inkscape:pagecheckerboard="0"
   inkscape:deskcolor="#d1d1d1"
   showgrid="false"
   inkscape:zoom="3.7"
   inkscape:cx="173.37838"
   inkscape:cy="110"
   inkscape:window-width="1920"
   inkscape:window-height="1027"
   inkscape:window-x="0"
   inkscape:window-y="25"
   inkscape:window-maximized="1"
   inkscape:current-layer="Layer_1" />
<style
   type="text/css"
   id="style1">
	.st0{fill:#F3F5F1;}
	.st1{fill:#004A93;}
</style>
<g
   id="Layer_1"
   style="display:inline">
	
	<g
   id="layer1"
   transform="translate(-104.3378,-135.8517)"
   style="display:inline">
		<g
   id="g39870">
			<path
   id="path37627"
   class="st1"
   d="m 158.8,248.8 h -10.7 l 5.7,-18.4 z m -15.6,18.6 3.3,-11.2 h 13.7 l 3.3,11.2 h 11.3 l -12,-42.6 c -0.7,-2.8 -2,-3.7 -5,-3.7 h -16.6 v 3.8 h 1.3 c 2,0 3,0.6 3,2.2 0,1 0,1.6 -1,3.9 l -12,36.4"
   style="display:inline;mix-blend-mode:normal" />
			<path
   id="path37629"
   class="st1"
   d="m 189.1,267.4 v -42.9 c 0,-2.2 -1.3,-3.4 -3.7,-3.4 h -10.3 v 3.8 h 0.7 c 2,0 3,0.8 3,2.6 v 39.8"
   style="display:inline" />
			<path
   id="path37631"
   class="st1"
   d="m 207.7,267.4 v -42.9 c 0,-2.2 -1.3,-3.4 -3.7,-3.4 h -10.3 v 3.8 h 0.7 c 2,0 3,0.8 3,2.6 v 39.8"
   style="display:inline;mix-blend-mode:normal" />
			<path
   id="path37633"
   class="st1"
   d="m 226.7,225.2 c 0,-3.1 -2.3,-4.9 -6,-4.9 -4,0 -6,1.8 -6,4.9 0,3.1 2,5 6,5 3.7,0 6,-1.8 6,-5 m -0.3,42.2 v -31.2 c 0,-2.2 -1.3,-3.4 -3.3,-3.4 h -10.3 v 3.8 h 0.7 c 2,0 2.7,0.8 2.7,2.7 v 28.2"
   style="display:inline" />
			<path
   id="path37635"
   class="st1"
   d="m 251,250.6 v 6.9 c -2,2 -4.3,3.1 -6.3,3.1 -2,0 -3,-1 -3,-3.6 0,-2.9 0.7,-4 3,-4.9 1.7,-0.6 3.3,-1 6.3,-1.5 m -14.6,-8.3 1,-0.4 c 2.7,-1.1 4.3,-1.5 6.3,-1.8 1,-0.1 2.3,-0.3 3,-0.3 3.3,0 4.3,1.1 4.3,4.2 v 0.9 c -4.7,0.8 -6,1 -8.7,1.6 -1.3,0.3 -2.7,0.8 -4,1.3 -4.3,1.7 -6.3,5.1 -6.3,10.3 0,6.6 2.7,9.7 8.7,9.7 2.3,0 4.7,-0.5 6.3,-1.6 1.7,-0.8 2.3,-1.2 4.3,-3 v 1.1 c 0,2.2 1,3.2 3,3.2 h 10 v -3.6 H 264 c -2,0 -3,-0.9 -3,-2.7 v -17 c 0,-8.9 -3,-11.9 -11.7,-11.9 -3,0 -5.7,0.3 -8.3,1 -2.6,0.7 -4,1.1 -7,2.7"
   style="display:inline" />
			<path
   id="path37637"
   class="st1"
   d="m 280,267.4 v -23.5 c 2.3,-2.2 4,-3 6.3,-3 2.3,0 3,1 3,4.5 v 22 h 10.3 v -23.6 c 0,-4.9 -0.7,-7 -2,-8.8 -1.7,-1.8 -3.7,-2.6 -6.7,-2.6 -4,0 -7,1.5 -11.7,5.5 V 236 c 0,-2.2 -1,-3.2 -3,-3.2 h -10 v 3.8 h 0.3 c 2,0 3,0.8 3,2.7 v 28.2"
   style="display:inline" />
			<g
   id="g1"
   style="display:inline">
				<g
   id="g37643"
   transform="matrix(6.780926,0,0,-6.780926,-9776.146,5300.883)">
					<path
   id="path37645"
   class="st1"
   d="m 1490.6,743.3 h -2.3 l 2.2,3.1 v 1.1 h -3.2 c -0.4,0 -0.5,-0.2 -0.5,-0.5 v -0.9 h 0.5 v 0.1 c 0,0.3 0.1,0.4 0.4,0.4 h 1.2 l -2.2,-3.1 v -1.1 h 3.9"
   style="display:inline" />
					<path
   id="path37647"
   class="st1"
   d="m 1499.3,742.6 v 5.8 c 0,0.5 -0.2,0.6 -0.6,0.6 h -1.3 v -0.6 h 0.1 c 0.2,0 0.3,-0.1 0.3,-0.4 v -5.4 z m 0.8,0 h 1.4 v 4.4 c 0,0.4 -0.2,0.6 -0.6,0.6 h -0.8 z m -3.1,0 v 5 h -0.8 c -0.4,0 -0.6,-0.2 -0.6,-0.6 v -4.4 z m 6.2,2.9 c 0,-2.7 -2,-4.7 -4.6,-4.7 -2.7,0 -4.6,2 -4.6,4.7 0,2.7 2,4.7 4.6,4.7 2.6,0 4.6,-2 4.6,-4.7 m 0.9,0 c 0,3.2 -2.4,5.5 -5.5,5.5 -3.1,0 -5.5,-2.4 -5.5,-5.5 0,-3.2 2.4,-5.6 5.5,-5.6 3.2,0 5.5,2.4 5.5,5.6"
   style="display:inline" />
				</g>
			</g>
		</g>
	</g>
</g>

</svg>
