<?xml version="1.0" encoding="UTF-8" standalone="no"?>
<!-- Generator: Adobe Illustrator 22.0.1, SVG Export Plug-In . SVG Version: 6.00 Build 0)  -->

<svg
   version="1.1"
   x="0px"
   y="0px"
   viewBox="0 0 347 220"
   style="enable-background:new 0 0 347 220;"
   xml:space="preserve"
   id="svg7"
   sodipodi:docname="assumptionLife.svg"
   inkscape:version="1.3.2 (091e20e, 2023-11-25)"
   xmlns:inkscape="http://www.inkscape.org/namespaces/inkscape"
   xmlns:sodipodi="http://sodipodi.sourceforge.net/DTD/sodipodi-0.dtd"
   xmlns="http://www.w3.org/2000/svg"
   xmlns:svg="http://www.w3.org/2000/svg"><defs
   id="defs7" /><sodipodi:namedview
   id="namedview7"
   pagecolor="#ffffff"
   bordercolor="#000000"
   borderopacity="0.25"
   inkscape:showpageshadow="2"
   inkscape:pageopacity="0.0"
   inkscape:pagecheckerboard="0"
   inkscape:deskcolor="#d1d1d1"
   showgrid="false"
   inkscape:zoom="3.7"
   inkscape:cx="173.37838"
   inkscape:cy="110"
   inkscape:window-width="1920"
   inkscape:window-height="1027"
   inkscape:window-x="0"
   inkscape:window-y="25"
   inkscape:window-maximized="1"
   inkscape:current-layer="Layer_1" />
<style
   type="text/css"
   id="style1">
	.st0{fill:#F3F5F1;}
	.st1{fill:#001689;}
</style>
<g
   id="Layer_1"
   style="display:inline">
	
	<g
   id="g7"
   style="display:inline">
		<path
   class="st1"
   d="m 306.5,111.5 c 0,-1.6 -0.2,-4.8 -2,-4.8 -2.2,0 -2.4,3.2 -2.5,4.8 z m -4.5,1.4 c -0.1,3.1 1,5.6 4.2,5.6 1.2,0 2.6,-0.6 3.5,-1.4 l 0.4,0.3 -0.7,1.7 c -1.2,0.8 -2.8,1.4 -4.3,1.4 -5,0 -7.6,-3 -7.6,-8 0,-4.2 2.5,-7.3 6.9,-7.3 4.8,0 6.5,3.3 6.2,7.6 H 302 Z m -196.6,1 c -0.8,2.3 -1.5,4.2 -2.1,6.3 -0.5,0 -0.9,-0.1 -1.4,-0.1 -0.5,0 -1,0.1 -1.5,0.1 l 8.7,-21 c 0.4,0.1 0.8,0.1 1.2,0.1 0.4,0 0.8,0 1.2,-0.1 l 8.5,21.1 c -0.9,-0.1 -1.7,-0.2 -2.6,-0.2 -0.9,0 -1.7,0.1 -2.6,0.2 -0.7,-2.2 -1.3,-4.3 -2.2,-6.3 h -7.2 z m 6.4,-1.8 -2.7,-7.1 -2.8,7.1 z m 10.6,4.3 c 0.5,1.5 1.8,2.6 3.5,2.6 1.1,0 2.3,-0.8 2.3,-1.8 0,-2.8 -7,-1.8 -7,-7 0,-3.1 2.5,-4.8 5.2,-4.8 1.5,0 3.2,0.5 4.4,1.4 -0.3,0.9 -0.5,1.8 -0.7,2.7 h -0.8 c -0.2,-1.3 -1.5,-2.5 -2.9,-2.5 -1.1,0 -2.2,0.5 -2.2,1.8 0,2.9 7.1,1.5 7.1,7.1 0,2.8 -2.2,4.8 -5.8,4.8 -1.5,0 -2.9,-0.4 -4.2,-1.2 0.2,-1 0.3,-1.9 0.5,-2.9 h 0.6 z m 11.8,0 c 0.5,1.5 1.8,2.6 3.5,2.6 1.1,0 2.3,-0.8 2.3,-1.8 0,-2.8 -7,-1.8 -7,-7 0,-3.1 2.5,-4.8 5.2,-4.8 1.5,0 3.2,0.5 4.4,1.4 -0.3,0.9 -0.5,1.8 -0.7,2.7 H 141 c -0.2,-1.3 -1.5,-2.5 -2.9,-2.5 -1.1,0 -2.2,0.5 -2.2,1.8 0,2.9 7.1,1.5 7.1,7.1 0,2.8 -2.2,4.8 -5.8,4.8 -1.5,0 -2.9,-0.4 -4.2,-1.2 0.2,-1 0.3,-1.9 0.5,-2.9 h 0.7 z m 24.6,3.8 c -0.7,-0.1 -1.3,-0.2 -2,-0.2 -0.7,0 -1.4,0.1 -2,0.2 V 118 c -1.4,1.5 -2.5,2.5 -4.6,2.5 -1.5,0 -3.2,-0.6 -4.1,-1.9 -0.9,-1.3 -0.8,-3.2 -0.8,-4.7 v -8.4 c 0.7,0.1 1.4,0.2 2.1,0.2 0.7,0 1.4,-0.1 2.1,-0.2 v 8.4 c 0,0.7 0,1.9 0.3,2.5 0.4,0.9 1.1,1.6 2.2,1.6 2.6,0 2.6,-2.6 2.6,-4.5 v -7.9 c 0.7,0.1 1.4,0.2 2.1,0.2 0.7,0 1.4,-0.1 2.1,-0.2 z m 3.5,-14.7 c 0.7,0.1 1.4,0.2 2.1,0.2 0.7,0 1.4,-0.1 2.1,-0.2 v 2.3 c 0.9,-1.5 2.7,-2.5 4.5,-2.5 1.9,0 3.4,0.9 4,2.8 1.1,-1.6 2.6,-2.8 4.6,-2.8 3.5,0 4.7,2.1 4.7,5.3 v 9.7 c -0.7,-0.1 -1.4,-0.2 -2.1,-0.2 -0.7,0 -1.4,0.1 -2.1,0.2 V 112 c 0,-2 -0.2,-4.2 -2.2,-4.2 -2.2,0 -2.5,1.4 -2.5,3.2 v 9.2 c -0.7,-0.1 -1.4,-0.2 -2.1,-0.2 -0.7,0 -1.4,0.1 -2.1,0.2 V 112 c 0,-2 -0.2,-4.2 -2.2,-4.2 -2.1,0 -2.5,1.9 -2.5,3.6 v 8.8 c -0.7,-0.1 -1.4,-0.2 -2.1,-0.2 -0.7,0 -1.4,0.1 -2.1,0.2 z m 25.3,0 c 0.7,0.1 1.3,0.2 2,0.2 0.7,0 1.3,-0.1 2,-0.2 v 2.7 c 0.7,-1.8 2.1,-2.9 4.2,-2.9 4.4,0 6,3.5 6,7.4 0,5.4 -2.9,7.9 -6.1,7.9 -2,0 -3.2,-1 -3.9,-2.2 v 9.6 c -0.7,-0.1 -1.4,-0.2 -2.1,-0.2 -0.7,0 -1.4,0.1 -2.1,0.2 z m 9.7,7.5 c 0,-3.4 -0.6,-5.7 -2.6,-5.7 -2.6,0 -2.9,4 -2.9,5.9 0,1.8 0.2,5.4 2.8,5.4 1.8,-0.3 2.7,-2.5 2.7,-5.6 z m 12.2,3.1 c 0,2.1 0.1,3.2 2.8,2.5 v 1.2 c -1.1,0.4 -2.2,0.7 -3.2,0.7 -3.2,0 -3.8,-2.1 -3.8,-4.9 v -8.1 h -2.1 c 0.1,-0.7 0.1,-1.2 0,-1.9 h 2.1 v -3.4 c 1.4,-0.5 2.7,-1.2 4.2,-1.9 v 5.3 h 2.6 c -0.1,0.7 -0.1,1.2 0,1.9 h -2.6 z m 5.5,-10.6 c 0.7,0.1 1.4,0.2 2.1,0.2 0.7,0 1.4,-0.1 2.1,-0.2 v 14.7 c -0.7,-0.1 -1.4,-0.2 -2.1,-0.2 -0.7,0 -1.4,0.1 -2.1,0.2 z m 2,-7.9 c 1.3,0 2.4,1.1 2.4,2.4 0,1.3 -1.1,2.4 -2.4,2.4 -1.3,0 -2.4,-1.1 -2.4,-2.4 0,-1.3 1.1,-2.4 2.4,-2.4 z m 5.3,15.6 c 0,-4.8 2.8,-7.9 7.4,-7.9 4.6,0 7.5,2.8 7.5,7.3 0,4.6 -2.7,8 -7.5,8 -4.6,-0.1 -7.4,-2.9 -7.4,-7.4 z m 4.4,-0.1 c 0,1.9 0.2,6 2.9,6 2.3,-0.1 3,-3.8 3,-7.1 0,-2.9 -0.8,-5.4 -2.8,-5.4 -2.4,0 -3.1,2.9 -3.1,6.5 z m 13.1,-7.6 c 0.7,0.1 1.3,0.2 2,0.2 0.7,0 1.3,-0.1 2,-0.2 v 2.2 c 1.2,-1.4 2.8,-2.5 4.7,-2.5 3.8,0 4.8,2.5 4.8,6.1 v 8.9 c -0.7,-0.1 -1.4,-0.2 -2.1,-0.2 -0.7,0 -1.4,0.1 -2.1,0.2 v -7.5 c 0,-2.8 -0.4,-4.9 -2.5,-4.9 -2.6,0 -2.6,3.5 -2.6,5.5 v 7 c -0.7,-0.1 -1.4,-0.2 -2.1,-0.2 -0.7,0 -1.4,0.1 -2.1,0.2 z m 30.5,12.4 c 2.6,0 4.9,-0.2 6.9,-0.4 -0.1,0.4 -0.2,0.9 -0.2,1.3 0,0.4 0.1,0.9 0.2,1.3 H 265.7 V 99.5 c 0.8,0.1 1.5,0.2 2.3,0.2 0.8,0 1.5,-0.1 2.3,-0.2 z m 10.3,-12.4 c 0.7,0.1 1.4,0.2 2.1,0.2 0.7,0 1.4,-0.1 2.1,-0.2 v 14.7 c -0.7,-0.1 -1.4,-0.2 -2.1,-0.2 -0.7,0 -1.4,0.1 -2.1,0.2 z m 2.1,-7.9 c 1.3,0 2.4,1.1 2.4,2.4 0,1.3 -1.1,2.4 -2.4,2.4 -1.3,0 -2.4,-1.1 -2.4,-2.4 0,-1.3 1.1,-2.4 2.4,-2.4 z m 4.5,9.9 c 0.1,-0.6 0.1,-1.2 0,-1.9 h 2.2 c 0.2,-1.6 0.6,-3.4 1.6,-5 1.5,-2.7 3.2,-3.7 6.3,-3.2 -0.2,1.3 -0.2,2.7 -0.1,3.8 l -0.4,0.2 c -0.8,-0.4 -1.8,-0.8 -2.7,-0.8 -0.5,0 -1.3,0 -1.7,0.4 -0.2,0.2 -0.4,0.3 -0.4,0.6 0,0.8 0.9,3.1 1.3,4 h 3.1 c -0.1,0.7 -0.1,1.2 0,1.9 h -2.8 v 12.8 c -0.7,-0.1 -1.4,-0.2 -2.1,-0.2 -0.7,0 -1.4,0.1 -2.1,0.2 v -12.8 z"
   id="path1"
   style="display:inline" />
		<path
   class="st1"
   d="m 55.4,83.6 v 0 l -19,37.1 h -0.1 v 0.1 0 0 l 1.2,2.5 h 36.9 v -2.5 l 8.1,15.7 h 3 L 58.3,83.6 Z m -16.1,37.1 17.5,-34.2 1,2 -16.6,32.3 h -1.9 z m 35.1,0 H 53.8 L 64,100.5 Z m -11.8,-23 -11.8,23 H 49 L 61.7,95.9 Z M 60.2,93.1 46,120.7 H 44.1 L 59.2,91.2 Z"
   id="path2"
   style="display:inline" />
		<polygon
   class="st1"
   points="74.4,125.1 38.5,125.1 39.8,127.6 74.4,127.6 "
   id="polygon2"
   style="display:inline" />
		<polygon
   class="st1"
   points="74.4,129.5 40.8,129.5 42,132 74.4,132 "
   id="polygon3"
   style="display:inline" />
		<polygon
   class="st1"
   points="44.4,136.4 74.4,136.4 74.4,133.8 43.1,133.8 "
   id="polygon4" />
		<polygon
   class="st1"
   points="60.2,83.6 87.4,136.4 90.3,136.4 63.2,83.6 "
   id="polygon5" />
		<polygon
   class="st1"
   points="65.1,83.6 92.2,136.4 95.2,136.4 68.1,83.6 "
   id="polygon6" />
		<polygon
   class="st1"
   points="73,83.6 70,83.6 97.1,136.4 100.1,136.4 "
   id="polygon7" />
	</g>
</g>

</svg>
