<?xml version="1.0" encoding="UTF-8" standalone="no"?>
<svg
   width="3840"
   height="2160"
   version="1.1"
   id="svg3"
   sodipodi:docname="b2b.svg"
   inkscape:version="1.3.2 (091e20e, 2023-11-25)"
   xmlns:inkscape="http://www.inkscape.org/namespaces/inkscape"
   xmlns:sodipodi="http://sodipodi.sourceforge.net/DTD/sodipodi-0.dtd"
   xmlns="http://www.w3.org/2000/svg"
   xmlns:svg="http://www.w3.org/2000/svg">
  <defs
     id="defs3">
    <clipPath
       clipPathUnits="userSpaceOnUse"
       id="clipPath53">
      <path
         id="path54"
         style="fill:#ff0000;fill-opacity:1;fill-rule:nonzero;stroke:none"
         d="m 841,742 v 743 h 622.1348 c -0.4423,-7.1435 -0.8061,-14.2918 -0.9512,-21.4512 -0.6717,-14.9259 -1.8115,-29.8187 -2.9316,-44.7168 -1.2945,-22.6163 -2.055,-45.2679 -1.8184,-67.9258 v -31.4082 c 0,-7.5563 2e-4,-15.1146 0,-22.6718 v -36.5176 c 0,-9.3842 4e-4,-18.7682 -0.016,-28.1524 -0.019,-16.2241 -0.042,-32.4508 -0.1016,-48.6757 -0.08,-18.1025 -0.1578,-36.206 -0.5723,-54.3047 -0.5238,-18.9423 -1.4773,-37.8671 -2.9296,-56.7617 -2.6969,-35.1255 -5.9779,-70.2125 -10.6993,-105.1309 -3.6093,-28.47077 -8.2453,-56.96525 -8.4531,-85.72461 -0.053,-7.30305 0.2023,-14.30002 0.5274,-21.22461 C 1391.5974,828.97244 1373.2958,784.43054 1380.4648,742 Z" />
    </clipPath>
    <clipPath
       clipPathUnits="userSpaceOnUse"
       id="clipPath63">
      <path
         id="path64"
         style="fill:#ff0000;fill-opacity:1;fill-rule:nonzero;stroke:none"
         d="m 841,742 v 400.8398 c 0.97353,-49.6714 2.14087,-99.3402 3.6875,-148.998 1.46895,-41.25199 2.32993,-71.56619 4.60156,-112.46485 2.18359,-39.31361 4.78247,-78.81663 12.43555,-117.51562 1.49006,-7.53467 3.14148,-14.82005 4.94141,-21.86133 z m 681.9316,0 c -0.037,28.2995 0.2404,56.59497 0.7911,84.89062 2.031,77.4091 5.1762,154.78398 7.916,232.16988 1.8929,48.2079 4.1238,96.4019 6.1152,144.6055 0.9047,20.4061 1.4804,40.8235 1.8242,61.2461 0.2207,15.0807 0.2937,30.1622 0.3457,45.2441 0.022,7.1029 0.034,14.2077 0.045,21.3106 0.1012,67.2875 -16.1538,118.3428 -40.8106,153.5332 H 3056.5391 V 742 Z" />
    </clipPath>
  </defs>
  <sodipodi:namedview
     id="namedview3"
     pagecolor="#ffffff"
     bordercolor="#000000"
     borderopacity="0.25"
     inkscape:showpageshadow="2"
     inkscape:pageopacity="0.0"
     inkscape:pagecheckerboard="0"
     inkscape:deskcolor="#d1d1d1"
     showgrid="false"
     inkscape:zoom="0.52984823"
     inkscape:cx="1988.3052"
     inkscape:cy="1179.5831"
     inkscape:window-width="1920"
     inkscape:window-height="1027"
     inkscape:window-x="0"
     inkscape:window-y="25"
     inkscape:window-maximized="1"
     inkscape:current-layer="svg3" />
  <path
     d="m 2698,1212 h 41 v -91 l 62,91 h 44 l -72,-109 68,-85 h -32 l -70,87 v -87 h -41 z m -282,-194 h -24 l -77,194 h 28 l 21,-56 h 59 l 20,56 h 49 z m -43,116 22,-57 20,57 z m 265,7 -104,-123 h -29 v 194 h 27 v -125 l 108,125 h 26 v -194 h -28 z m -854,58 c 60,-55 83,-90 83,-129 0,-32 -15,-42 -29,-42 -22,0 -28,27 -28,43 l -26,-18 c 7,-21 27,-37 61,-37 54,0 68,28 68,50 0,26 -11,60 -65,109 h 64 v 38 h -128 v -13 z m -88,-9 h -15 v -69 c 26,0 46,4 46,36 0,22 -16,33 -31,33 z m -15,-151 h 15 c 11,0 28,9 28,27 0,30 -20,33 -44,33 v -60 z m 60,67 c 49,-23 42,-89 -27,-89 h -79 v 194 h 71 c 79,0 92,-85 34,-105 z m 266,83 h -15 v -69 c 26,0 46,4 46,36 0,22 -16,33 -31,33 z m -15,-151 h 15 c 11,0 28,9 28,27 0,30 -20,33 -44,33 v -60 z m 60,67 c 49,-23 42,-89 -27,-89 h -79 v 194 h 71 c 79,0 92,-85 34,-105 z m 184,83 h -15 v -69 c 26,0 46,4 46,36 0,22 -16,33 -31,33 z m -15,-151 h 15 c 11,0 28,9 28,27 0,30 -20,33 -44,33 v -60 z m 60,67 c 49,-23 42,-89 -27,-89 h -79 v 194 h 71 c 79,0 92,-85 34,-105 z"
     fill="#003e69"
     id="path3"
     style="display:inline" />
  <path
     d="m 1074.9016,991 70.2708,70 70.2709,-70 V 861 h -140.5417 z m 333.2845,7 -99.383,-99 -92.356,92 v 99 h 99.3831 z m -89.3443,93 -70.2708,70 70.2708,70 h 130.5031 v -140 z m -243.9402,46 v 230 h 140.5417 v -230 l -70.2709,-70 z M 841,1091 v 140 h 130.50303 l 70.27087,-70 -70.27087,-70 z m 41.15866,-93 92.35598,92 h 99.38306 v -99 l -92.356,-92 z m 682.63124,487 H 3056.5396 V 742 H 1564.7899 Z"
     fill="#fdb924"
     id="path2"
     style="display:inline;fill:none;stroke:#fdb924;stroke-width:41.902;stroke-dasharray:none;stroke-opacity:1"
     inkscape:label="path2"
     clip-path="url(#clipPath63)" />
  <path
     d="m 1074,991 70,70 70,-70 V 861 h -140 z m 332,7 -99,-99 -92,92 v 99 h 99 z m -89,93 -70,70 70,70 h 130 v -140 z m -243,46 v 230 h 140 v -230 l -70,-70 z m -233,-46 v 140 h 130 l 70,-70 -70,-70 z m 41,-93 92,92 h 99 v -99 l -92,-92 z m 680,487 H 3048 V 742 H 1562 Z"
     fill="#fdb924"
     id="path4"
     style="display:inline"
     inkscape:label="path2"
     clip-path="url(#clipPath53)" />
</svg>
