<?xml version="1.0" encoding="UTF-8" standalone="no"?>
<!-- Created with Inkscape (http://www.inkscape.org/) -->

<svg
   width="210mm"
   height="297mm"
   viewBox="0 0 210 297"
   version="1.1"
   id="svg1"
   xml:space="preserve"
   inkscape:version="1.3.2 (091e20e, 2023-11-25)"
   sodipodi:docname="beneva.svg"
   xmlns:inkscape="http://www.inkscape.org/namespaces/inkscape"
   xmlns:sodipodi="http://sodipodi.sourceforge.net/DTD/sodipodi-0.dtd"
   xmlns="http://www.w3.org/2000/svg"
   xmlns:svg="http://www.w3.org/2000/svg"><sodipodi:namedview
     id="namedview1"
     pagecolor="#ffffff"
     bordercolor="#000000"
     borderopacity="0.25"
     inkscape:showpageshadow="2"
     inkscape:pageopacity="0.0"
     inkscape:pagecheckerboard="0"
     inkscape:deskcolor="#d1d1d1"
     inkscape:document-units="mm"
     showgrid="false"
     inkscape:zoom="1.498145"
     inkscape:cx="380.13678"
     inkscape:cy="564.03086"
     inkscape:window-width="1920"
     inkscape:window-height="1027"
     inkscape:window-x="0"
     inkscape:window-y="25"
     inkscape:window-maximized="1"
     inkscape:current-layer="layer1" /><defs
     id="defs1" /><g
     inkscape:label="Layer 1"
     inkscape:groupmode="layer"
     id="layer1"><path
       class="st0"
       d="m 184.23977,139.75181 c 3.74604,0 7.28959,1.51868 9.51696,3.94854 v -3.34108 h 6.68213 v 28.95592 h -6.78338 v -3.54354 c -2.22736,2.53111 -5.77091,4.04975 -9.51695,4.04975 -7.49211,0 -14.7817,-5.87216 -14.7817,-14.98415 0,-9.3145 7.08713,-15.08544 14.88294,-15.08544 z m -51.02716,19.64141 5.46719,3.03734 c -2.83487,4.55602 -7.2896,7.39084 -13.56677,7.39084 -6.27716,0 -10.83313,-2.93608 -13.56675,-7.39084 l 5.46719,-3.03734 c 1.61994,2.73363 4.55601,4.65728 8.09956,4.65728 3.54356,0 6.47964,-1.92365 8.09958,-4.65728 z m -65.808868,0 5.467196,3.03734 c -2.733598,4.55602 -7.289595,7.39084 -13.566747,7.39084 -6.277151,0 -10.833147,-2.93608 -13.566746,-7.39084 l 5.467197,-3.03734 c 1.619909,2.73363 4.555997,4.65728 8.099549,4.65728 3.543554,0 6.479642,-1.92365 8.099551,-4.65728 z M 16.477821,127.29877 v 16.40158 c 2.227374,-2.32862 5.77093,-3.94854 9.51697,-3.94854 7.694572,0 14.781678,5.77094 14.781678,15.08544 0,9.21325 -7.18835,14.98415 -14.680434,14.98415 -3.746041,0 -7.289596,-1.51864 -9.516972,-4.04975 v 3.44229 H 9.8969349 v -41.91517 z m 130.908979,13.0605 7.59334,20.14764 7.59331,-20.14764 h 7.08714 l -11.33941,28.95592 h -6.68213 L 140.2997,140.35927 Z m -53.457048,-0.60746 c 7.492098,0 12.048128,4.75852 12.048128,12.65558 v 16.80655 H 99.194493 V 152.9136 c 0,-4.55602 -2.328615,-7.4921 -6.88463,-7.4921 -4.049766,0 -7.188356,3.03735 -7.188356,7.89707 v 15.89537 h -6.682128 v -28.85467 h 6.682128 v 3.34108 c 2.024909,-2.32862 5.062237,-3.94854 8.808245,-3.94854 z m 91.119948,5.97345 c -5.0622,0 -8.90949,3.94852 -8.90949,9.01074 0,5.06223 3.94856,9.112 8.90949,9.112 5.26473,0 9.01078,-4.04977 9.01078,-9.112 0,-4.96098 -3.84729,-9.01074 -9.01078,-9.01074 z m -159.864865,0 c -5.264706,0 -9.010747,4.04976 -9.010747,9.01074 0,5.06223 3.746041,9.112 9.010747,9.112 5.062221,0 8.909504,-3.94856 8.909504,-9.112 0,-5.16349 -3.847283,-9.01074 -8.909504,-9.01074 z m 99.928195,-5.97345 c 8.60578,0 15.38917,6.68212 15.38917,15.18669 0,0.70868 -0.10135,1.51865 -0.20243,2.22737 h -30.47456 c -0.10145,-0.70872 -0.20242,-1.41744 -0.20242,-2.22737 0.10104,-8.50457 6.88458,-15.18669 15.49036,-15.18669 z m -65.808839,0 c 8.707017,0 15.389146,6.68212 15.389146,15.18669 0,0.70868 -0.101246,1.51865 -0.202502,2.22737 H 44.117522 c -0.101247,-0.70872 -0.202502,-1.41744 -0.202502,-2.22737 0,-8.50457 6.783373,-15.18669 15.389143,-15.18669 z m 65.808839,5.77094 c -4.04975,0 -7.28959,2.53112 -8.50452,5.97343 h 17.1103 c -1.31617,-3.44231 -4.55602,-5.97343 -8.60578,-5.97343 z m -65.808839,0 c -4.049775,0 -7.289596,2.53112 -8.504529,5.97343 h 17.110303 c -1.316179,-3.44231 -4.555997,-5.97343 -8.605774,-5.97343 z"
       id="path1"
       style="stroke-width:1.01244" /></g><style
     type="text/css"
     id="style1">
	.st0{fill:#4B009B;}
</style></svg>
