<?xml version="1.0" encoding="UTF-8" standalone="no"?>
<!-- Generator: Adobe Illustrator 22.0.1, SVG Export Plug-In . SVG Version: 6.00 Build 0)  -->

<svg
   version="1.1"
   x="0px"
   y="0px"
   viewBox="0 0 347 220"
   style="enable-background:new 0 0 347 220;"
   xml:space="preserve"
   id="svg8"
   sodipodi:docname="BMO.svg"
   inkscape:version="1.3.2 (091e20e, 2023-11-25)"
   xmlns:inkscape="http://www.inkscape.org/namespaces/inkscape"
   xmlns:sodipodi="http://sodipodi.sourceforge.net/DTD/sodipodi-0.dtd"
   xmlns:xlink="http://www.w3.org/1999/xlink"
   xmlns="http://www.w3.org/2000/svg"
   xmlns:svg="http://www.w3.org/2000/svg"><defs
   id="defs8"><linearGradient
     id="swatch10"
     inkscape:swatch="solid"><stop
       style="stop-color:#0078c1;stop-opacity:1;"
       offset="0"
       id="stop10" /></linearGradient><linearGradient
     id="swatch8"><stop
       style="stop-color:#000000;stop-opacity:1;"
       offset="0"
       id="stop8" /></linearGradient><linearGradient
     inkscape:collect="always"
     xlink:href="#swatch10"
     id="linearGradient10"
     x1="191.86014"
     y1="109.97275"
     x2="285.25238"
     y2="109.97275"
     gradientUnits="userSpaceOnUse" /></defs><sodipodi:namedview
   id="namedview8"
   pagecolor="#ffffff"
   bordercolor="#000000"
   borderopacity="0.25"
   inkscape:showpageshadow="2"
   inkscape:pageopacity="0.0"
   inkscape:pagecheckerboard="0"
   inkscape:deskcolor="#d1d1d1"
   inkscape:zoom="2.9552777"
   inkscape:cx="172.06505"
   inkscape:cy="74.104711"
   inkscape:window-width="1920"
   inkscape:window-height="1027"
   inkscape:window-x="0"
   inkscape:window-y="25"
   inkscape:window-maximized="1"
   inkscape:current-layer="svg8" />
<style
   type="text/css"
   id="style1">
	.st0{fill:#F3F5F1;}
	.st1{fill:#ED1C24;}
	.st2{fill:#FFFFFF;}
	.st3{fill:#0078C1;}
</style>
<g
   id="g7"
   style="enable-background:new 0 0 347 220;display:inline">
			
			<rect
   x="216.60001"
   y="116.4"
   class="st2"
   width="44"
   height="13.9"
   id="rect2"
   style="display:inline;fill:#0078c1;fill-opacity:1" />
			<path
   class="st2"
   d="m 237.3,95.6 c 0.6,0.7 1.1,1 1.6,1 0.5,0 1,-0.2 1.6,-1 0,0 7.4,-9.7 7.7,-10.1 1,-1.2 2.2,-1.2 3.2,0 l 9.4,11.9 v 19 l -9.3,-12 c -1.1,-1.4 -2.3,-1.4 -3.4,0 -0.4,0.5 -7.5,9.9 -7.5,9.9 -1.1,1.4 -2.2,1.4 -3.3,0 0,0 -7.3,-9.5 -7.6,-9.9 -1.1,-1.3 -2.3,-1.4 -3.4,0 l -9.4,12 v -19 c 0,0 9,-11.2 9.5,-11.9 1,-1.2 2.2,-1.2 3.2,0 0.3,0.5 7.7,10.1 7.7,10.1"
   id="path2"
   style="display:inline;fill:#0078c1;fill-opacity:1" />
			<path
   class="st3"
   d="m 75.4,120.8 c 0,5.2 -1.8,7.7 -7.9,7.7 h -3.8 v -14.7 h 4.1 c 5.5,0 7.6,2 7.6,7 m 8.2,0.5 c 0,-6.1 -5,-8.3 -11,-8.4 v -0.2 c 5.1,-0.4 9.4,-2.6 9.4,-7.8 0,-5.8 -4.8,-6.9 -10.1,-6.9 -6.4,0 -14,0.2 -20.4,0 v 1.6 c 1.3,-0.1 4.6,0.1 4.6,1.8 v 25.4 c 0,1.6 -3.4,1.9 -4.6,1.9 v 1.6 c 6.2,-0.2 13.5,0 19.8,0 6.4,-0.1 12.3,-2.3 12.3,-9 z m -9.5,-15.4 c 0,4 -1.8,6.3 -6.4,6.3 h -4 V 99.7 c 0.5,0 2.2,-0.1 2.7,-0.1 h 1.4 c 4.6,0 6.3,2.2 6.3,6.3 z"
   id="path3"
   style="display:inline" />
			<path
   class="st3"
   d="m 125,130.2 c -2.9,0 -5.8,0 -8.6,0 v -1.6 c 1.3,0 4.9,-0.1 4.9,-1.8 v -23.6 h -0.1 L 108,130.7 h -1.4 L 93.8,103.2 h -0.1 v 23.7 c 0,1.8 3.8,1.8 5.1,1.8 l 0.1,1.6 c -3.6,-0.1 -8.5,-0.2 -12,0 v -1.6 c 1.4,0 4.6,-0.1 4.6,-1.8 v -25.4 c 0,-1.7 -3.4,-1.8 -4.6,-1.8 v -1.6 c 4.1,0.2 8.5,0.2 12.6,0 l 11,23 11.2,-23 c 3.9,0.2 8.2,0.1 12.1,0 v 1.6 c -1.3,0 -4.7,0.1 -4.7,1.8 v 25.4 c 0,1.8 3.4,1.8 4.7,1.8 v 1.6 c -3,-0.1 -6,-0.1 -8.8,-0.1"
   id="path4"
   style="display:inline" />
			<path
   class="st3"
   d="m 172.5,114.1 c 0,-10.7 -6.5,-16.6 -18.3,-16.6 -11.8,0 -18.3,5.9 -18.3,16.6 0,10.7 6.5,16.7 18.3,16.7 11.8,0 18.3,-6 18.3,-16.7 m -8.5,0 c 0,6.3 -0.6,15.1 -9.7,15.1 -9.1,0 -9.8,-8.8 -9.8,-15.1 0,-6.3 0.7,-15 9.8,-15 9,0 9.7,8.8 9.7,15 z"
   id="path5"
   style="display:inline" />
			<path
   class="st3"
   d="m 290,88.2 c -2.6,0 -4.7,-2.1 -4.7,-4.8 0,-2.6 2.1,-4.8 4.7,-4.8 2.6,0 4.7,2.1 4.7,4.8 0.1,2.6 -2.1,4.8 -4.7,4.8 m 0,-10.4 c -3.1,0 -5.5,2.5 -5.5,5.5 0,3.1 2.5,5.5 5.5,5.5 3,0 5.5,-2.5 5.5,-5.5 0,-3 -2.5,-5.5 -5.5,-5.5 z"
   id="path6"
   style="display:inline" />
			<path
   class="st3"
   d="m 288.8,83.1 v -2.2 h 1.3 c 1.1,0 1.6,0.3 1.6,1.1 0,0.8 -0.5,1.1 -1.6,1.1 h -1.3 m 3.7,-1.1 c 0,-1.2 -0.7,-1.8 -2.1,-1.8 h -2.5 v 6.4 h 0.8 v -2.8 h 1.3 l 1.8,2.8 h 0.9 l -1.9,-2.8 c 1.1,-0.2 1.7,-0.9 1.7,-1.8 z"
   id="path7"
   style="display:inline" />
		</g>

<ellipse
   style="display:inline;fill-opacity:1;stroke:url(#linearGradient10);stroke-width:2.2;stroke-dasharray:none;paint-order:markers fill stroke;fill:none"
   id="path10"
   cx="238.55626"
   cy="109.97275"
   rx="46.696121"
   ry="47.034496"
   inkscape:label="circle" /></svg>
