<?xml version="1.0" encoding="UTF-8" standalone="no"?>
<!-- Generator: Adobe Illustrator 23.0.3, SVG Export Plug-In . SVG Version: 6.00 Build 0)  -->

<svg
   version="1.1"
   id="Layer_1"
   x="0px"
   y="0px"
   viewBox="0 0 237 150"
   style="enable-background:new 0 0 237 150;"
   xml:space="preserve"
   sodipodi:docname="canadaLife.svg"
   inkscape:version="1.3.2 (091e20e, 2023-11-25)"
   xmlns:inkscape="http://www.inkscape.org/namespaces/inkscape"
   xmlns:sodipodi="http://sodipodi.sourceforge.net/DTD/sodipodi-0.dtd"
   xmlns="http://www.w3.org/2000/svg"
   xmlns:svg="http://www.w3.org/2000/svg"><defs
   id="defs16" /><sodipodi:namedview
   id="namedview16"
   pagecolor="#ffffff"
   bordercolor="#000000"
   borderopacity="0.25"
   inkscape:showpageshadow="2"
   inkscape:pageopacity="0.0"
   inkscape:pagecheckerboard="0"
   inkscape:deskcolor="#d1d1d1"
   showgrid="false"
   inkscape:zoom="5.4266667"
   inkscape:cx="118.58108"
   inkscape:cy="75"
   inkscape:window-width="1920"
   inkscape:window-height="1027"
   inkscape:window-x="0"
   inkscape:window-y="25"
   inkscape:window-maximized="1"
   inkscape:current-layer="g16" />
<style
   type="text/css"
   id="style1">
	.st0{fill:#F3F5F1;}
	.st1{fill:none;}
	.st2{fill:#BA0C2F;}
	.st3{fill:#838271;}
	.st4{fill:#FFFFFF;}
</style>


<g
   id="g16"
   style="display:inline">
	<g
   id="g7"
   style="display:inline">
		<path
   class="st2"
   d="m 185.07,73.65 c -3.2,0 -5.15,3.17 -5.15,6.37 0,0.49 0.06,0.87 0.12,1.22 4.86,-0.93 7.22,-3.52 7.22,-5.56 -0.01,-1.3 -0.83,-2.03 -2.19,-2.03 z"
   id="path2" />
		<path
   class="st2"
   d="m 141.96,79.88 c 0.2,-2.94 0.76,-5.88 1.31,-8.21 1.66,-7.16 4.42,-12.6 8.38,-12.6 2.74,0 3.75,1.89 3.78,4.16 0.06,5.94 -4.74,13.16 -10.48,17.73 -0.09,2.85 0.84,4.16 2.5,4.16 3,0 6,-3.06 8.59,-9.23 0.35,-0.84 0.7,-1.8 1.05,-2.74 0.52,-1.31 3.2,-0.55 2.82,0.76 -0.81,2.77 -2.15,6.4 -2.15,8.82 0,1.6 0.81,2.3 2.01,2.27 1.66,-0.03 3.03,-1.22 3.99,-2.39 0,0 0.67,-3.43 0.87,-4.37 2.82,-13.36 6.05,-19.15 10.3,-19.15 2.53,0 3.84,1.57 3.84,4.07 0,4.63 -3.2,9.95 -9.31,17.29 1.92,0.67 4.02,1.16 6.69,1.16 0.15,0 0.52,0 0.67,0 -0.06,-0.38 -0.12,-1.05 -0.12,-1.6 0,-5.18 3.73,-8.91 8.3,-8.91 3,0 5.33,1.4 5.33,4.48 0,3.87 -4.1,6.93 -9.26,7.98 0.81,0.96 2.39,1.63 4.6,1.63 4.95,0 8.76,-2.44 11.29,-4.8 V 45.07 H 134.1 v 38.97 c 2.91,-1.08 5.62,-2.53 7.86,-4.16 z M 160.44,65.5 c 1.16,0 2.1,0.96 2.04,2.12 -0.06,1.16 -1.05,2.12 -2.24,2.12 -1.19,0 -2.1,-0.96 -2.04,-2.12 0.06,-1.16 1.08,-2.12 2.24,-2.12 z"
   id="path3" />
		<path
   class="st2"
   d="m 174.91,61.57 c -1.51,0 -4.57,4.37 -7.22,16.94 4.48,-5.68 8.15,-12.11 8.15,-15.46 -0.03,-0.84 -0.26,-1.48 -0.93,-1.48 z"
   id="path4"
   style="display:inline" />
		<path
   class="st2"
   d="m 185.71,87.91 c -4.31,0 -6.75,-1.69 -8.03,-3.78 -0.44,0.03 -0.93,0.03 -1.37,0.03 -2.27,0 -4.34,-0.32 -5.79,-0.79 1.16,2.5 1.92,5.76 1.92,8.73 0,5.65 -2.04,9.37 -5.94,9.37 -2.77,0 -4.34,-2.01 -4.4,-6.17 -0.03,-3.03 0.35,-5.56 0.96,-8.96 -0.93,0.79 -2.27,1.34 -3.84,1.37 -2.85,0 -4.45,-1.8 -4.57,-4.31 -2.21,3 -4.89,4.42 -7.68,4.42 -3.03,0 -4.66,-1.95 -4.98,-4.86 -2.18,1.4 -4.83,2.82 -7.86,3.9 v 21.07 H 197 V 83.86 c -3.38,2.68 -7.25,4.05 -11.29,4.05 z"
   id="path5"
   style="display:inline" />
		<path
   class="st2"
   d="m 151.62,61.57 c -1.63,0 -4.51,4.89 -6.32,15.63 5.12,-4.98 7.22,-11.44 7.22,-14.03 0.01,-1.19 -0.31,-1.6 -0.9,-1.6 z"
   id="path6"
   style="display:inline" />
		<path
   class="st2"
   d="m 166.7,83.25 c -0.67,3.09 -1.57,8.56 -1.57,11.99 0,2.01 0.44,3.29 1.6,3.29 2.04,0 2.62,-3.55 2.62,-6.2 0,-3.43 -0.87,-7.01 -2.24,-9.52 z"
   id="path7"
   style="display:inline" />
	</g>
	<g
   id="g13"
   style="display:inline">
		<path
   class="st3"
   d="m 33.31,80.46 c 0,0.79 0.09,1.51 0.26,2.21 0.17,0.7 0.44,1.28 0.81,1.8 0.37,0.52 0.84,0.9 1.43,1.19 0.59,0.29 1.28,0.44 2.1,0.44 0.58,0 1.14,-0.09 1.6,-0.26 0.47,-0.17 0.87,-0.38 1.19,-0.61 0.41,-0.26 0.76,-0.55 1.05,-0.87 0.17,0.2 0.41,0.49 0.67,0.9 0.26,0.41 0.41,0.79 0.41,1.14 0,0.12 -0.03,0.23 -0.09,0.35 -0.12,0.2 -0.29,0.44 -0.58,0.7 -0.41,0.35 -1.02,0.67 -1.8,0.93 -0.78,0.26 -1.75,0.41 -2.88,0.41 -0.73,0 -1.51,-0.12 -2.39,-0.29 -0.87,-0.2 -1.69,-0.61 -2.42,-1.19 -0.76,-0.61 -1.4,-1.43 -1.89,-2.5 -0.52,-1.08 -0.76,-2.5 -0.76,-4.25 0,-1.63 0.26,-2.97 0.81,-4.05 0.52,-1.05 1.19,-1.89 1.98,-2.5 0.79,-0.61 1.63,-1.02 2.5,-1.28 0.87,-0.23 1.66,-0.35 2.33,-0.35 0.81,0 1.57,0.09 2.21,0.26 0.67,0.17 1.22,0.41 1.69,0.67 0.44,0.26 0.79,0.52 0.99,0.79 0.23,0.29 0.32,0.55 0.32,0.84 0,0.55 -0.41,1.31 -0.9,2.01 -0.35,-0.41 -0.9,-0.84 -1.6,-1.25 -0.7,-0.41 -1.48,-0.61 -2.36,-0.61 -0.84,0 -1.54,0.15 -2.12,0.41 -0.58,0.26 -1.08,0.67 -1.46,1.16 -0.38,0.49 -0.67,1.08 -0.84,1.75 -0.18,0.56 -0.26,1.29 -0.26,2.05 z"
   id="path8" />
		<path
   class="st3"
   d="M 58.95,87.91 C 58.72,87.59 58.54,87.1 58.46,86.48 58.34,85.81 58.31,84.85 58.31,83.63 v -5.47 c 0,-0.96 -0.09,-1.8 -0.29,-2.56 -0.2,-0.73 -0.52,-1.34 -0.99,-1.86 -0.47,-0.49 -1.11,-0.87 -1.86,-1.11 -0.76,-0.23 -1.75,-0.38 -2.88,-0.38 -0.67,0 -1.37,0.06 -2.07,0.17 -0.7,0.11 -1.34,0.26 -1.92,0.47 -0.58,0.21 -1.05,0.44 -1.43,0.7 -0.35,0.26 -0.55,0.55 -0.55,0.84 0,0.2 0.06,0.49 0.2,0.9 0.15,0.41 0.32,0.76 0.55,1.11 0.7,-0.49 1.4,-0.84 2.12,-1.14 0.72,-0.3 1.63,-0.44 2.68,-0.44 1.28,0 2.15,0.23 2.59,0.73 0.47,0.49 0.67,1.19 0.67,2.12 v 0.52 c -0.2,-0.03 -0.44,-0.03 -0.7,-0.03 -0.26,0 -0.49,0 -0.7,0 -0.81,0.03 -1.72,0.12 -2.68,0.26 -0.96,0.14 -1.89,0.44 -2.74,0.87 -0.85,0.43 -1.57,0.99 -2.15,1.72 -0.58,0.73 -0.87,1.66 -0.87,2.79 v 0 c 0,0.93 0.17,1.72 0.47,2.33 0.29,0.61 0.73,1.11 1.22,1.46 0.49,0.35 1.05,0.61 1.63,0.73 0.61,0.15 1.19,0.2 1.78,0.2 1.22,0 2.21,-0.17 2.97,-0.58 0.76,-0.38 1.4,-0.84 1.92,-1.4 0.09,0.64 0.35,1.11 0.84,1.34 0.47,0.26 1.02,0.38 1.66,0.38 0.2,0 0.38,0 0.58,-0.03 0.2,-0.03 0.35,-0.03 0.47,-0.09 0.12,-0.03 0.2,-0.12 0.2,-0.23 -0.05,0.05 -0.05,-0.01 -0.08,-0.04 z m -3.81,-4.16 c 0,0.26 -0.12,0.52 -0.32,0.81 -0.23,0.29 -0.52,0.52 -0.9,0.76 -0.38,0.23 -0.81,0.44 -1.28,0.58 -0.49,0.15 -0.99,0.23 -1.54,0.23 -1.02,0 -1.72,-0.26 -2.1,-0.73 -0.38,-0.49 -0.55,-1.05 -0.55,-1.72 0,-0.7 0.17,-1.25 0.52,-1.66 0.35,-0.41 0.81,-0.76 1.37,-0.99 0.56,-0.23 1.19,-0.41 1.86,-0.49 0.7,-0.09 1.37,-0.12 2.04,-0.12 h 0.9 z"
   id="path9" />
		<path
   class="st3"
   d="m 75.89,88.29 h -3.23 v -8.94 c 0,-0.61 -0.03,-1.19 -0.06,-1.72 -0.03,-0.53 -0.15,-0.99 -0.35,-1.37 -0.17,-0.38 -0.49,-0.67 -0.9,-0.87 -0.41,-0.2 -0.99,-0.32 -1.75,-0.32 -1.05,0 -1.98,0.2 -2.74,0.7 -0.76,0.49 -1.14,1.14 -1.14,1.86 V 88.25 H 62.46 V 72.6 c 0.06,0 0.12,0 0.17,-0.03 0.06,0 0.12,0 0.2,0 0.09,0 0.17,0 0.26,0 0.58,0 1.11,0.15 1.57,0.41 0.47,0.26 0.76,0.73 0.84,1.37 0.49,-0.52 1.19,-1.02 2.07,-1.43 0.88,-0.41 1.89,-0.64 3.09,-0.64 1.51,0 2.65,0.32 3.43,1.02 0.79,0.67 1.31,1.51 1.57,2.5 0.12,0.44 0.17,0.93 0.2,1.48 0.03,0.55 0.03,1.08 0.03,1.6 z"
   id="path10" />
		<path
   class="st3"
   d="M 92.77,87.91 C 92.54,87.59 92.36,87.1 92.28,86.48 92.16,85.81 92.13,84.85 92.13,83.63 v -5.47 c 0,-0.96 -0.09,-1.8 -0.29,-2.56 -0.2,-0.73 -0.52,-1.34 -1.02,-1.86 -0.47,-0.49 -1.11,-0.87 -1.86,-1.11 -0.76,-0.23 -1.75,-0.38 -2.88,-0.38 -0.67,0 -1.37,0.06 -2.07,0.17 -0.7,0.11 -1.34,0.26 -1.92,0.47 -0.58,0.21 -1.05,0.44 -1.43,0.7 -0.35,0.26 -0.55,0.55 -0.55,0.84 0,0.2 0.06,0.49 0.2,0.9 0.14,0.41 0.32,0.76 0.55,1.11 0.7,-0.49 1.4,-0.84 2.12,-1.14 0.72,-0.3 1.63,-0.44 2.68,-0.44 1.28,0 2.15,0.23 2.59,0.73 0.44,0.49 0.67,1.19 0.67,2.12 v 0.52 c -0.2,-0.03 -0.44,-0.03 -0.7,-0.03 -0.26,0 -0.49,0 -0.7,0 -0.81,0.03 -1.72,0.12 -2.68,0.26 -0.99,0.15 -1.89,0.44 -2.77,0.87 -0.88,0.43 -1.57,0.99 -2.15,1.72 -0.58,0.73 -0.87,1.66 -0.87,2.79 v 0 c 0,0.93 0.15,1.72 0.47,2.33 0.32,0.61 0.73,1.11 1.22,1.46 0.49,0.35 1.02,0.61 1.63,0.73 0.61,0.12 1.19,0.2 1.78,0.2 1.22,0 2.21,-0.17 2.97,-0.58 0.76,-0.41 1.4,-0.84 1.92,-1.4 0.09,0.64 0.35,1.11 0.84,1.34 0.49,0.23 1.02,0.38 1.66,0.38 0.2,0 0.38,0 0.58,-0.03 0.2,-0.03 0.35,-0.03 0.47,-0.09 0.12,-0.03 0.2,-0.12 0.2,-0.23 0.04,0.05 0.01,-0.01 -0.02,-0.04 z m -3.78,-4.16 c 0,0.26 -0.12,0.52 -0.32,0.81 -0.23,0.29 -0.52,0.52 -0.9,0.76 -0.38,0.23 -0.81,0.44 -1.31,0.58 -0.5,0.14 -1.02,0.23 -1.54,0.23 -1.02,0 -1.72,-0.26 -2.1,-0.73 -0.38,-0.47 -0.55,-1.05 -0.55,-1.72 0,-0.7 0.17,-1.25 0.52,-1.66 0.35,-0.41 0.81,-0.76 1.37,-0.99 0.56,-0.23 1.19,-0.41 1.86,-0.49 0.7,-0.09 1.37,-0.12 2.04,-0.12 h 0.9 z"
   id="path11" />
		<path
   class="st3"
   d="m 110.18,87.91 c -0.23,-0.32 -0.41,-0.81 -0.49,-1.43 -0.12,-0.67 -0.15,-1.63 -0.15,-2.85 V 67.48 c 0,-0.55 -0.06,-1.02 -0.2,-1.37 -0.14,-0.35 -0.29,-0.61 -0.52,-0.84 -0.23,-0.2 -0.47,-0.35 -0.76,-0.41 -0.29,-0.06 -0.58,-0.12 -0.84,-0.12 -0.15,0 -0.29,0 -0.49,0 -0.17,0 -0.32,0.03 -0.41,0.03 v 9.05 c -0.35,-0.32 -0.87,-0.67 -1.6,-0.99 -0.73,-0.32 -1.63,-0.49 -2.74,-0.49 -0.84,0 -1.63,0.17 -2.42,0.49 -0.79,0.32 -1.46,0.81 -2.07,1.48 -0.58,0.67 -1.05,1.51 -1.43,2.59 -0.35,1.05 -0.52,2.3 -0.52,3.75 0,1.51 0.17,2.79 0.55,3.81 0.35,1.02 0.84,1.86 1.46,2.47 0.62,0.61 1.31,1.05 2.1,1.31 0.79,0.26 1.6,0.41 2.42,0.41 1.16,0 2.12,-0.23 2.85,-0.7 0.76,-0.47 1.28,-0.9 1.6,-1.34 0.09,0.64 0.35,1.11 0.84,1.34 0.49,0.23 1.02,0.38 1.66,0.38 0.2,0 0.38,0 0.58,-0.03 0.2,-0.03 0.35,-0.03 0.47,-0.09 0.12,-0.03 0.2,-0.12 0.2,-0.23 -0.06,0.02 -0.06,-0.04 -0.09,-0.07 z m -3.9,-3.9 c 0,0.26 -0.09,0.52 -0.26,0.76 -0.17,0.23 -0.41,0.47 -0.7,0.67 -0.32,0.2 -0.67,0.35 -1.11,0.47 -0.44,0.12 -0.87,0.2 -1.37,0.2 -0.73,0 -1.37,-0.15 -1.86,-0.44 -0.49,-0.29 -0.9,-0.7 -1.22,-1.22 -0.32,-0.52 -0.52,-1.14 -0.64,-1.83 -0.12,-0.69 -0.17,-1.46 -0.17,-2.3 0,-1.78 0.35,-3.14 1.02,-4.05 0.67,-0.91 1.6,-1.37 2.77,-1.37 0.49,0 0.93,0.06 1.34,0.17 0.41,0.12 0.73,0.26 1.05,0.44 0.29,0.17 0.55,0.35 0.73,0.55 0.17,0.17 0.32,0.32 0.44,0.44 z"
   id="path12" />
		<path
   class="st3"
   d="m 126.5,87.91 c -0.23,-0.32 -0.41,-0.81 -0.49,-1.43 -0.12,-0.67 -0.15,-1.63 -0.15,-2.85 v -5.47 c 0,-0.96 -0.09,-1.8 -0.29,-2.56 -0.2,-0.73 -0.52,-1.34 -1.02,-1.86 -0.47,-0.49 -1.11,-0.87 -1.86,-1.11 -0.76,-0.23 -1.75,-0.38 -2.88,-0.38 -0.67,0 -1.37,0.06 -2.07,0.17 -0.7,0.12 -1.34,0.26 -1.92,0.47 -0.58,0.21 -1.05,0.44 -1.43,0.7 -0.35,0.26 -0.55,0.55 -0.55,0.84 0,0.2 0.06,0.49 0.2,0.9 0.14,0.41 0.32,0.76 0.55,1.11 0.7,-0.49 1.4,-0.84 2.12,-1.14 0.72,-0.3 1.63,-0.44 2.68,-0.44 1.28,0 2.15,0.23 2.59,0.73 0.44,0.49 0.67,1.19 0.67,2.12 v 0.52 c -0.2,-0.03 -0.44,-0.03 -0.7,-0.03 -0.26,0 -0.49,0 -0.7,0 -0.81,0.03 -1.72,0.12 -2.68,0.26 -0.99,0.15 -1.89,0.44 -2.77,0.87 -0.88,0.43 -1.57,0.99 -2.15,1.72 -0.58,0.73 -0.87,1.66 -0.87,2.79 v 0 c 0,0.93 0.15,1.72 0.47,2.33 0.32,0.61 0.73,1.11 1.22,1.46 0.49,0.35 1.02,0.61 1.63,0.73 0.61,0.12 1.19,0.2 1.78,0.2 1.22,0 2.21,-0.17 2.97,-0.58 0.76,-0.41 1.4,-0.84 1.92,-1.4 0.09,0.64 0.35,1.11 0.84,1.34 0.49,0.23 1.02,0.38 1.66,0.38 0.2,0 0.38,0 0.58,-0.03 0.2,-0.03 0.35,-0.03 0.47,-0.09 0.12,-0.03 0.2,-0.12 0.2,-0.23 0.04,0.05 0.01,-0.01 -0.02,-0.04 z m -3.78,-4.16 c 0,0.26 -0.12,0.52 -0.32,0.81 -0.23,0.29 -0.52,0.52 -0.9,0.76 -0.38,0.23 -0.81,0.44 -1.31,0.58 -0.49,0.15 -1.02,0.23 -1.54,0.23 -1.02,0 -1.72,-0.26 -2.1,-0.73 -0.38,-0.47 -0.55,-1.05 -0.55,-1.72 0,-0.7 0.17,-1.25 0.52,-1.66 0.35,-0.41 0.81,-0.76 1.37,-0.99 0.56,-0.23 1.19,-0.41 1.86,-0.49 0.7,-0.09 1.37,-0.12 2.04,-0.12 h 0.9 z"
   id="path13" />
	</g>
	
</g>
</svg>
