<?xml version="1.0" encoding="UTF-8" standalone="no"?>
<!-- Generator: Adobe Illustrator 22.0.1, SVG Export Plug-In . SVG Version: 6.00 Build 0)  -->

<svg
   version="1.1"
   x="0px"
   y="0px"
   viewBox="0 0 347 220"
   style="enable-background:new 0 0 347 220;"
   xml:space="preserve"
   id="svg43"
   sodipodi:docname="canadianProtectionPlan.svg"
   inkscape:version="1.3.2 (091e20e, 2023-11-25)"
   xmlns:inkscape="http://www.inkscape.org/namespaces/inkscape"
   xmlns:sodipodi="http://sodipodi.sourceforge.net/DTD/sodipodi-0.dtd"
   xmlns="http://www.w3.org/2000/svg"
   xmlns:svg="http://www.w3.org/2000/svg"><defs
   id="defs43" /><sodipodi:namedview
   id="namedview43"
   pagecolor="#ffffff"
   bordercolor="#000000"
   borderopacity="0.25"
   inkscape:showpageshadow="2"
   inkscape:pageopacity="0.0"
   inkscape:pagecheckerboard="0"
   inkscape:deskcolor="#d1d1d1"
   showgrid="false"
   inkscape:zoom="3.7"
   inkscape:cx="173.37838"
   inkscape:cy="110"
   inkscape:window-width="1920"
   inkscape:window-height="1027"
   inkscape:window-x="0"
   inkscape:window-y="25"
   inkscape:window-maximized="1"
   inkscape:current-layer="Layer_1" />
<style
   type="text/css"
   id="style1">
	.st0{fill:#F3F5F1;}
	.st1{fill:#D91D24;}
	.st2{fill:#060606;}
	.st3{fill:#050505;}
	.st4{fill:#DA2229;}
	.st5{fill:#0E0E0E;}
	.st6{fill:#0A0A0A;}
	.st7{fill:#DA2026;}
	.st8{fill:#090909;}
	.st9{fill:#DB272E;}
	.st10{fill:#DA242B;}
</style>
<g
   id="Layer_1">
	
	<g
   id="g43"
   style="display:inline">
		<path
   class="st1"
   d="m 100.2,124.1 c -0.2,-2.8 -0.3,-5.3 -0.4,-7.9 0,-0.4 0,-0.9 -0.1,-1.3 -0.4,-2.9 0.3,-5.2 2.8,-6.9 2.3,-1.7 4,-4 5.4,-6.5 0.2,-0.4 0.4,-1.1 1,-1 0.5,0.1 0.5,0.8 0.7,1.3 0.4,1.8 0.3,3.6 0.3,5.5 0.2,6.8 0.4,13.6 0.5,20.4 0,1.3 0.3,2.4 1.2,3.3 0.5,0.5 0.9,1 1.5,1.8 0.5,-7.5 0.9,-14.7 1.4,-22 0.1,0 0.3,0 0.4,0 0.1,1.7 0.2,3.5 0.3,5.2 0.2,5.7 0.4,11.4 0.6,17.2 0,1 0.3,1.8 1.1,2.4 0.6,0.5 1.2,1.1 1.9,1.7 0.5,-10.8 0.5,-21.4 1.6,-32 0.7,2.2 0.7,4.4 0.9,6.7 0.6,8.3 1.1,16.6 1.6,24.9 0.1,1.3 0.2,2.6 0.3,3.9 0.1,1.4 1.2,2.1 2.3,3.3 0.5,-10 0.6,-19.7 1.5,-29.4 0.6,0.2 0.5,0.6 0.5,1 0.6,5.7 0.8,11.5 1.1,17.3 0.2,5.1 0.4,10.3 0.7,15.4 0.1,1.5 1.5,2.1 2.4,3.2 0.4,-14.3 0.8,-28.6 1.2,-42.9 0.1,0 0.2,0 0.3,0 0.1,1.5 0.3,3 0.4,4.6 1,11.9 1.9,23.9 2.9,35.8 0.4,5.3 1.3,10.5 2.6,15.7 0.6,2.4 0.4,2.6 -1.7,3.8 -1.6,0.9 -2.8,2.1 -4.2,3.3 -0.5,0.5 -1.1,1 -1.7,1.5 -0.4,-0.7 -0.4,-1.5 -0.5,-2.1 -0.3,-2.1 -0.6,-4.2 -0.9,-6.3 -0.7,-5.1 -2.6,-9.7 -6.6,-13.3 -3.4,-3 -7.1,-5.7 -11.6,-6.9 -2.5,-0.7 -5.1,-0.4 -7.6,-0.3 -2.2,0.1 -4.4,0.2 -6.6,0 -1.6,-0.1 -1.9,-0.7 -1,-2 1.3,-1.9 2.3,-3.8 2.2,-6.2 -0.1,-2 -0.7,-3.5 -2.3,-4.7 -2.6,-1.8 -5.6,-3.1 -8.4,-4.5 -10.5,-5.4 -20.1,-12 -28.6,-20.2 -1.5,-1.5 -3,-3 -4.1,-4.8 -0.4,-0.6 -0.8,-1.2 -0.4,-1.9 0.4,-0.7 1.2,-0.7 1.9,-0.6 1.3,0.1 2.6,0.3 3.9,0.2 3.3,-0.2 4.8,-2.1 4.2,-5.3 -0.7,-3.6 -2.3,-6.8 -4.1,-9.9 -2.3,-4 -4.7,-8 -7.1,-11.9 -0.4,-0.7 -0.8,-1.4 -1.1,-2.1 -0.2,-0.4 -0.7,-1 -0.3,-1.4 0.5,-0.5 1,0 1.5,0.2 1,0.5 2.1,1 3.1,1.5 4.1,2.2 8.1,4.5 12.4,6.1 1.7,0.7 3.5,1.3 5.4,1.4 3.2,0.2 4.8,-1.4 4.9,-4.6 0,-2.5 -0.7,-4.9 -1.4,-7.3 -0.2,-0.9 -0.5,-1.8 -0.6,-2.7 -0.1,-0.3 -0.2,-0.6 0.2,-0.8 0.3,-0.1 0.5,0.1 0.7,0.3 0.6,0.7 1.2,1.3 1.7,2 3,3.9 5.9,7.8 9.4,11.2 2.8,2.7 5.9,5 9.5,6.6 3.9,1.7 6.6,1.4 7.4,-3.8 0.7,-4.3 0.9,-8.6 1.2,-12.9 0.2,-2.8 0.2,-5.7 0.7,-8.5 0.1,-0.4 0,-1 0.5,-1 0.5,-0.1 0.7,0.4 0.9,0.8 0.8,1.3 1.5,2.6 2.3,3.8 2.5,3.7 5.1,3.5 7.1,-0.4 1.6,-3.2 2.7,-6.6 4,-9.9 2.6,-6.6 5.7,-12.8 10.4,-18.1 1.3,-1.4 2.6,-2.8 4.1,-3.9 0.5,-0.4 0.9,-0.9 1.6,-0.9 0.3,0.3 0.1,0.6 0,0.8 -3.4,10.8 -4.7,21.9 -5.1,33.1 -0.3,6.7 -0.4,13.3 -0.7,20 0,1 -0.2,2 -0.2,3 0,1.1 -0.5,1.3 -1.5,1.1 -2.1,-0.4 -4.2,-0.6 -6.3,-0.6 -5.6,-0.1 -10.7,1.7 -15.6,4.4 -1.7,0.9 -2.5,2.6 -3.1,4.3 -1.3,3.5 -2.6,7 -4.7,10.1 -2.2,3.3 -5.3,4.9 -9.3,4.5 -1.9,-0.2 -2.9,-1.4 -3.6,-3 -0.4,-0.9 -0.6,-1.7 -0.9,-2.6 -0.2,-0.7 -0.7,-0.8 -1.3,-0.6 -0.6,0.2 -0.6,0.5 -0.5,1.1 0.4,1.8 1.1,3.6 2.2,5.1 2.1,3 3.2,6.3 3.2,10 0,0.4 0,0.8 0.1,1.1 0.2,0.6 0.7,1.1 1.3,1.1 0.6,0.1 0.5,-0.7 0.6,-1.1 0.3,-1.1 0.5,-2.2 0.7,-3.4 0.1,-0.4 0.3,-0.8 0.8,-0.8 0.5,0 0.6,0.4 0.7,0.8 0.3,1.4 0.7,2.9 0.9,4.3 0.3,1.4 1.5,2.2 3,3.1 z M 129.9,76 c 0,-1.7 -0.7,-3.8 -1.6,-5.1 -1.5,-1.9 -3.6,-2 -5.1,-0.1 -2.2,2.7 -2.2,7.9 0,10.6 1.5,1.9 3.7,1.9 5.2,0 1.1,-1.5 1.4,-3.4 1.5,-5.4 z m -12.1,3.7 c 0,-1.6 -0.3,-3.1 -1.4,-4.4 -1.2,-1.4 -2.6,-1.3 -3.8,0 -1.8,2.1 -1.8,6.4 0,8.5 1.2,1.4 2.7,1.4 3.9,0 1,-1.1 1.3,-2.5 1.3,-4.1 z m -20.6,22.6 c 0,-1.4 -0.4,-2.7 -1.1,-3.4 -0.9,-0.9 -1.9,-0.9 -2.8,0 -1.6,1.6 -1.6,5.2 0,6.8 0.9,1 1.9,1 2.8,-0.1 0.8,-1 1.1,-2.1 1.1,-3.3 z"
   id="path1" />
		<path
   class="st2"
   d="m 156.2,87.7 c 2,0.1 4.2,-0.2 6.4,0.4 3.6,1 5.3,3.8 4.2,7.2 -0.9,2.8 -3.3,3.6 -5.9,4 -1,0.2 -2.1,0.1 -3.2,0.1 -0.6,0 -0.9,0 -0.9,0.8 0.1,1.5 0,3.1 0,4.6 0,1.2 0.5,1.9 1.8,2 0.4,0 1.1,-0.2 1.1,0.7 -0.1,1 -0.8,0.5 -1.2,0.5 -2.3,0.1 -4.6,0 -6.9,0 -0.3,0 -0.8,0.3 -0.9,-0.4 -0.1,-0.6 0.2,-0.7 0.7,-0.8 1.5,-0.1 1.9,-1 1.9,-2.3 0,-4.5 0,-8.9 0,-13.4 0,-1.7 -0.2,-2 -1.9,-2.3 -0.4,-0.1 -0.7,-0.1 -0.7,-0.6 0,-0.6 0.4,-0.6 0.8,-0.6 1.6,0.1 3,0.1 4.7,0.1 z m 0.8,5.7 c 0,0.5 0,1.1 0,1.6 0,2.8 0,2.8 2.8,2.4 2.2,-0.3 3.4,-1.6 3.5,-3.8 0.1,-2.1 -1,-3.6 -3.2,-4.1 -0.7,-0.1 -1.3,-0.2 -2,-0.2 -0.9,-0.1 -1.2,0.2 -1.2,1.1 0.2,1 0.1,2 0.1,3 z"
   id="path2" />
		<path
   class="st3"
   d="m 156.5,120.9 c 1.8,0.1 3.9,-0.2 5.9,0.3 3.7,0.9 5.6,3.8 4.5,7.3 -0.8,2.6 -3,3.4 -5.3,3.9 -1.3,0.3 -2.5,0.3 -3.8,0.2 -0.6,0 -0.8,0.2 -0.8,0.8 0,1.5 0,3 0,4.5 0,1.7 0.3,1.9 2,2.2 0.5,0.1 0.9,0 0.9,0.7 -0.1,0.7 -0.5,0.5 -0.9,0.5 -2.4,0 -4.8,0 -7.3,0 -0.4,0 -0.8,0.1 -0.8,-0.6 0,-0.6 0.3,-0.7 0.8,-0.7 1.3,-0.1 1.8,-0.8 1.8,-2.1 0,-4.6 0,-9.2 0,-13.8 0,-1.2 -0.4,-2 -1.7,-2.1 -0.4,0 -1,0 -0.9,-0.7 0.1,-0.7 0.6,-0.4 1,-0.4 1.4,0 2.8,0 4.6,0 z m 0.5,5.8 c 0,1.1 0,2.2 0,3.3 0,0.6 0.2,0.8 0.8,0.8 0.5,0 1,0 1.5,0 2.1,-0.2 3.4,-1.1 3.8,-2.8 1,-4.3 -2.2,-5.7 -5.6,-5.4 -0.5,0 -0.6,0.4 -0.6,0.8 0.1,1.1 0.1,2.2 0.1,3.3 z"
   id="path3" />
		<path
   class="st2"
   d="m 169.5,57.9 c 0,0.8 0,1.7 0,2.5 0,0.3 0.4,0.9 -0.4,1 -0.6,0.1 -0.9,-0.2 -1.1,-0.8 -0.3,-0.9 -0.7,-1.8 -1.3,-2.6 -2.2,-2.7 -6.4,-2.9 -8.9,-0.5 -3.2,3.1 -3.4,10.2 -0.5,13.5 2.5,2.8 6.8,3 10.1,0.5 0.4,-0.3 0.8,-0.6 1.2,-1 0.4,-0.4 0.7,-0.3 1,0.1 0.4,0.4 0.3,0.6 0,1 -2.7,3.2 -7.6,4.5 -11.9,3 -3.8,-1.3 -6.4,-4.9 -6.6,-9.1 -0.3,-8 6.1,-13.1 13.8,-11.1 0.4,0.1 0.9,0.3 1.3,0.4 0.6,0.1 1.3,0.3 1.6,-0.5 0.2,-0.5 0.7,-0.3 1,-0.3 0.4,0.1 0.3,0.5 0.3,0.7 0,1 0,2 0,3 0.3,0.2 0.3,0.2 0.4,0.2 z"
   id="path4" />
		<path
   class="st1"
   d="m 80.7,160.3 c 2.7,-2 4,-2 5.8,-0.1 0.9,-0.7 1.7,-1.4 2.9,-1.4 1.8,0 3,0.9 3,2.7 0.1,2.3 0,4.7 0,7 0,0.5 -0.1,0.6 -0.6,0.7 -2.5,0.3 -2.6,0.2 -2.6,-2.2 0,-1.1 0,-2.3 0,-3.4 0,-0.7 0.3,-1.7 -1,-1.9 -0.9,-0.1 -1.7,0.8 -1.7,1.9 0,1.5 -0.1,3.1 0,4.6 0,0.9 -0.3,1.1 -1.1,1 -2.1,0 -2.1,0 -2.1,-2.1 0,-1.4 0,-2.7 0,-4.1 0,-0.7 -0.1,-1.5 -1.1,-1.4 -0.8,0.1 -1.5,0.4 -1.5,1.4 0,1.7 0,3.3 0,5 0,0.9 -0.2,1.2 -1.1,1.2 -2.2,0 -2.2,0 -2.2,-2.1 0,-2.2 0.1,-4.5 0,-6.7 -0.1,-1.2 0.4,-1.5 1.5,-1.4 1.1,0.1 2,-0.2 1.8,1.3 z"
   id="path5" />
		<path
   class="st4"
   d="m 140.6,181.4 c -0.2,3.2 -0.5,6.3 -0.7,9.5 0,0.7 -0.1,1.1 -1,1.1 -0.8,0 -1.1,-0.2 -1,-1.1 0.4,-4 0.6,-8 1,-12 0,-0.5 -0.3,-1.3 0.6,-1.2 0.8,0 1.8,-0.5 2.3,0.9 1.2,3.5 2.6,7 4,10.7 0.5,-1.3 0.9,-2.3 1.4,-3.4 0.9,-2.4 1.9,-4.8 2.7,-7.3 0.5,-1.4 1.5,-0.9 2.3,-0.9 0.9,0 0.6,0.8 0.6,1.2 0.3,3.9 0.6,7.9 0.9,11.8 0,0.5 0.5,1.3 -0.7,1.3 -0.9,0 -1.2,-0.2 -1.3,-1.2 -0.2,-3.2 -0.5,-6.3 -0.7,-9.6 -0.5,0.4 -0.6,0.9 -0.7,1.3 -1.1,2.9 -2.3,5.7 -3.4,8.6 -0.2,0.6 -0.4,0.9 -1.2,0.9 -0.7,0 -0.9,-0.4 -1.1,-1 -1.1,-2.8 -2.2,-5.6 -3.3,-8.4 -0.2,-0.5 -0.4,-0.9 -0.6,-1.4 0.1,0.1 0,0.1 -0.1,0.2 z"
   id="path6" />
		<path
   class="st2"
   d="m 176.9,101.4 c 1.4,1.7 2.7,3.3 3.9,4.8 0.4,0.4 0.8,0.7 1.4,0.8 0.4,0 0.5,0.3 0.4,0.7 0,0.4 -0.3,0.3 -0.6,0.3 -0.9,0 -1.9,0 -2.8,0 -0.6,0 -0.8,-0.4 -1.1,-0.7 -1.3,-1.5 -2.5,-3.1 -3.8,-4.6 -0.3,-0.3 -0.6,-0.7 -1.1,-0.9 0,1.5 0,3 0,4.5 0,0.7 0.6,0.7 1.1,0.7 0.4,0 0.6,0.1 0.6,0.6 0,0.6 -0.4,0.4 -0.7,0.4 -1.7,0 -3.3,0 -5,0 -0.3,0 -0.7,0.1 -0.7,-0.4 0,-0.5 0.3,-0.6 0.6,-0.6 1,0 1.2,-0.6 1.2,-1.5 0,-3.1 0,-6.2 0,-9.3 0,-0.9 -0.3,-1.5 -1.3,-1.5 -0.5,0 -0.5,-0.2 -0.5,-0.6 0,-0.3 0.2,-0.4 0.5,-0.4 2.7,0.1 5.4,-0.3 8.1,0.3 2.4,0.6 3.5,2.4 2.9,4.7 -0.2,1.6 -1.5,2.1 -3.1,2.7 z m -2.4,-6.3 c -0.9,-0.2 -1.3,0.2 -1.2,1.2 0.1,1.1 0,2.1 0,3.2 0,0.3 -0.2,0.6 0.2,0.8 1.4,0.6 3.8,-0.9 3.9,-2.3 0.2,-1.9 -0.7,-2.8 -2.9,-2.9 z"
   id="path7" />
		<path
   class="st5"
   d="m 209.6,135.8 c 0,-2.3 0.1,-4.5 -0.1,-6.8 -0.1,-0.7 -0.6,-1 -1.2,-1 -0.5,-0.1 -0.7,-0.2 -0.6,-0.7 0.1,-0.5 0.5,-0.4 0.8,-0.4 1.3,0 2.5,0 3.8,0 0.3,0 0.8,-0.2 0.9,0.4 0.1,0.5 -0.3,0.6 -0.7,0.7 -1.3,0.2 -1.3,1.1 -1.3,2.1 0,3.4 0,6.9 0,10.3 0,0.4 0.3,0.9 -0.3,1.1 -0.5,0.2 -0.8,-0.3 -1,-0.6 -2.7,-3.3 -5.3,-6.6 -8,-9.9 -0.4,0.2 -0.2,0.6 -0.2,0.9 0,2.1 0,4.2 0,6.4 0,1 0.2,1.9 1.4,2 0.3,0 0.6,0.1 0.5,0.5 0,0.4 -0.3,0.5 -0.6,0.5 -1.4,0 -2.9,0 -4.3,0 -0.3,0 -0.6,0 -0.6,-0.4 0,-0.4 0.2,-0.5 0.5,-0.6 1.4,-0.1 1.5,-1.1 1.5,-2.2 0,-2.7 -0.1,-5.4 0,-8.1 0,-1.1 -0.3,-1.8 -1.4,-2 -0.4,-0.1 -0.6,-0.2 -0.6,-0.6 0,-0.5 0.4,-0.4 0.7,-0.4 0.9,0 1.8,0 2.7,0 0.6,0 0.9,0.4 1.2,0.8 2.1,2.6 4.2,5.1 6.2,7.7 0.1,0 0.2,0.2 0.7,0.3 z"
   id="path8" />
		<path
   class="st2"
   d="m 222.9,74.8 c -1.2,0 -2.4,0 -3.6,0 -0.3,0 -0.6,0.1 -0.6,-0.4 0,-0.3 0.1,-0.6 0.5,-0.6 1.3,0 1.3,-0.8 1.3,-1.8 0,-2.9 0,-5.9 0,-8.8 0,-1 -0.1,-1.7 -1.3,-1.7 -0.4,0 -0.5,-0.2 -0.5,-0.6 0,-0.4 0.3,-0.5 0.6,-0.5 2.6,0.1 5.2,-0.3 7.7,0.2 4.5,0.8 6.5,3.5 6.2,7.8 -0.3,3.6 -3.3,6.2 -7.4,6.3 -1,0.1 -1.9,0.1 -2.9,0.1 z m 0.4,-7.1 c 0,1.6 0,3.2 0,4.8 0,0.5 0.1,0.9 0.7,1 1.9,0.3 4.7,-0.8 5.6,-2.4 1.2,-2.1 1.2,-4.4 0.1,-6.6 -1.1,-2.1 -3.1,-2.6 -5.3,-2.7 -0.7,0 -1.1,0.2 -1,1 -0.1,1.6 -0.1,3.3 -0.1,4.9 z"
   id="path9" />
		<path
   class="st6"
   d="m 290.9,102.6 c 0.2,-2.3 0.4,-4.5 0.2,-6.7 -0.1,-0.8 -0.5,-1.1 -1.2,-1.2 -0.4,0 -0.7,-0.1 -0.7,-0.6 0,-0.6 0.4,-0.4 0.7,-0.4 1.4,0 2.8,0 4.2,0 0.3,0 0.6,-0.1 0.6,0.4 0,0.4 0,0.6 -0.5,0.7 -1.2,0.1 -1.5,0.9 -1.4,2 0,3.5 0,7 0,10.6 0,0.3 0.2,0.8 -0.3,1 -0.5,0.1 -0.8,-0.2 -1,-0.5 -2.7,-3.3 -5.3,-6.6 -8.2,-10.2 0,1.6 0,3 0,4.4 0,0.9 0,1.8 0,2.7 0,1.2 -0.1,2.4 1.6,2.5 0.3,0 0.4,0.2 0.4,0.5 0,0.5 -0.3,0.4 -0.6,0.4 -1.5,0 -3,0 -4.5,0 -0.3,0 -0.5,0 -0.5,-0.4 0,-0.3 0.1,-0.6 0.4,-0.6 1.6,0 1.6,-1.2 1.6,-2.3 0,-2.7 0,-5.3 0,-8 0,-1.1 -0.4,-1.8 -1.5,-1.9 -0.4,0 -0.6,-0.2 -0.6,-0.6 0,-0.6 0.4,-0.4 0.7,-0.5 0,0 0.1,0 0.1,0 2.3,-0.4 3.9,0.4 5.2,2.3 1.5,2.1 3.5,4.2 5.3,6.4 z"
   id="path10" />
		<path
   class="st2"
   d="m 219.2,108 c -1.7,0 -3.4,0 -5.1,0 -0.3,0 -0.7,0.2 -0.8,-0.3 -0.1,-0.5 0.3,-0.7 0.7,-0.7 1,0 1.2,-0.6 1.2,-1.4 0,-3.1 0,-6.2 0,-9.3 0,-0.9 -0.3,-1.5 -1.3,-1.5 -0.4,0 -0.6,-0.1 -0.6,-0.6 0,-0.6 0.4,-0.5 0.7,-0.5 3.4,0 6.9,0 10.3,0 0.6,0 0.7,0.2 0.7,0.7 0,0.8 0,1.5 0,2.3 0,0.3 0.1,0.6 -0.4,0.6 -0.3,0 -0.7,0 -0.8,-0.4 -0.2,-1.8 -1.6,-1.7 -2.8,-1.8 -3.1,-0.2 -3.1,-0.1 -3.1,2.9 0,1.8 0,1.8 1.8,1.8 0.4,0 0.8,0 1.1,0 1,0.1 1.6,-0.3 1.8,-1.3 0.1,-0.4 0.1,-0.7 0.7,-0.7 0.6,0 0.5,0.5 0.5,0.8 0,1.3 0,2.5 0,3.8 0,0.3 0.2,0.7 -0.4,0.8 -0.5,0.1 -0.7,-0.1 -0.8,-0.6 -0.2,-1.3 -1.1,-1.4 -2.1,-1.4 -2.6,0 -2.6,0 -2.6,2.6 0,2.8 0,2.8 2.8,2.7 1.8,0 3.4,-0.3 4.1,-2.3 0.2,-0.5 0.7,-0.5 1.1,-0.4 0.5,0.1 0.2,0.6 0.1,0.8 -0.7,3.2 -0.7,3.2 -4,3.2 -0.9,0.2 -1.9,0.2 -2.8,0.2 z"
   id="path11" />
		<path
   class="st7"
   d="m 69.5,158.7 c -1.2,-0.5 -2.2,-1 -3.4,-1.1 -0.8,0 -1.6,-0.1 -1.9,0.9 -0.2,0.9 0.6,1.2 1.2,1.5 0.9,0.4 1.9,0.7 2.8,1.2 2.1,1.1 2.8,2.5 2.3,4.8 -0.3,1.8 -1.8,3.1 -3.9,3.3 -1.7,0.2 -3.5,0 -5.1,-0.5 -0.9,-0.3 -1.1,-0.7 -0.9,-1.6 0.4,-1.8 0.3,-1.8 2.1,-1.2 0.9,0.3 1.8,0.6 2.7,0.6 0.8,0 1.5,-0.1 1.7,-1 0.3,-0.9 -0.4,-1.3 -1.1,-1.6 -1,-0.5 -2,-0.8 -3,-1.3 -1.9,-1 -2.6,-2.3 -2.3,-4.4 0.3,-1.9 1.5,-3.1 3.6,-3.4 1.6,-0.2 3.1,-0.1 4.6,0.4 0.8,0.3 1.1,0.6 0.8,1.5 0,0.5 0,1.2 -0.2,1.9 z"
   id="path12" />
		<path
   class="st2"
   d="m 190.1,64.3 c 0,2.9 0,5.4 0,7.9 0,0.8 0.3,1.5 1.3,1.6 0.4,0 0.6,0.2 0.6,0.6 0,0.6 -0.4,0.4 -0.7,0.4 -1.4,0 -2.7,0 -4.1,0 -0.3,0 -0.7,0.1 -0.7,-0.4 0,-0.5 0.2,-0.6 0.6,-0.6 1.1,-0.1 1.4,-0.8 1.4,-1.7 0,-3 0,-6 0,-9 0,-0.9 -0.6,-1.4 -1.4,-1.5 -0.4,0 -0.6,-0.1 -0.6,-0.6 0,-0.5 0.3,-0.5 0.7,-0.5 0.9,0 1.9,0 2.8,0 0.6,0 0.9,0.4 1.2,0.8 2.2,2.7 4.4,5.5 6.8,8.4 0,-2.5 0,-4.8 0,-7.1 0,-0.7 -0.6,-1 -1.3,-1 -0.4,0 -0.6,-0.2 -0.6,-0.6 0,-0.6 0.4,-0.4 0.7,-0.4 1.4,0 2.7,0 4.1,0 0.3,0 0.7,-0.1 0.7,0.5 0,0.5 -0.2,0.6 -0.6,0.6 -0.9,0.1 -1.3,0.7 -1.3,1.5 0,3.6 0,7.1 -0.1,10.7 0,0.4 0.3,1 -0.2,1.2 -0.6,0.3 -0.9,-0.4 -1.2,-0.8 -2.6,-3.3 -5.2,-6.5 -8.1,-10 z"
   id="path13" />
		<path
   class="st8"
   d="m 271.1,93.4 c 4.2,0 7.1,3 7.1,7.4 0,4.4 -2.9,7.5 -7.1,7.5 -4.2,0 -7.1,-3 -7.1,-7.4 0,-4.5 2.8,-7.5 7.1,-7.5 z m -4.2,7.5 c 0.1,1.1 0.1,2.4 0.7,3.6 0.7,1.4 1.8,2.4 3.5,2.4 1.7,0 2.9,-0.9 3.5,-2.3 1,-2.4 1,-5 0,-7.4 -0.6,-1.5 -1.8,-2.4 -3.4,-2.4 -1.7,0 -2.8,1 -3.5,2.5 -0.6,1 -0.7,2.2 -0.8,3.6 z"
   id="path14" />
		<path
   class="st8"
   d="m 191.1,93.4 c 4.2,0 7.1,3.1 7.1,7.5 0,4.3 -3,7.5 -7.2,7.5 -4.2,0 -7.1,-3.1 -7.1,-7.5 0.1,-4.5 3,-7.5 7.2,-7.5 z m -4.2,7.5 c 0.1,1.3 0.1,2.7 0.8,3.9 0.7,1.3 1.8,2.1 3.4,2.1 1.6,0 2.7,-0.8 3.3,-2.1 1.2,-2.6 1.2,-5.3 0,-7.9 -0.6,-1.4 -1.8,-2.1 -3.3,-2.2 -1.5,0 -2.6,0.8 -3.4,2.2 -0.6,1.2 -0.7,2.6 -0.8,4 z"
   id="path15" />
		<path
   class="st1"
   d="m 97.7,160.1 c 1.2,-1.2 2.6,-1.7 4.1,-1 1.6,0.6 2,2 2.2,3.6 0.1,0.9 0.1,1.8 0,2.7 -0.4,2.9 -2.4,4.4 -5.3,3.9 -0.9,-0.2 -1.1,0 -1,0.8 0,0.1 0,0.2 0,0.3 0,2.5 -0.1,2.6 -2.6,2.7 -0.5,0 -0.6,-0.1 -0.6,-0.5 0,-4.3 0,-8.6 0,-12.8 0,-0.2 0,-0.4 0.2,-0.6 0.8,-0.6 2.6,0 3,0.9 z m 0,4.4 c 0,0.2 0,0.4 0,0.6 0.1,0.6 -0.3,1.4 0.7,1.6 1,0.1 1.8,0 2.2,-1.1 0.4,-1 0.4,-2.1 0,-3.1 -0.4,-0.9 -1.2,-1.1 -2.1,-0.6 -1.1,0.7 -0.7,1.7 -0.8,2.6 z"
   id="path16" />
		<path
   class="st5"
   d="m 194.1,141.2 c -0.8,0 -1.5,0 -2.3,0 -0.3,0 -0.6,0 -0.6,-0.4 0,-0.4 0.2,-0.6 0.5,-0.6 1.1,0 0.9,-0.7 0.7,-1.4 -0.7,-2.1 -0.7,-2.1 -3,-2.1 -0.3,0 -0.6,0 -0.9,0 -2.1,0 -2.1,0 -2.8,2 -0.3,0.8 -0.4,1.4 0.7,1.5 0.4,0 0.4,0.3 0.4,0.6 0,0.4 -0.3,0.4 -0.5,0.4 -1.2,0 -2.4,0 -3.6,0 -0.3,0 -0.6,0 -0.6,-0.4 0,-0.3 0.1,-0.5 0.4,-0.5 0.9,-0.2 1.2,-1 1.5,-1.7 1.5,-3.6 3.1,-7.1 4.6,-10.7 0.2,-0.5 0.2,-1.2 1,-1.1 0.7,0 0.7,0.7 0.9,1.1 1.6,3.5 3.1,7 4.7,10.5 0.4,0.8 0.6,1.7 1.7,1.9 0.3,0.1 0.3,0.4 0.3,0.6 0,0.3 -0.3,0.4 -0.5,0.4 -1,-0.1 -1.8,-0.1 -2.6,-0.1 z m -7,-6 c 1.2,0 2.1,0 3.1,0 0.5,0 0.6,-0.2 0.4,-0.6 -0.5,-1.2 -1.1,-2.5 -1.7,-3.9 -0.6,1.6 -1.2,3 -1.8,4.5 z"
   id="path17" />
		<path
   class="st6"
   d="m 240.3,96.8 c 0,0.4 0,0.8 0,1.3 0,0.2 0.2,0.6 -0.3,0.7 -0.4,0 -0.7,0 -0.8,-0.4 -0.1,-0.3 -0.2,-0.6 -0.4,-0.9 -0.7,-1.4 -1.8,-2.3 -3.4,-2.5 -1.7,-0.1 -3.1,0.6 -4,2 -1.4,2.4 -1.5,5 -0.2,7.5 1.1,2.2 3.7,2.9 6.1,1.9 0.5,-0.2 1,-0.6 1.5,-0.9 0.5,-0.2 0.8,-1.5 1.6,-0.4 0.6,0.8 -0.4,1.1 -0.8,1.4 -2.6,2.3 -6.6,2.5 -9.4,0.5 -2.7,-1.9 -3.7,-5.9 -2.3,-9.2 1.3,-3.1 4.6,-4.9 8.1,-4.3 0.7,0.1 1.3,0.3 2,0.5 0.4,0.1 0.7,0.2 0.9,-0.1 0.3,-0.4 0.6,-0.5 1,-0.4 0.4,0.2 0.2,0.7 0.3,1 0,0.8 0,1.5 0.1,2.3 z"
   id="path18" />
		<path
   class="st7"
   d="m 115.7,165 c 0.5,-1.7 1.1,-3.2 1.4,-4.6 0.2,-1.2 0.8,-1.5 1.9,-1.4 1.6,0.1 1.6,0 1.1,1.6 -1.1,3.1 -2.1,6.3 -3.3,9.3 -0.9,2.3 -2.3,3.3 -4.5,3.1 -1.5,-0.1 -1,-1.3 -1.1,-2.1 -0.2,-1.1 0.7,-0.4 1,-0.4 1.4,-0.1 2,-0.8 1.5,-2.1 -1,-2.7 -2,-5.4 -3,-8.1 -0.3,-0.9 -0.1,-1.1 0.7,-1.1 2.4,-0.2 2.4,-0.2 3.1,2.1 0.3,1.1 0.7,2.2 1,3.3 0,0 0.1,0 0.2,0.4 z"
   id="path19" />
		<path
   class="st8"
   d="m 214.6,74.8 c -0.7,0 -1.4,0 -2.2,0 -0.3,0 -0.7,0.2 -0.7,-0.4 0,-0.4 0.1,-0.6 0.6,-0.6 1,0 0.8,-0.6 0.6,-1.2 -0.2,-0.6 -0.5,-1.1 -0.7,-1.6 -0.2,-0.5 -0.5,-0.6 -1,-0.6 -0.8,0 -1.6,0 -2.4,0 -1.9,0 -2.6,0.7 -2.9,2.6 -0.1,0.6 0.2,0.8 0.7,0.8 0.4,0 0.8,0.1 0.7,0.6 -0.1,0.6 -0.6,0.4 -0.9,0.4 -1.1,0 -2.1,0 -3.2,0 -0.3,0 -0.6,0.2 -0.7,-0.3 0,-0.3 0,-0.6 0.4,-0.7 1,-0.2 1.2,-1 1.5,-1.7 1.5,-3.6 3.1,-7.2 4.6,-10.7 0.2,-0.4 0.1,-1.1 0.9,-1.1 0.7,0 0.7,0.6 0.9,1 1.6,3.7 3.3,7.3 4.9,11 0.3,0.7 0.5,1.4 1.4,1.5 0.4,0 0.4,0.4 0.4,0.7 0,0.4 -0.3,0.3 -0.5,0.3 -0.7,0 -1.5,0 -2.4,0 z m -7,-5.9 c 1.1,0 2.1,0 3,0 0.5,0 0.8,0 0.6,-0.7 -0.5,-1.2 -1,-2.4 -1.6,-3.9 -0.8,1.6 -1.3,3 -2,4.6 z"
   id="path20" />
		<path
   class="st8"
   d="m 182.6,74.8 c -0.8,0 -1.5,0 -2.3,0 -0.3,0 -0.7,0.1 -0.7,-0.5 0,-0.4 0.1,-0.6 0.5,-0.5 1.2,0 0.9,-0.7 0.7,-1.3 -0.7,-2.1 -0.7,-2.1 -3,-2.1 -0.3,0 -0.6,0 -0.9,0 -2.2,0 -2.2,0 -2.8,2.1 -0.2,0.7 -0.4,1.3 0.7,1.3 0.5,0 0.6,0.3 0.5,0.7 0,0.5 -0.4,0.4 -0.6,0.4 -1.1,0 -2.3,0 -3.4,0 -0.3,0 -0.6,0.1 -0.7,-0.4 0,-0.3 0,-0.6 0.4,-0.7 0.9,-0.2 1.2,-1 1.5,-1.7 1.6,-3.6 3.1,-7.2 4.6,-10.8 0.2,-0.4 0.2,-1 0.8,-0.9 0.7,0 0.7,0.6 0.8,1 1.6,3.7 3.2,7.3 4.9,11 0.3,0.7 0.5,1.5 1.5,1.6 0.4,0 0.4,0.4 0.4,0.7 0,0.4 -0.3,0.3 -0.5,0.3 -0.7,-0.2 -1.6,-0.2 -2.4,-0.2 z m -7,-5.9 c 1.1,0 2.1,0 3,0 0.7,0 0.8,-0.2 0.5,-0.8 -0.5,-1.2 -1,-2.4 -1.6,-3.8 -0.7,1.6 -1.3,3 -1.9,4.6 z"
   id="path21" />
		<path
   class="st8"
   d="m 246.6,74.8 c -0.7,0 -1.4,0 -2.2,0 -0.3,0 -0.7,0.1 -0.7,-0.5 0,-0.4 0.2,-0.6 0.5,-0.6 1,0 1,-0.5 0.7,-1.2 0,-0.1 0,-0.2 -0.1,-0.2 -0.7,-2 -0.7,-2 -2.9,-2 -0.3,0 -0.7,0 -1,0 -2.4,0.1 -1.8,-0.4 -2.7,1.9 -0.3,0.8 -0.6,1.5 0.7,1.5 0.4,0 0.4,0.3 0.4,0.7 0,0.4 -0.3,0.3 -0.6,0.3 -1.2,0 -2.5,0 -3.7,0 -0.3,0 -0.5,0 -0.5,-0.4 0,-0.2 -0.1,-0.5 0.3,-0.6 1,-0.1 1.3,-1 1.6,-1.8 1.6,-3.6 3.1,-7.3 4.7,-11 0.2,-0.4 0.2,-0.8 0.8,-0.8 0.6,0 0.6,0.5 0.8,0.8 1.6,3.7 3.2,7.4 4.9,11 0.3,0.7 0.5,1.6 1.5,1.7 0.4,0.1 0.4,0.4 0.3,0.7 0,0.4 -0.4,0.3 -0.6,0.3 -0.6,0.2 -1.4,0.2 -2.2,0.2 z m -5,-10.5 c -0.6,1.4 -1.1,2.6 -1.6,3.8 -0.1,0.3 -0.4,0.8 0.3,0.8 1,0 2,0 3.2,0 -0.7,-1.6 -1.3,-3 -1.9,-4.6 z"
   id="path22" />
		<path
   class="st8"
   d="m 248.3,93.6 c 1.8,0 3.6,0 5.3,0 0.7,0 0.9,0.2 0.9,0.9 0,0.8 0.1,1.7 0.1,2.5 0,0.3 0.1,0.7 -0.4,0.7 -0.4,0 -0.7,-0.1 -0.8,-0.6 -0.7,-1.9 -1.1,-2.1 -2.9,-2.1 -0.6,0 -0.8,0.2 -0.8,0.8 0,3.2 0,6.4 0,9.7 0,0.8 0.2,1.3 1.1,1.3 0.4,0 0.9,0 0.8,0.7 -0.1,0.6 -0.6,0.3 -0.9,0.3 -1.7,0 -3.3,0 -5,0 -0.3,0 -0.7,0.2 -0.8,-0.4 0,-0.5 0.3,-0.6 0.6,-0.6 1.2,0 1.4,-0.7 1.4,-1.7 0,-3.1 0,-6.2 0,-9.3 0,-0.7 -0.2,-0.8 -0.9,-0.8 -2,0 -2.3,0.2 -2.9,2 -0.2,0.5 -0.4,0.6 -0.8,0.6 -0.5,0 -0.4,-0.4 -0.4,-0.7 0,-0.3 0,-0.6 0.1,-0.9 0,-0.8 -0.2,-1.9 0.2,-2.3 0.6,-0.5 1.7,-0.2 2.6,-0.2 1.2,0.1 2.3,0.1 3.5,0.1 z"
   id="path23" />
		<path
   class="st8"
   d="m 205.9,93.6 c 1.8,0 3.6,0 5.3,0 0.6,0 0.9,0.1 0.9,0.8 0,0.8 0,1.7 0.1,2.5 0,0.4 0.1,0.8 -0.5,0.8 -0.5,0 -0.6,-0.2 -0.7,-0.7 -0.6,-1.8 -1.1,-2.1 -3,-2 -0.6,0 -0.7,0.2 -0.7,0.7 0,3.2 0,6.4 0,9.7 0,0.9 0.3,1.4 1.2,1.4 0.4,0 0.8,0.1 0.7,0.6 0,0.6 -0.5,0.4 -0.8,0.4 -1.7,0 -3.4,0 -5.1,0 -0.3,0 -0.7,0.2 -0.8,-0.4 -0.1,-0.6 0.3,-0.6 0.7,-0.6 1.1,0 1.3,-0.7 1.3,-1.5 0,-3.2 0,-6.4 0,-9.5 0,-0.5 -0.1,-0.7 -0.7,-0.7 -1.9,-0.1 -2.5,0.2 -3.1,2 -0.2,0.5 -0.3,0.6 -0.8,0.6 -0.5,0 -0.5,-0.4 -0.4,-0.7 0,-0.3 0.1,-0.6 0.1,-0.9 0,-0.8 -0.3,-1.9 0.2,-2.3 0.6,-0.6 1.7,-0.2 2.6,-0.2 1.2,0 2.4,0 3.5,0 z"
   id="path24" />
		<path
   class="st8"
   d="m 181.2,137.1 c -0.3,1.1 -0.7,2.3 -1,3.4 -0.1,0.7 -0.5,0.8 -1.1,0.8 -3.3,0 -6.6,0 -9.9,0 -0.3,0 -0.8,0.2 -0.9,-0.4 -0.1,-0.6 0.3,-0.7 0.8,-0.7 0.9,0 1.1,-0.6 1.1,-1.3 0,-3.2 0,-6.4 0,-9.5 0,-0.9 -0.4,-1.4 -1.3,-1.4 -0.4,0 -0.6,-0.2 -0.6,-0.6 0,-0.4 0.3,-0.4 0.6,-0.4 1.7,0 3.5,0 5.2,0 0.4,0 0.7,0 0.7,0.5 0,0.4 -0.1,0.5 -0.5,0.5 -1.4,0 -1.5,0.9 -1.5,2 0,2.9 0,5.8 0,8.7 0,1 0.3,1.4 1.3,1.3 0.8,-0.1 1.7,0 2.5,-0.1 1.4,-0.1 2.4,-0.7 3,-2 0.4,-0.9 0.8,-1.1 1.6,-0.8 z"
   id="path25" />
		<path
   class="st9"
   d="m 179.1,190.6 c -1.5,1.5 -3.1,1.9 -4.8,1.1 -1.8,-0.8 -2.2,-2.5 -2.3,-4.2 0,-1.1 0.1,-2.2 0.6,-3.2 0.9,-2 2.8,-2.8 5.2,-2.3 0.9,0.2 1.2,0 1.1,-0.9 -0.1,-1 0.1,-2 0,-2.9 -0.1,-1.1 0.7,-1.1 1.4,-1.1 1,-0.1 0.6,0.7 0.6,1.2 0,4.2 0,8.3 0,12.5 0,0.4 0.4,1.2 -0.5,1.3 -0.9,0 -1.2,-0.5 -1.3,-1.5 z m -0.1,-4.2 c 0,-0.6 0,-1.2 0,-1.8 0,-0.3 0,-0.6 -0.4,-0.8 -1.7,-1 -3.9,-0.2 -4.4,1.7 -0.3,1 -0.3,2 0,3 0.5,1.8 2.1,2.3 3.7,1.4 1.3,-0.9 1.1,-2.2 1.1,-3.5 z"
   id="path26" />
		<path
   class="st7"
   d="m 60.9,184.6 c 0,-2.1 0,-4.2 0,-6.2 0,-0.5 0,-0.9 0.7,-0.9 1.6,0.1 3.1,-0.1 4.7,0.2 2,0.4 3.2,1.7 3.3,3.5 0.1,2.4 -0.9,4 -2.9,4.6 -0.6,0.2 -1.3,0.3 -2,0.3 -1.7,0.1 -1.7,0 -1.7,1.7 0,1.1 -0.1,2.1 0,3.2 0.1,0.8 -0.3,1 -1,1 -0.7,0 -1.1,0 -1.1,-0.9 0.1,-2.2 0,-4.3 0,-6.5 z m 2.1,-2.9 c 0,2.8 0.3,3.1 2.6,2.5 1.5,-0.4 2.2,-1.4 1.9,-2.9 -0.2,-1.5 -1.6,-2.2 -3.9,-2 -1.5,0.2 -0.3,1.5 -0.7,2.1 0,0.1 0.1,0.2 0.1,0.3 z"
   id="path27" />
		<path
   class="st2"
   d="m 259.1,93.6 c 0.9,0 1.9,0 2.8,0 0.3,0 0.6,-0.1 0.6,0.4 0,0.4 0,0.6 -0.5,0.6 -1.4,-0.1 -1.6,0.8 -1.5,1.9 0,2.9 0,5.9 0,8.8 0,0.9 0.2,1.6 1.3,1.6 0.4,0 0.8,0 0.7,0.6 -0.1,0.7 -0.6,0.4 -0.9,0.4 -1.7,0 -3.4,0 -5.1,0 -0.3,0 -0.7,0.2 -0.8,-0.4 -0.1,-0.5 0.3,-0.7 0.7,-0.7 1.1,0 1.3,-0.7 1.2,-1.6 0,-3 0,-6 0,-9 0,-1 -0.3,-1.6 -1.4,-1.6 -0.4,0 -0.6,-0.1 -0.6,-0.6 0,-0.5 0.4,-0.5 0.7,-0.5 1,0.1 1.9,0.1 2.8,0.1 z"
   id="path28" />
		<path
   class="st10"
   d="m 87.2,190.7 c -1,0.9 -2,1.3 -3.1,1.4 -1.5,0.1 -2.6,-0.5 -3,-1.8 -0.5,-1.4 0,-2.9 1.3,-3.7 1.1,-0.7 2.4,-0.9 3.6,-1.1 0.4,-0.1 1.1,0.2 1.1,-0.7 0,-0.7 -0.4,-1.2 -1.1,-1.4 -1.2,-0.3 -2.3,0.1 -3.4,0.4 -0.3,0.1 -0.7,0.5 -0.9,-0.2 -0.1,-0.5 -0.4,-1.1 0.2,-1.3 1.8,-0.7 3.6,-1 5.5,-0.3 1.2,0.4 1.6,1.5 1.6,2.7 0,1.9 0,3.8 0,5.7 0,0.5 0.5,1.2 -0.5,1.4 -1,0.3 -1.2,-0.3 -1.3,-1.1 z m -0.1,-2.6 c -0.2,-0.3 0.4,-1.1 -0.4,-1.1 -1.2,0.1 -2.4,0.3 -3.3,1.1 -0.8,0.7 -0.7,1.9 0.2,2.3 1.3,0.6 3.5,-0.7 3.5,-2.3 z"
   id="path29" />
		<path
   class="st9"
   d="m 163.3,183.3 c 1.3,-1 2.5,-1.7 3.9,-1.6 1.5,0.1 2.5,0.9 2.5,2.4 0.1,2.4 0,4.8 0.1,7.1 0,0.9 -0.6,0.6 -1.1,0.6 -0.6,0.1 -0.9,-0.1 -0.8,-0.8 0,-1.8 0,-3.7 0,-5.5 0,-1.5 -0.5,-2.2 -1.5,-2.2 -1.3,0 -2.8,1.2 -2.8,2.3 0,1.7 0,3.3 0,5 0,0.7 0,1.2 -1,1.2 -0.9,0 -1,-0.4 -1,-1.1 0,-2.5 0,-5 0,-7.5 0,-0.5 -0.4,-1.2 0.6,-1.4 1,0 1.3,0.5 1.1,1.5 z"
   id="path30" />
		<path
   class="st10"
   d="m 109,189.1 c 0.4,1.9 0.3,2 -1.2,2.6 -2.4,0.9 -4.9,0.4 -6.1,-1.3 -1.4,-2 -1.2,-5.5 0.3,-7.3 1.2,-1.3 3.2,-1.7 4.9,-1 1.5,0.7 2.6,2.8 2.5,4.6 -0.1,0.6 -0.4,0.5 -0.8,0.5 -1.7,0 -3.3,0.1 -5,0 -1,-0.1 -1,0.4 -0.9,1.1 0.4,1.7 1.8,2.5 3.6,2.1 1,-0.2 1.8,-0.7 2.7,-1.3 z m -6.2,-3.4 c 1.3,0 2.6,0 3.9,0 0.6,0 0.6,-0.3 0.5,-0.7 -0.4,-1 -1,-1.7 -2.1,-1.7 -1.2,0 -1.9,0.7 -2.3,2.4 z"
   id="path31" />
		<path
   class="st10"
   d="m 75.8,187.2 c -0.7,0 -1.4,0 -2,0 -1.4,0 -1.5,0.1 -1,1.4 0.4,1.2 1.2,1.8 2.5,1.9 1,0.1 1.9,-0.3 2.8,-0.8 0.3,-0.2 0.7,-0.8 1,-0.2 0.2,0.4 0.5,1.2 -0.2,1.6 -1.8,1.1 -3.6,1.4 -5.6,0.6 -1.7,-0.7 -2.4,-2.2 -2.5,-3.9 -0.1,-1.2 -0.1,-2.5 0.5,-3.6 1,-2 3,-2.9 5.1,-2.3 1.8,0.5 3.2,2.7 3,4.7 -0.1,0.6 -0.4,0.6 -0.8,0.6 -1.1,0 -2,0 -2.8,0 z m 1.4,-1.5 c -0.2,-1.3 -0.6,-2.2 -2,-2.4 -1.1,-0.1 -2.1,0.5 -2.4,1.6 -0.1,0.4 -0.2,0.7 0.4,0.7 1.3,0.1 2.6,0.1 4,0.1 z"
   id="path32" />
		<path
   class="st4"
   d="m 109.1,161.7 c 0,2.2 0,4.4 0,6.6 0,0.7 -0.2,0.9 -0.9,0.9 -2.4,0.1 -2.4,0.1 -2.4,-2.4 0,-3.6 0,-7.3 0,-10.9 0,-1 0.3,-1.3 1.2,-1.4 2.1,-0.2 2.1,-0.3 2.1,1.9 0,1.8 0,3.6 0,5.3 z"
   id="path33" />
		<path
   class="st10"
   d="m 120.2,181.8 c 2.8,0 4.6,2.1 4.5,5.3 -0.1,3.1 -1.9,5.1 -4.7,5.1 -2.8,0 -4.6,-2.2 -4.5,-5.3 0.2,-3.2 1.9,-5.2 4.7,-5.1 z m 2.7,5.2 c 0.1,-0.6 -0.1,-1.2 -0.4,-1.9 -0.5,-1.1 -1.2,-1.7 -2.4,-1.7 -1.2,0 -1.9,0.8 -2.3,1.9 -0.4,1.3 -0.4,2.7 0.3,3.9 0.4,0.9 1.2,1.3 2.2,1.3 1,0 1.7,-0.5 2.1,-1.3 0.3,-0.7 0.5,-1.4 0.5,-2.2 z"
   id="path34" />
		<path
   class="st10"
   d="m 127.6,187.7 c 0,-1.1 0,-2.2 0,-3.3 0,-0.5 -0.1,-0.8 -0.7,-0.8 -0.6,0.1 -0.9,-0.1 -0.9,-0.8 0,-0.7 0.2,-0.9 0.9,-0.9 0.6,0.1 0.7,-0.3 0.7,-0.8 0,-0.4 0,-0.8 0,-1.3 -0.1,-2.2 1.6,-2.9 3.4,-2.8 0.8,0 0.6,0.8 0.7,1.3 0.1,0.7 -0.4,0.4 -0.8,0.4 -0.6,0 -1.2,0.1 -1.4,0.7 -0.2,0.7 -0.2,1.5 0,2.2 0.1,0.4 0.7,0.2 1,0.2 1,-0.1 1,0.6 1,1.2 0.1,0.8 -0.7,0.5 -1,0.5 -1,-0.1 -1.2,0.3 -1.2,1.2 0.1,2.1 0,4.2 0,6.2 0,0.8 -0.3,0.9 -1,0.9 -0.7,0 -1,-0.2 -0.9,-0.9 0.3,-1 0.2,-2.1 0.2,-3.2 z"
   id="path35" />
		<path
   class="st9"
   d="m 98.9,184.5 c -1,-0.6 -2,-1.1 -3.1,-1 -0.6,0 -1.1,0.1 -1.5,0.5 -1.3,1 -1.5,3.8 -0.5,5.3 0.8,1.2 2.6,1.5 4.3,0.7 0.3,-0.2 0.7,-0.8 1,-0.2 0.3,0.5 0.5,1.3 -0.4,1.7 -1.6,0.9 -4.1,0.8 -5.6,-0.2 -1.6,-1.2 -2.3,-3.7 -1.6,-6 0.8,-3.1 4.5,-4.6 7.2,-2.9 1,0.6 0,1.3 0.2,2.1 z"
   id="path36" />
		<path
   class="st10"
   d="m 72.4,164.1 c 0,-1.4 0,-2.9 0,-4.3 0,-0.6 0.2,-0.8 0.8,-0.8 2.5,-0.1 2.5,-0.2 2.5,2.3 0,2.3 0,4.7 0,7 0,0.8 -0.2,1.1 -1.1,1.1 -2.2,0 -2.2,0 -2.2,-2.2 0,-1.1 0,-2.1 0,-3.1 z"
   id="path37" />
		<path
   class="st9"
   d="m 158.8,187.1 c 0,1.3 0,2.6 0,3.9 0,0.8 -0.3,0.9 -1,0.9 -0.6,0 -1,0 -1,-0.9 0,-2.8 0,-5.5 0,-8.3 0,-0.8 0.3,-0.9 1,-0.9 0.6,0 1.1,0 1,0.9 -0.1,1.5 0,3 0,4.4 z"
   id="path38" />
		<path
   class="st5"
   d="m 215.2,132.5 c -1.5,-1.3 -1.7,-3.2 -0.5,-4.6 1.1,-1.3 3.2,-1.4 4.5,-0.4 1.4,1.2 1.5,3.1 0.1,4.7 -0.1,-0.1 -0.1,-0.2 -0.2,-0.2 0,-0.1 0,-0.1 0,-0.2 1.1,-1.4 1,-2.9 -0.2,-3.9 -1.1,-1 -2.6,-0.9 -3.6,0.1 0.7,0 1.4,-0.1 2.1,0 1,0.2 1.3,1 0.6,1.7 -0.5,0.5 -0.3,0.7 0,1 0.3,0.4 0.6,0.7 0.9,1.1 -1.4,0.4 -1.4,-1.3 -2.4,-1.7 -0.2,0.6 -0.1,1.1 0.2,1.7 -0.5,0 -0.9,0 -1.3,0 0.7,-1 0.3,-2.2 0.3,-3.3 0,-0.4 -0.4,-0.7 -0.8,-0.1 -0.7,1 -0.6,2.3 0.3,3.4 0.1,0.2 0.2,0.3 0.3,0.5 -0.2,0.1 -0.2,0.2 -0.3,0.2 z m 1.2,-3.4 c 0.1,0.3 -0.2,0.8 0.5,0.7 0.4,0 0.7,-0.3 0.7,-0.7 0,-0.5 -0.3,-0.8 -0.8,-0.8 -0.5,0 -0.3,0.5 -0.4,0.8 z"
   id="path39" />
		<path
   class="st9"
   d="m 75.9,156.1 c 0,1 -0.8,1.8 -1.8,1.8 -1,0 -1.8,-0.7 -1.9,-1.7 0,-1 0.8,-1.8 1.9,-1.8 1,-0.1 1.7,0.6 1.8,1.7 z"
   id="path40" />
		<path
   class="st9"
   d="m 157.8,177.7 c 0.8,0 1.2,0.5 1.1,1.2 0,0.7 -0.5,1.2 -1.3,1.1 -0.8,-0.1 -1.2,-0.5 -1.1,-1.2 0.1,-0.7 0.6,-1.1 1.3,-1.1 z"
   id="path41" />
		<path
   class="st5"
   d="m 219.1,132.5 c -1.3,0.9 -2.6,1 -3.8,0 0.1,-0.1 0.1,-0.1 0.2,-0.2 1.2,0.6 2.3,0.7 3.5,0 -0.1,0.1 0,0.1 0.1,0.2 z"
   id="path42" />
		<path
   class="st5"
   d="m 219.3,132.3 c -0.1,0.1 -0.2,0.1 -0.2,0.2 -0.1,-0.1 -0.1,-0.1 -0.2,-0.2 0.1,-0.1 0.2,-0.2 0.3,-0.2 0,0.1 0,0.1 0.1,0.2 z"
   id="path43" />
	</g>
</g>

</svg>
