<?xml version="1.0" encoding="UTF-8" standalone="no"?>
<!-- Generator: Adobe Illustrator 22.0.1, SVG Export Plug-In . SVG Version: 6.00 Build 0)  -->

<svg
   version="1.1"
   x="0px"
   y="0px"
   viewBox="0 0 347 220"
   style="enable-background:new 0 0 347 220;"
   xml:space="preserve"
   id="svg11"
   sodipodi:docname="desjardins.svg"
   inkscape:version="1.3.2 (091e20e, 2023-11-25)"
   xmlns:inkscape="http://www.inkscape.org/namespaces/inkscape"
   xmlns:sodipodi="http://sodipodi.sourceforge.net/DTD/sodipodi-0.dtd"
   xmlns="http://www.w3.org/2000/svg"
   xmlns:svg="http://www.w3.org/2000/svg"><defs
   id="defs11" /><sodipodi:namedview
   id="namedview11"
   pagecolor="#ffffff"
   bordercolor="#000000"
   borderopacity="0.25"
   inkscape:showpageshadow="2"
   inkscape:pageopacity="0.0"
   inkscape:pagecheckerboard="0"
   inkscape:deskcolor="#d1d1d1"
   showgrid="false"
   inkscape:zoom="3.7"
   inkscape:cx="173.37838"
   inkscape:cy="110"
   inkscape:window-width="1920"
   inkscape:window-height="1027"
   inkscape:window-x="0"
   inkscape:window-y="25"
   inkscape:window-maximized="1"
   inkscape:current-layer="svg11" />
<style
   type="text/css"
   id="style1">
	.st0{fill:#F3F5F1;}
	.st1{fill:#00874E;}
</style>
<g
   id="Layer_1"
   style="display:inline">
	
	<g
   id="g11"
   style="display:inline">
		<path
   class="st1"
   d="M 110.7,91.9 H 98.3 V 128 h 12.6 c 11.4,0 18.7,-7.1 18.7,-18.1 0,-10.7 -7.8,-18 -18.9,-18 z m -0.2,30.1 h -4.7 V 98.2 h 5.1 c 6.7,0 11.4,5.1 11.4,12 -0.1,6.9 -4.9,11.8 -11.8,11.8 z"
   id="path1" />
		<path
   class="st1"
   d="m 23,93.8 v 32.5 l 28.2,16.2 28.2,-16.2 V 93.8 L 51.2,77.5 Z m 48.7,4.4 V 122 l -20.5,11.8 -20.5,-12 V 98.2 L 51.2,86.4 Z"
   id="path2" />
		<path
   class="st1"
   d="m 273.5,95.2 c 0,2 -1.6,3.9 -3.9,3.9 -2,0 -3.9,-1.6 -3.9,-3.9 0,-2 1.6,-3.9 3.9,-3.9 2,0 3.9,1.9 3.9,3.9 z m -0.7,8.1 h -6.5 v 24.8 h 6.5 z"
   id="path3" />
		<path
   class="st1"
   d="m 171,112.8 c -2.8,-1 -3.7,-1.6 -3.7,-2.8 0,-1 0.8,-1.8 2.4,-1.8 2.4,0 4.3,1.4 5.9,2.8 l 3.7,-4.1 c -2.4,-2.6 -5.9,-4.1 -9.5,-4.1 -5.3,0 -8.9,3 -8.9,7.3 0,4.9 3.9,6.9 7.5,8.1 0.4,0.2 0.8,0.2 1.2,0.4 2,0.6 3.2,1 3.2,2.2 0,0.8 -0.4,1.8 -3,1.8 -2.4,0 -4.9,-1.2 -6.1,-3 l -3.9,4.1 c 2.6,3 5.9,4.5 9.9,4.5 5.9,0 9.5,-2.8 9.5,-7.5 0.3,-4.4 -3,-5.8 -8.2,-7.9 z"
   id="path4" />
		<path
   class="st1"
   d="m 315.7,112.8 c -2.8,-1 -3.7,-1.6 -3.7,-2.8 0,-1 0.8,-1.8 2.4,-1.8 2.4,0 4.3,1.4 5.9,2.8 l 3.7,-4.1 c -2.4,-2.6 -5.9,-4.1 -9.5,-4.1 -5.3,0 -8.9,3 -8.9,7.3 0,4.9 3.9,6.9 7.5,8.1 0.4,0.2 0.8,0.2 1.2,0.4 2,0.6 3.2,1 3.2,2.2 0,0.8 -0.4,1.8 -3,1.8 -2.4,0 -4.9,-1.2 -6.1,-3 l -3.9,4.1 c 2.6,3 5.9,4.5 9.9,4.5 5.9,0 9.5,-2.8 9.5,-7.5 0.3,-4.4 -3,-5.8 -8.2,-7.9 z"
   id="path5" />
		<path
   class="st1"
   d="m 191.1,95.2 c 0,2 -1.6,3.9 -3.9,3.9 -2,0 -3.9,-1.6 -3.9,-3.9 0,-2.3 1.6,-3.9 3.9,-3.9 2,0 3.9,1.9 3.9,3.9 z m -7.8,42.4 c 4.3,0 7.1,-2.8 7.1,-8.7 v -25.6 h -6.5 v 25.4 c 0,2.2 -1,3.5 -2.4,3.5 -0.8,0 -1.4,-0.2 -2.2,-0.6 l -1,5.5 c 1.6,0.3 2.8,0.5 5,0.5 z"
   id="path6" />
		<path
   class="st1"
   d="m 211.3,104.7 c -1.8,-1.2 -4.1,-1.8 -6.7,-1.8 -4.1,0 -7.3,1.4 -9.3,4.1 0.4,0.4 3.2,3.5 3.9,4.1 1,-1.4 2,-2.2 3.5,-2.6 0.6,-0.2 1,-0.2 1.6,-0.2 0.8,0 1.6,0.2 2.2,0.4 1.6,0.6 2.4,1.8 2.4,3.5 v 1.6 c -0.2,0 -2.2,-1 -5.5,-1 -5.3,0 -9.1,3.5 -9.1,7.9 0,4.5 3.5,7.7 8.1,7.7 2.8,0 4.7,-1.2 6.3,-2.6 h 0.2 v 2.2 h 6.1 v -16.2 c 0,-3.2 -1.2,-5.5 -3.7,-7.1 z m -2.4,15.2 c 0,1.2 -2.6,3.2 -5.7,3.2 -1.8,0 -3.2,-1.2 -3.2,-2.8 0,-1 0.6,-3 3.9,-3 2.4,0 5.1,0.8 5.1,0.8 v 1.8 z"
   id="path7" />
		<path
   class="st1"
   d="m 227,106.1 v 0 l -0.2,-2.8 h -6.5 v 24.8 h 6.5 v -11.2 c 0,-4.5 2.2,-7.5 7.7,-7.5 v -6.5 c -3.3,0 -5.9,1 -7.5,3.2 z"
   id="path8" />
		<path
   class="st1"
   d="m 254.8,125.8 h 0.2 v 2.2 h 6.1 V 91.9 h -6.5 v 13.4 h -0.2 c -1.2,-1.6 -4.3,-2.4 -6.3,-2.4 -7.9,0 -12,6.5 -12,12.8 0,4.7 2,7.7 3.7,9.3 2.2,2.2 5.3,3.5 8.3,3.5 1.4,0 3.8,-0.4 6.7,-2.7 z m -6.3,-3.2 c -3.5,0 -6.3,-3 -6.3,-6.9 0,-3.9 2.8,-6.9 6.3,-6.9 3.9,0 6.3,3.7 6.3,6.9 0,3.8 -2.9,6.9 -6.3,6.9 z"
   id="path9" />
		<path
   class="st1"
   d="m 284.8,105.3 h -0.2 v -2 h -6.5 v 24.8 h 6.5 v -12.8 c 0,-5.7 3.5,-6.5 5.7,-6.5 3.7,0 5.1,3 5.1,5.9 v 13.4 h 6.5 v -13.4 c 0,-7.3 -4.1,-11.8 -10.6,-11.8 -4.7,0 -6.5,2.4 -6.5,2.4 z"
   id="path10" />
		<path
   class="st1"
   d="m 157.4,115.5 c 0,-7.3 -5.1,-12.6 -12.2,-12.6 -7.1,0 -12.2,5.3 -12.2,12.8 0,7.5 5.3,12.8 12.8,12.8 4.5,0 8.1,-1.6 10.6,-4.5 -0.4,-0.6 -3.2,-3.5 -3.9,-4.1 -1.2,1.4 -3.5,2.8 -6.1,2.8 -3.2,0 -5.7,-1.8 -6.5,-5.1 h 17.5 c 0,-0.3 0,-1.3 0,-2.1 z M 139.7,113 c 0.8,-3 2.8,-4.7 5.7,-4.7 2.9,0 4.9,1.6 5.5,4.7 z"
   id="path11" />
	</g>
</g>

</svg>
