<?xml version="1.0" encoding="utf-8"?>
<!-- Generator: Adobe Illustrator 22.0.1, SVG Export Plug-In . SVG Version: 6.00 Build 0)  -->
<svg version="1.1" xmlns="http://www.w3.org/2000/svg" xmlns:xlink="http://www.w3.org/1999/xlink" x="0px" y="0px"
	 viewBox="0 0 347 220" style="enable-background:new 0 0 347 220;" xml:space="preserve">
<style type="text/css">
	.st0{fill:#F3F5F1;}
	.st1{fill:#006595;}
	.st2{fill:#B0BC22;}
</style>
<g id="Layer_1">
	<g id="Layer_2_1_">
		<rect class="st0" width="347" height="220"/>
	</g>
	<g>
		<g>
			<g>
				<polygon class="st1" points="141.2,64.7 141.2,106 166.9,106 166.9,99.5 148.7,99.5 148.7,88.6 162.6,88.6 162.6,82.1 
					148.7,82.1 148.7,71.1 165.9,71.1 165.9,64.7 				"/>
				<g>
					<path class="st1" d="M171.2,76.5h7V80c0,1.1,0,2.1,0,2.1l0,0c1.3-2.9,5.1-6.2,9.6-6.2s7.5,2.1,8.6,6.2l0,0
						c1.6-3.2,5.4-6.2,10.2-6.2c6.2,0,9.6,3.5,9.6,11.3v19H209v-18c0-3.5-0.5-5.9-4-5.9c-3.8,0-6.2,2.9-7.2,6.7
						c-0.3,1.1-0.3,2.4-0.3,3.8v12.9h-7.2V88.3c0-3.2-0.5-5.9-4-5.9c-3.8,0-6.4,2.9-7.2,6.7c-0.3,1.1-0.3,2.4-0.3,3.8v12.9h-7.2
						V76.5H171.2z"/>
					<path class="st1" d="M221.9,76.5h6.7v2.1c0,1.1,0,2.1,0,2.1l0,0c0,0,2.7-4.8,9.4-4.8c8,0,13.1,6.4,13.1,15.5
						c0,9.4-5.6,15.5-13.4,15.5c-5.9,0-8.6-4-8.6-4l0,0c0,0,0,1.1,0,2.4v12.3h-7.2C221.9,117.8,221.9,76.5,221.9,76.5z M236.4,100.4
						c4,0,7.5-3.2,7.5-9.1c0-5.6-2.9-9.4-7.2-9.4c-3.8,0-7.5,2.7-7.5,9.4C229.1,95.8,231.5,100.4,236.4,100.4"/>
					<path class="st1" d="M269.1,76.5h7v5.1c0,1.1,0,2.1,0,2.1l0,0c1.3-4.3,4.8-7.5,9.4-7.5c0.8,0,1.3,0,1.3,0v7.2c0,0-0.8,0-1.6,0
						c-3.2,0-6.7,1.9-8,6.2c-0.5,1.3-0.5,2.9-0.5,4.8v11.8h-7.5V76.5z"/>
					<path class="st1" d="M303.4,75.7c8.6,0,13.1,6.2,13.1,13.9c0,0.8-0.3,2.9-0.3,2.9h-20.4c0.5,5.1,4.6,7.8,8.8,7.8
						c4.8,0,8.6-3.2,8.6-3.2l2.9,5.4c0,0-4.6,4.3-11.8,4.3c-9.9,0-15.8-7-15.8-15.5C288.4,82.1,294.8,75.7,303.4,75.7 M309.3,87.5
						c0-4-2.7-6.2-5.9-6.2c-3.8,0-6.4,2.4-7,6.2H309.3z"/>
					<rect x="255.7" y="76.5" class="st1" width="7.2" height="29.5"/>
					<path class="st1" d="M263.4,68.7c0,2.1-1.9,4-4,4c-2.1,0-4-1.9-4-4c0-2.1,1.9-4,4-4S263.4,66.6,263.4,68.7"/>
					<polygon class="st1" points="141.2,113.2 148.7,113.2 148.7,148.1 166.9,148.1 166.9,154.5 141.2,154.5 					"/>
					<rect x="171.8" y="125" class="st1" width="7.2" height="29.5"/>
					<path class="st1" d="M186.5,130.6h-3.8v-5.9h3.8v-0.8c0-9.6,8-11,12.1-11c1.6,0,2.4,0.3,2.4,0.3v6.2c0,0-0.5,0-1.6,0
						c-2.1,0-5.6,0.5-5.6,4.8v0.8h6.4v5.9H194v23.6h-7.2v-23.9H186.5z"/>
					<path class="st1" d="M216.3,124.2c8.6,0,13.1,6.2,13.1,13.9c0,0.8-0.3,2.9-0.3,2.9h-20.4c0.5,5.1,4.6,7.8,8.8,7.8
						c4.8,0,8.6-3.2,8.6-3.2l2.9,5.4c0,0-4.6,4.3-11.8,4.3c-9.9,0-15.8-7-15.8-15.5C201.2,130.6,207.4,124.2,216.3,124.2 M222.1,136
						c0-4-2.7-6.2-5.9-6.2c-3.8,0-6.4,2.4-7,6.2H222.1z"/>
					<path class="st1" d="M179.5,117.2c0,2.1-1.9,4-4,4s-4-1.9-4-4s1.9-4,4-4S179.5,115.1,179.5,117.2"/>
					<path class="st1" d="M90,102.5c4.3,0,8.3,1.1,11.8,3.2c1.9,1.1,3.5,2.4,4.8,3.8c3.2,3.2,5.4,7.2,6.4,11.8
						c0-0.3,0.3-0.5,0.3-1.1c4.8-18.2-3.2-37.8-19.6-47.2c-3.2-1.9-6.7-3.2-10.2-4.3c-1.6-0.5-3.2-0.5-4.6-0.5
						c-8,0-15.3,5.4-17.4,13.4c-2.1,7.8,1.3,16.1,8.3,20.1c1.3,0.8,2.9,1.3,4.3,1.9c1.6,0.5,3.2,0.5,4.6,0.5c1.6,0,3.5-0.3,5.1-0.8
						C86,102.8,87.9,102.5,90,102.5"/>
					<path class="st2" d="M58.4,97.9c-2.1-3.8-3.2-7.8-3.2-11.8c0-2.1,0.3-4,0.8-6.2c1.1-4.3,3.8-8.3,7-11.5c-0.3,0-0.5,0.3-1.1,0.3
						c-18.5,5.1-31.4,21.7-31.4,40.5c0,3.8,0.5,7.2,1.3,11c0.5,1.6,1.1,2.9,1.9,4.3c4,7,12.3,10.5,20.4,8.3
						c7.8-2.1,13.4-9.1,13.4-17.4c0-1.6-0.3-3.2-0.5-4.6c-0.5-1.6-1.1-2.9-1.9-4.3c-0.8-1.3-1.9-2.7-3.2-4
						C60.5,101.2,59.2,99.5,58.4,97.9"/>
					<path class="st2" d="M69.9,127.4c-2.1,3.5-5.1,6.7-8.8,8.6c-1.9,1.1-3.8,1.9-5.6,2.4c-4.3,1.1-9.1,1.1-13.4-0.3
						c0.3,0.3,0.5,0.5,0.8,0.8c13.4,13.4,34.6,16.1,50.9,6.7c3.2-1.9,6.2-4,8.8-6.7c1.1-1.1,2.1-2.4,2.9-3.8c4-7,2.9-15.8-2.9-21.7
						c-5.9-5.6-14.7-7-21.7-2.9c-1.3,0.8-2.7,1.6-3.8,2.9c-1.1,1.1-2.1,2.4-2.9,3.8c-0.8,1.3-1.3,2.9-1.9,4.6
						C71.8,123.9,71,125.8,69.9,127.4"/>
					<path class="st1" d="M232.6,124.2c1.6,0,3.2,1.3,3.2,3.2c0,1.9-1.3,3.2-3.2,3.2c-1.6,0-2.9-1.3-2.9-3.2
						C229.7,125.5,231,124.2,232.6,124.2 M232.6,130.1c1.3,0,2.7-1.1,2.7-2.7c0-1.6-1.1-2.7-2.7-2.7c-1.3,0-2.4,1.1-2.4,2.7
						C229.9,129,231.3,130.1,232.6,130.1 M231.5,125.8h1.1c0.5,0,1.1,0.3,1.1,1.1c0,0.5-0.3,0.8-0.5,0.8l0,0c0,0,0,0,0,0.3l0.5,1.3
						h-0.5l-0.8-1.3h-0.5v1.1h-0.3V125.8z M232.6,127.4c0.3,0,0.5-0.3,0.5-0.5s-0.3-0.5-0.5-0.5h-0.5v1.3h0.5V127.4z"/>
				</g>
			</g>
		</g>
	</g>
</g>
<g id="Layer_2">
</g>
</svg>
