<?xml version="1.0" encoding="UTF-8"?>
<svg id="Layer_1" data-name="Layer 1" xmlns="http://www.w3.org/2000/svg" xmlns:xlink="http://www.w3.org/1999/xlink" viewBox="0 0 481.1746 397.1458">
  <path id="fullLogo" d="m302.1464,19.7222C282.5983,7.1313,259.8179,0,235.9377,0s-46.6606,7.1313-66.2086,19.7222c-61.7651,38.9392-75.3863,125.9459-25.5979,180.2025,5.689,6.0542,14.9771-1.4052,10.3311-8.241-11.7158-16.0482-19.1453-35.0184-20.8984-54.714-6.2085-60.2737,41.7829-114.8193,102.3636-114.8193h.0206c60.5807,0,108.5721,54.5455,102.3636,114.8193-1.7532,19.6956-9.1827,38.6658-20.8984,54.714-4.6461,6.8358,4.642,14.2952,10.3311,8.241,49.7884-54.2566,36.1672-141.2633-25.5979-180.2025Zm7.2325,202.7066c-8.46-3.9989-16.9799-8.1532-25.3665-12.5978-.0363-.0196-.0695-.0393-.1057-.0587-20.9673-11.1181-41.0886-24.0617-57.3678-40.9309.0031-.0024.0055-.0048.0079-.0072v-.0002c-4.0126-4.1558-7.7916-8.5508-11.2913-13.2186-6.5559-9.2185-11.1074-18.7606-12.5641-29.4691-2.5756-20.5941,6.6166-46.6124,33.2386-46.6124s35.8134,26.0182,33.2378,46.6124c-1.4567,10.7085-6.0082,20.2505-12.5641,29.4691-2.8834,3.8464-5.9585,7.5061-9.1962,11.0012-.6873.7447-2.8368,2.977-3.214,3.3592,4.9366,4.2935,10.3727,8.4732,16.3565,12.6025,1.1379-1.0519,2.2639-2.1182,3.3679-3.2089.0023.0019.0055.0037.0079.0056,13.8093-13.6472,24.6003-30.4502,27.2785-50.2714,4.8396-35.4412-16.0078-71.7437-55.2743-71.7513-39.2666.0077-60.1147,36.3102-55.2743,71.7513,3.4341,25.4174,20.2081,45.8714,39.5806,61.0727-17.9434,12.7407-38.011,22.9199-57.756,32.2525-2.563,1.1499-3.9171,4.0694-3.0491,6.8162.9343,2.9599,4.0915,4.6022,7.0522,3.668,24.1173-7.706,47.9175-17.8248,69.4545-31.6392,21.537,13.8145,45.3206,23.9332,69.4387,31.6392,2.9599.9342,6.1171-.7081,7.0514-3.668.868-2.7468-.4861-5.6663-3.0491-6.8162Z" style="fill: #00a4ac;"/>
  <a xlink:href="54.558431372549">
    <path id="fullLogo-2" data-name="fullLogo" d="m235.956,177.7835c.0268.0236.0544.0463.0813.0698-.0276-.0212-.0663-.0381-.0915-.0604.0039-.0031.0071-.0064.0103-.0095Z" style="fill: #00a4ac;"/>
  </a>
  <path id="fullLogo-3" data-name="fullLogo" d="m205.5957,292.1468c4.1069,0,7.71-3.4844,7.71-7.4561,0-4.042-3.5308-7.457-7.71-7.457-3.9717,0-7.4556,3.4844-7.4556,7.457,0,3.9023,3.5537,7.4561,7.4556,7.4561Zm-82.6689,98.9414c-1.7012,0-3.0444,0-3.0444-5.5732v-72.6133c0-2.9707.1104-5.832.1836-7.7246.04-1.0371.0703-1.8281.0703-2.2695,0-2.9336-1.1099-3.5352-2.7759-3.5352-1.1216,0-2.2461.1445-3.437.2979-1.2808.165-2.6055.335-4.0269.335-.9619,0-2.0396-.1816-3.4038-.4111-2.4609-.4141-5.8306-.9805-11.2705-.9805-18.5308,0-29.5942,12.8135-29.5942,34.2754,0,25.3594,14.7852,32.125,23.5215,32.125,5.6357,0,12.7886-1.0596,18.9834-8.9678v37.5645c0,1.9492,1.5854,3.5352,3.5347,3.5352h8.2227c4.5063,0,5.1792-2.373,5.1792-3.7881,0-1.4209-.8008-2.2695-2.1426-2.2695Zm-14.7939-51.1152c0,10.5371-7.3364,16.833-14.4292,16.833-4.2578,0-15.5674,0-15.5674-24.5498,0-17.6328,6.6958-26.9531,19.3633-26.9531,9.3701,0,10.6333,3.2656,10.6333,6.46v28.21Zm-50.834.6406c-1.9478,0-2.4712.8809-3.4663,2.8701l-.0684.1338c-2.7598,5.3945-4.4253,8.6514-10.2246,10.8252-2.2842.8711-6.3379,1.3506-11.4155,1.3506h-11.6382c-1.5415,0-1.7783,0-1.7783-3.8018v-31.7607h23.9165c1.7632,0,5.4326,0,5.4326-4.2939,0-1.8896,0-5.0518-4.2944-5.0518h-25.0547v-28.5977c0-3.1582.8052-3.4238,3.2969-3.4238h12.397c5.9644,0,9.8613,1.7969,11.5811,5.3389.5146,1.0684.9023,2.5088,1.2773,3.9014.8369,3.1074,1.7017,6.3203,4.2202,6.3203,2.4771,0,3.5342-4.4619,3.5342-14.9199,0-3.7285,0-7.583-4.5469-7.583H5.5581c-1.8042,0-5.5581,0-5.5581,3.1553,0,.9775.4155,2.1426,2.396,2.1426.9019,0,3.2969,0,3.2969,5.9531v68.8193c0,4.0342-1.1519,6.0791-3.4233,6.0791-1.4634,0-2.2695.7617-2.2695,2.1436,0,3.1553,3.9463,3.1553,5.4316,3.1553h42.3789c7.228,0,8.1191-2.084,10.0903-9.3125,1.6079-5.6309,1.7939-8.5684,1.7939-10.2891,0-1.9453-.918-3.1543-2.396-3.1543Zm128.2222,16.6982c-1.8779,0-2.1582-2.7793-2.1582-4.4355v-45.415c0-2.7168,0-6.8232-3.4082-6.8232h-8.0962c-2.687,0-5.5581.9619-5.5581,3.6611,0,1.1055.6274,2.3955,2.396,2.3955,1.6528,0,2.917.4199,2.917,5.7002v24.7949c0,7.1973-6.9746,18.2246-15.5679,18.2246-9.2422,0-9.2422-7.0078-9.2422-16.7061v-31.2471c0-3.5088,0-6.8232-3.2817-6.8232h-8.2227c-2.7041,0-5.4321,1.1318-5.4321,3.6611,0,1.1055.6606,2.3955,2.5225,2.3955,1.2485,0,2.6636,0,2.6636,5.7002v31.7529c0,13.5938,5.1475,20.4863,15.2998,20.4863,10.8442,0,17.0459-6.4307,21.2129-12.7012-.0244.6387-.0552,1.2754-.0854,1.9023-.0615,1.2783-.1201,2.4854-.1201,3.5957,0,1.7773,0,5.9385,3.4082,5.9385h8.2227c3.689,0,5.5591-1.1895,5.5591-3.5352,0-1.5977-.4956-2.5225-3.0288-2.5225Zm168.5269-58.6982c-7.2871,0-13.7324,2.7773-17.9707,7.6816v-29.0684c0-2.6162,0-6.5703-3.5352-6.5703h-8.0967c-2.4473,0-5.3057.959-5.3057,3.6611,0,1.4775.8691,2.3955,2.2686,2.3955,1.8633,0,2.918.2588,2.918,5.5742v73.8779c0,5.125.126,7.2041,3.2822,7.2041,1.0342,0,1.8418-.2715,2.6221-.5342.8838-.2969,1.7969-.6045,3.1973-.6045.5293,0,1.4414.2627,2.5957.5947,2.8447.8184,7.6035,2.1885,14.9883,2.1885,17.5527,0,28.4561-12.9883,28.4561-33.8955,0-21.5684-8.5527-32.5049-25.4199-32.5049Zm-5.0605,59.3311c-6.415,0-12.9102-2.8271-12.9102-8.2305v-27.5781c0-9.166,6.1416-15.5674,14.9346-15.5674,3.9131,0,15.8203,0,15.8203,23.6641,0,17.3525-6.6709,27.7119-17.8447,27.7119Zm113.8545-11.8916c-1.8447,0-3.0283,1.7246-3.4092,2.4004-3.8691,5.1562-7.8223,8.3525-15.5664,8.3525-5.2412,0-17.3662-2.4072-17.5898-24.5576h35.1738c3.5205,0,5.3057-2.5508,5.3057-7.582,0-15.8262-10.0273-26.0527-25.5469-26.0527-17.2627,0-27.5693,12.7656-27.5693,34.1484,0,19.8936,10.71,32.252,27.9492,32.252,10.5771,0,19.6621-5.0283,23.6934-13.0928.5674-.9941.7148-1.6045.7148-2.9668,0-1.9043-1.5869-2.9014-3.1553-2.9014Zm-22.0117-40.75c9.6123,0,13.0371,8.2383,13.0371,15.9473,0,3.7529-.3652,4.1826-3.5498,4.1826h-22.1377q-1.7783,0-1.7783-1.7783c0-.749.1641-18.3516,14.4287-18.3516Zm-35.6865,52.0088c-1.4355,0-2.791,0-2.791-5.4473v-74.6377c0-2.6162,0-6.5703-3.5342-6.5703h-7.9707c-2.626,0-5.4316.9619-5.4316,3.6602,0,1.4785.8691,2.3965,2.2686,2.3965,1.6299,0,2.917,0,2.917,5.4473v77.6738c0,1.9492,1.5859,3.5352,3.5352,3.5352h7.9697c4.4902,0,5.4326-2.0596,5.4326-3.7881,0-1.0967-.6289-2.2695-2.3955-2.2695Zm-189.8066,0c-1.4292,0-2.6636,0-2.6636-5.4473v-39.5957c0-.4756.0225-1.3086.0483-2.2715.0356-1.3398.0781-2.9307.0781-4.1807,0-1.2812,0-5.1787-3.6611-5.1787h-8.0962c-2.4478,0-5.3057.959-5.3057,3.6611,0,1.4775.8696,2.3955,2.269,2.3955,1.8638,0,2.918.2588,2.918,5.5742v47.5654c0,1.9492,1.5854,3.5352,3.5347,3.5352h7.9688c4.4902,0,5.4326-2.0596,5.4326-3.7881,0-1.1299-.7803-2.2695-2.5229-2.2695Zm37.4194-49.7314c1.98,0,4.9258-1.3115,4.9258-4.9258,0-1.1504-.4595-2.5225-2.6494-2.5225h-12.7847v-15.8213c0-3.7822-1.2856-4.4199-4.167-4.4199-3.2124,0-3.6133,3.0059-4.0776,6.4863-.0645.4844-.1318.9893-.21,1.5195-.9756,7.3135-2.522,9.6846-8.2627,12.6807-1.5601.7803-3.6348,2.0684-3.6348,4.2275,0,1.0361.4429,2.7754,3.4082,2.7754h5.1943v39.2236c0,14.0049,5.6606,16.8184,14.7939,16.8184,1.9634,0,11.7573-.2012,11.7573-4.167,0-2.9023-1.542-2.9023-2.9023-2.9023-10.2583,0-11.8994-3.0654-11.8994-12.9111v-36.0615h10.5083Zm59.9487,50.2373c-1.6338,0-2.4111-.8906-2.4111-5.9531v-38.9629c0-9.1455-6.3818-13.7822-18.9688-13.7822-4.1079,0-8.7725.5596-12.8018,1.5371l-1.0508.2607c-2.772.6875-4.0366,1.001-5.9497,1.96-1.5815.9482-3.4668,3.2383-3.4668,8.7588,0,1.5615.1826,9.3535,3.7881,9.3535,2.7314,0,4.0537-3.1123,5.1162-5.6133.2573-.6055.5039-1.1865.7617-1.7031,1.7568-3.7197,4.7031-7.9902,11.9585-7.9902,6.5029,0,8.8633,3.9385,8.8633,6.5859v9.2344c0,2.2979-3.1191,4.2646-9.272,5.8467l-.6782.1748c-15.4146,3.9756-25.5981,6.6006-25.5981,20.9248,0,15.3701,11.5171,16.5645,15.0469,16.5645,10.583,0,16.5332-5.2559,20.5015-10.374v.8936c0,8.1816,4.2935,8.8477,9.4805,8.8477,3.4541,0,6.9502-1.4746,6.9502-4.2939,0-1.4209-.8486-2.2695-2.2695-2.2695Zm-14.1611-12.9131c-2.4194,5.5928-7.793,11.5215-15.6938,11.5215-6.7212,0-7.7246-5.7109-7.7246-9.1152,0-9.1602,5.3667-11.1289,14.8433-13.8184,2.8857-.7695,6.5215-2.0703,8.5752-3.2373v14.6494Z"/>
  <path id="fullLogo-4" data-name="fullLogo" d="m464.2276,274.3h2.549v7.1605h1.5727v-7.1605h2.5489v-1.2921h-6.6705v1.2921Zm15.7606-1.2921c-.0704,0-.1313.0019-.1817.0057-.0504.0038-.0961.0134-.137.0295-.0409.0152-.0789.0409-.1141.0761-.0352.0342-.0685.0818-.0989.1398l-2.4966,4.6821c-.0666.1246-.1285.2549-.1865.3891-.059.1342-.1151.274-.1703.4177-.0542-.1398-.1094-.2769-.1665-.4091-.0562-.1322-.118-.2607-.1836-.3853l-2.5318-4.6944c-.0305-.058-.0628-.1056-.0961-.1398-.0333-.0352-.0704-.0609-.1113-.0761-.041-.0162-.0866-.0257-.137-.0295-.0504-.0038-.1113-.0057-.1817-.0057h-1.1865v8.4526h1.3853v-5.4594c0-.1056-.0038-.2208-.0114-.3454-.0076-.1246-.0172-.2512-.0295-.3796l2.5841,4.8162c.1208.2302.3054.3453.5557.3453h.2217c.2493,0,.4348-.1151.5557-.3453l2.5546-4.7991c-.0237.2531-.0352.4891-.0352.7079v5.4594h1.3853v-8.4526h-1.1865Z"/>
</svg>