<?xml version="1.0" encoding="UTF-8" standalone="no"?>
<!-- Generator: Adobe Illustrator 22.0.1, SVG Export Plug-In . SVG Version: 6.00 Build 0)  -->

<svg
   version="1.1"
   x="0px"
   y="0px"
   viewBox="0 0 347 220"
   style="enable-background:new 0 0 347 220;"
   xml:space="preserve"
   id="svg24"
   sodipodi:docname="foresters.svg"
   inkscape:version="1.3.2 (091e20e, 2023-11-25)"
   xmlns:inkscape="http://www.inkscape.org/namespaces/inkscape"
   xmlns:sodipodi="http://sodipodi.sourceforge.net/DTD/sodipodi-0.dtd"
   xmlns="http://www.w3.org/2000/svg"
   xmlns:svg="http://www.w3.org/2000/svg"><defs
   id="defs24" /><sodipodi:namedview
   id="namedview24"
   pagecolor="#ffffff"
   bordercolor="#000000"
   borderopacity="0.25"
   inkscape:showpageshadow="2"
   inkscape:pageopacity="0.0"
   inkscape:pagecheckerboard="0"
   inkscape:deskcolor="#d1d1d1"
   showgrid="false"
   inkscape:zoom="3.7"
   inkscape:cx="173.37838"
   inkscape:cy="110"
   inkscape:window-width="1920"
   inkscape:window-height="1027"
   inkscape:window-x="0"
   inkscape:window-y="25"
   inkscape:window-maximized="1"
   inkscape:current-layer="svg24" />
<style
   type="text/css"
   id="style1">
	.st0{fill:#F3F5F1;}
	.st1{fill:#642E51;}
	.st2{fill:#642D51;}
	.st3{fill:#642C50;}
	.st4{fill:#652E51;}
	.st5{fill:#642D50;}
	.st6{fill:#673153;}
	.st7{fill:#652F52;}
	.st8{fill:#57B7B3;}
	.st9{fill:#6D3B5B;}
</style>
<g
   id="Layer_1"
   style="display:inline">
	
	<g
   id="g24"
   style="display:inline">
		<path
   class="st1"
   d="m 139.4,110.1 c 0.5,0.9 1,1.6 1.4,2.4 1.3,2.1 1.3,2.1 -0.8,3.5 -7.5,5.1 -17.6,3.5 -22.5,-3.5 -5.4,-7.8 -2.7,-19.8 5.6,-23.6 8.3,-3.8 18.6,-0.4 19.1,11.9 0.1,3.4 0,3.4 -3.4,3.4 -5.8,0 -11.6,0 -17.3,0 -1,0 -1.3,0.2 -1.1,1.3 1.6,8.3 11.2,11.4 17.9,5.7 0.3,-0.3 0.6,-0.6 1.1,-1.1 z M 128.6,99.6 c 2.4,0 4.7,0 7.1,0 0.8,0 1.1,-0.1 1,-1 -0.5,-2.8 -1.9,-4.9 -4.7,-5.8 -4.6,-1.6 -9.9,1.2 -11.3,5.9 -0.2,0.8 0,1 0.7,0.9 2.5,-0.1 4.9,0 7.2,0 z"
   id="path1" />
		<path
   class="st2"
   d="m 215.3,110.2 c 0.7,1.2 1.4,2.4 2.2,3.6 0.4,0.5 0.1,0.8 -0.2,1.1 -4.9,4 -10.5,5.1 -16.4,3.1 -5.7,-1.8 -9,-6 -10,-11.9 -0.8,-5.1 0.1,-9.8 3.6,-13.9 3.9,-4.5 11.3,-6.1 16.7,-3.5 5.7,2.7 7.4,9.6 6.9,14.6 -0.1,1 -0.7,0.9 -1.4,0.9 -6.3,0 -12.7,0 -19,0 -1.4,0 -1.6,0.4 -1.3,1.7 1.8,8 10.8,10.8 17.6,5.5 0.4,-0.4 0.8,-0.8 1.3,-1.2 z M 204.4,99.6 c 2.4,0 4.8,0 7.3,0 0.8,0 1,-0.3 0.9,-1 -0.3,-2.7 -2.5,-5.4 -5.2,-6.1 -4.6,-1.1 -9.1,1.4 -10.7,5.9 -0.3,0.9 -0.2,1.2 0.8,1.2 2.3,-0.1 4.6,0 6.9,0 z"
   id="path2" />
		<path
   class="st1"
   d="m 76.3,118.9 c -8.9,0 -15.7,-6.8 -15.7,-15.8 0,-8.8 7,-15.6 15.8,-15.6 8.9,0 15.8,6.9 15.8,15.8 0.1,8.9 -6.9,15.6 -15.9,15.6 z m 10.6,-15.7 c 0,-5.9 -4.6,-10.6 -10.4,-10.7 -5.7,-0.1 -10.4,4.7 -10.5,10.6 0,6 4.5,10.9 10.3,11 5.8,0 10.5,-4.8 10.6,-10.9 z"
   id="path3" />
		<path
   class="st3"
   d="m 37.2,97.6 c 0,-6.5 0,-12.9 0,-19.4 0,-1.1 0.3,-1.4 1.4,-1.4 6.6,0.1 13.2,0 19.8,0 1,0 1.3,0.3 1.3,1.3 0,3.7 0.1,3.7 -3.7,3.7 -4,0 -8.1,0 -12.1,0 -1.1,0 -1.4,0.3 -1.4,1.4 0.1,3.6 0.1,7.2 0,10.8 0,1.2 0.4,1.5 1.5,1.4 4,-0.1 8,0 11.9,0 1.1,0 1.4,0.3 1.4,1.4 0,3.5 0,3.5 -3.5,3.5 -3.3,0 -6.6,0.1 -9.9,0 -1.2,0 -1.5,0.4 -1.4,1.5 0.1,5.1 0,10.1 0.1,15.2 0,1.1 -0.3,1.5 -1.4,1.3 -1.3,-0.1 -2.9,0.5 -3.7,-0.3 -0.8,-0.8 -0.2,-2.5 -0.2,-3.7 -0.1,-5.6 -0.1,-11.1 -0.1,-16.7 z"
   id="path4" />
		<path
   class="st4"
   d="m 156.5,118.9 c -3.9,0 -7.4,-1.3 -10.3,-3.9 -0.7,-0.6 -0.9,-1.1 -0.2,-1.9 0.8,-0.8 1.2,-2.2 2.1,-2.6 1,-0.4 1.7,1.2 2.6,1.7 2.5,1.4 5,2.1 7.8,1.5 1.9,-0.4 3,-1.5 3.2,-3.1 0.3,-1.8 -0.9,-2.8 -2.3,-3.5 -2.5,-1.2 -5.2,-2.3 -7.7,-3.5 -2.2,-1.1 -4.1,-2.6 -5,-5 -1.2,-3.5 0.2,-7.3 3.3,-9.3 4.3,-2.8 11.6,-2.3 15.6,1 0.7,0.6 1.1,1.1 0.4,2 -0.7,0.9 -1,2.3 -1.8,2.8 -0.9,0.4 -1.6,-1.1 -2.6,-1.5 -2.3,-1 -4.6,-1.5 -7.1,-0.8 -1.4,0.4 -2.5,1.3 -2.7,2.9 -0.2,1.6 0.6,2.5 1.8,3.3 1.5,1 3.2,1.5 4.8,2.2 1.9,0.8 3.8,1.5 5.5,2.8 4.5,3.5 4.4,9.9 -0.4,13.1 -1.8,1.3 -3.8,1.8 -7,1.8 z"
   id="path5" />
		<path
   class="st4"
   d="m 260.5,95.5 c -2.7,-2.6 -5.7,-3.5 -9.3,-2.8 -1.6,0.4 -2.7,1.2 -3,2.9 -0.2,1.7 0.8,2.7 2.1,3.4 1.7,1 3.5,1.6 5.2,2.3 1.4,0.6 2.7,1.2 4,2 2.7,1.7 4.2,4.1 4,7.4 -0.2,3.3 -2,5.6 -4.9,7 -4.8,2.4 -12.6,1 -16.4,-2.8 -0.5,-0.5 -0.7,-0.9 -0.2,-1.5 0.9,-1 1.6,-2.1 2.4,-3.2 2.1,2.2 4.6,3.5 7.5,3.8 1.5,0.2 2.9,0 4.2,-0.7 2.3,-1.3 2.5,-4 0.4,-5.6 -1.4,-1 -3.1,-1.6 -4.7,-2.3 -2,-0.8 -4,-1.6 -5.8,-2.9 -4.9,-3.6 -4.5,-10.5 0.8,-13.5 4.3,-2.4 11.1,-1.9 14.9,1.2 0.9,0.7 1.1,1.3 0.4,2.3 -0.4,0.9 -0.9,1.9 -1.6,3 z"
   id="path6" />
		<path
   class="st5"
   d="m 179.5,84.6 c 0.2,1.3 -0.6,3 0.3,3.8 0.8,0.8 2.5,0.2 3.7,0.2 3.1,0 3,0 3.1,3 0.1,1.4 -0.4,1.8 -1.7,1.7 -1.4,-0.1 -2.9,0 -4.3,0 -0.7,0 -1.1,0.1 -1.1,1 0,4.5 -0.1,9 0.1,13.5 0.1,4 2.5,6 6.5,5.7 1.1,-0.1 1.6,0.2 2,1.1 0,0 0.1,0.1 0.1,0.1 2,3.3 2,3.3 -1.9,3.8 -6.9,0.8 -11.8,-3.3 -12,-10.3 -0.1,-4.5 -0.1,-9 0,-13.5 0,-1.1 -0.3,-1.5 -1.4,-1.4 -0.5,0.1 -0.9,0 -1.4,0 -0.7,0.1 -1.1,-0.2 -1,-1 0,-0.2 0,-0.4 0,-0.6 0.1,-1 -0.4,-2.2 0.2,-2.8 0.6,-0.6 1.7,-0.2 2.7,-0.2 0.8,0 0.9,-0.4 0.9,-1 0,-2.1 0,-4.1 0,-6.2 0,-0.9 0.3,-1.2 1.1,-1.1 1.3,0.1 3.1,-0.4 3.9,0.2 0.8,0.8 0,2.6 0.2,4 z"
   id="path7" />
		<path
   class="st6"
   d="m 228.1,92.5 c 2.3,-3.1 5,-4.7 8.6,-4.5 1.5,0.1 3.5,0.2 3.9,1.3 0.4,1.2 -1.2,2.5 -1.9,3.8 -0.3,0.5 -0.7,0.3 -1.1,0.2 -4,-0.6 -6.7,1.9 -8.1,4.9 -1,2.2 -1.5,4.5 -1.5,6.9 0,3.9 0,7.8 0,11.8 0,1.1 -0.3,1.5 -1.4,1.4 -1.3,-0.1 -2.9,0.5 -3.8,-0.2 -0.9,-0.8 -0.3,-2.4 -0.3,-3.7 0,-8.2 0,-16.3 0,-24.5 0,-1.3 0.2,-1.9 1.7,-1.7 1.1,0.1 2.5,-0.3 3.3,0.2 0.9,0.6 0.2,2.1 0.4,3.2 0,0.2 0.1,0.3 0.2,0.9 z"
   id="path8" />
		<path
   class="st2"
   d="m 102,92.7 c 2.3,-3.2 5,-4.9 8.7,-4.6 1.5,0.1 3.5,0.2 3.9,1.3 0.4,1.2 -1.2,2.5 -1.9,3.8 -0.3,0.5 -0.8,0.3 -1.3,0.3 -3.5,-0.4 -5.9,1.3 -7.6,4.2 -1.4,2.4 -1.9,5 -1.9,7.7 0,3.9 0,7.8 0,11.8 0,0.9 -0.2,1.2 -1.2,1.2 -4.1,0 -4.1,0.1 -4.1,-4 0,-8.2 0,-16.3 0,-24.5 0,-1.4 0.4,-1.7 1.7,-1.7 3.4,0.1 3.4,0 3.5,3.6 0.1,0.1 0.1,0.3 0.2,0.9 z"
   id="path9" />
		<path
   class="st7"
   d="m 103.2,157.5 c -3,4 -6.3,5.1 -10.2,3.7 -2.6,-0.9 -4.1,-2.7 -4.3,-5.5 -0.1,-2.6 0.9,-4.7 3.3,-6 3,-1.6 6.3,-1.9 9.6,-1.8 1.3,0 1.5,-0.4 1.3,-1.6 -0.5,-3.2 -2.6,-4.9 -5.9,-4.5 -1.6,0.2 -3.2,0.5 -4.5,1.5 -1.2,0.9 -1.3,-0.2 -1.8,-0.7 -0.6,-0.8 -0.4,-1.2 0.4,-1.7 2.6,-1.4 5.3,-2 8.2,-1.6 4,0.5 6.3,3.1 6.5,7.2 0.1,4.6 0,9.2 0.1,13.8 0,1.3 -0.8,0.9 -1.4,0.9 -0.7,0 -1.5,0.3 -1.4,-1 0.2,-0.7 0.1,-1.6 0.1,-2.7 z m -2.8,-7.1 c -2.2,0 -4.3,0.2 -6.3,1.2 -1.8,0.9 -2.6,2.4 -2.3,4.2 0.3,1.7 1.6,3 3.4,3.3 3.5,0.7 6.4,-1.5 7.5,-5.5 0.9,-3.2 0.9,-3.2 -2.3,-3.2 z"
   id="path10" />
		<path
   class="st7"
   d="m 180,157.5 c -3.1,4.2 -7.3,5.4 -11.2,3.2 -3.9,-2.1 -4.3,-7.6 -0.9,-10.3 2.6,-2 5.8,-2.2 8.9,-2.5 0.3,0 0.5,0 0.8,0 2.7,0 2.8,-0.1 2,-2.7 -0.6,-2.3 -2.9,-3.6 -5.6,-3.3 -1.7,0.2 -3.3,0.6 -4.6,1.5 -1,0.7 -1.2,0 -1.5,-0.6 -0.4,-0.6 -0.9,-1.1 0.1,-1.7 3.2,-1.8 6.6,-2.4 10.1,-1.4 2.8,0.8 4.6,3.2 4.7,6.4 0.1,4.7 0,9.5 0.1,14.2 0,1.3 -0.9,0.8 -1.5,0.8 -0.6,0 -1.4,0.4 -1.4,-0.8 0.1,-0.8 0,-1.6 0,-2.8 z m -1.7,-7.1 c -3.2,0 -5.3,0.2 -7.3,1.2 -1.7,0.9 -2.5,2.5 -2.3,4 0.3,1.8 1.6,3.1 3.5,3.4 3.5,0.6 6.5,-1.6 7.5,-5.5 0.8,-3.1 0.8,-3.1 -1.4,-3.1 z"
   id="path11" />
		<path
   class="st8"
   d="m 284.3,119.8 c -0.3,-2 0,-3.6 0.2,-5.2 1.2,-9.1 2.7,-18 5.9,-26.6 1,-2.8 2.4,-5.5 4.3,-7.8 3.8,-4.6 8.7,-4.9 12.9,-0.8 0.7,0.7 1.4,1.5 2.4,2.6 -2.3,-0.6 -4.2,-0.9 -6.1,-0.5 -3.4,0.7 -6,2.7 -8,5.4 -3.7,4.9 -5.6,10.6 -7.4,16.4 -1.5,4.8 -2.7,9.7 -3.5,14.7 -0.1,0.5 -0.1,1.1 -0.7,1.8 z"
   id="path12" />
		<path
   class="st2"
   d="m 68.9,143.9 c 2.7,-3.7 6.1,-5.2 10.5,-4.5 2.9,0.5 4.4,2.1 5,4.9 0.2,1 0.3,2 0.3,3.1 0,4.2 -0.1,8.5 0,12.7 0,1.2 -0.6,1.2 -1.4,1.1 -0.8,0 -1.6,0.3 -1.6,-1.1 0.1,-4.5 0.1,-9 -0.1,-13.5 -0.2,-3.9 -2.6,-5.4 -6.4,-4.4 -3.7,1 -6.2,4.2 -6.2,8.4 0,3.1 -0.1,6.3 0,9.4 0,1.3 -0.6,1.2 -1.5,1.2 -0.9,0 -1.5,0.1 -1.5,-1.2 0.1,-6.3 0.1,-12.7 0,-19 0,-1.2 0.5,-1.3 1.5,-1.3 1,0 1.6,0.1 1.4,1.3 -0.1,1 0,1.9 0,2.9 z"
   id="path13" />
		<path
   class="st7"
   d="m 114.7,144.3 c 2.3,-3.7 5.3,-5.2 9.2,-5.1 3.5,0.1 5.7,2.1 6.3,5.6 0.5,3.4 0.2,6.8 0.3,10.2 0,1.4 0,2.9 0,4.3 0,1.8 -0.7,2.3 -2.5,1.9 -0.8,-0.2 -0.5,-0.8 -0.5,-1.3 0,-3.8 0,-7.6 0,-11.5 0,-0.4 0,-0.8 0,-1.2 0,-5.6 -4,-6.1 -7.5,-4.7 -3.6,1.4 -5.2,4.4 -5.3,8.2 -0.1,3.1 -0.1,6.2 0,9.3 0,1.1 -0.4,1.3 -1.3,1.2 -0.8,-0.1 -1.6,0.3 -1.6,-1.1 0.1,-6.4 0.1,-12.8 0,-19.2 0,-1.4 0.8,-1.1 1.6,-1.2 0.9,0 1.5,0 1.4,1.2 -0.2,1 -0.1,2 -0.1,3.4 z"
   id="path14" />
		<path
   class="st7"
   d="m 37.2,146.1 c 0,-4.5 0,-9.1 0,-13.6 0,-1 0.3,-1.3 1.3,-1.3 4.4,0.1 8.9,0.1 13.3,0 1,0 1.4,0.2 1.3,1.3 -0.1,0.9 0,1.5 -1.3,1.5 -3.5,-0.1 -6.9,0 -10.4,-0.1 -1,0 -1.4,0.2 -1.3,1.3 0.1,2.9 0.1,5.8 0,8.7 0,1 0.3,1.3 1.3,1.3 2.9,-0.1 5.8,0 8.7,0 1.1,0 1.1,0.5 1.1,1.3 0,0.7 0.2,1.5 -1.1,1.5 -2.9,-0.1 -5.8,0 -8.7,0 -1,0 -1.3,0.2 -1.3,1.3 0.1,3.6 -0.1,7.2 0.1,10.8 0,1.4 -0.6,1.3 -1.6,1.3 -1,0 -1.5,-0.1 -1.4,-1.3 0,-4.7 0,-9.4 0,-14 z"
   id="path15" />
		<path
   class="st6"
   d="m 153.2,156.2 c 1.7,2.2 1.6,2.4 -0.6,3.8 -5,3.1 -12,2.1 -15.4,-2.4 -3.5,-4.5 -3,-11.4 1.1,-15.3 3.8,-3.7 10.3,-4 14.7,-0.9 1.2,0.9 0.7,1.4 0.2,2.3 -0.7,1.2 -1.2,0.4 -1.8,0 -2.9,-2 -6.1,-2.4 -9.2,-0.7 -3.2,1.7 -4.5,4.6 -4.3,8.1 0.2,3.4 1.8,5.9 5,7.3 3.2,1.4 6.3,0.8 9.1,-1.2 0.4,-0.3 0.8,-0.7 1.2,-1 z"
   id="path16" />
		<path
   class="st8"
   d="m 282.1,96.7 c -0.2,-2.1 -0.3,-3.9 -0.4,-5.7 -0.4,-4.4 -1.1,-8.8 -2.9,-12.9 -1.2,-2.8 -2.8,-5.3 -6.2,-6 -1.4,-0.3 -2.7,-0.1 -4.2,0.1 1.9,-2 4.1,-3.7 7,-3.8 2.5,-0.1 4.2,1.2 5.2,3.4 1.3,2.7 1.8,5.7 2.1,8.7 0.5,4.9 0.3,9.8 0,14.7 0.1,0.4 0,0.8 -0.6,1.5 z"
   id="path17" />
		<path
   class="st3"
   d="m 188.6,144.5 c 0,-4 0.1,-8.1 0,-12.1 0,-1.2 0.5,-1.3 1.5,-1.3 0.9,0 1.5,0 1.5,1.2 -0.1,7.6 0,15.3 0,22.9 0,2.4 0.3,2.8 2.6,3.4 1,0.3 0.3,1.1 0.5,1.7 0.2,0.6 -0.1,0.9 -0.8,1 -3,0.3 -5.1,-1.5 -5.1,-4.6 -0.2,-4 -0.2,-8.1 -0.2,-12.2 z"
   id="path18" />
		<path
   class="st8"
   d="m 302.4,63 c -1,-0.1 -1.8,-0.8 -2.9,-0.7 -2.2,0.3 -3.4,1.8 -4.5,3.4 -2.6,4.1 -4,8.8 -5.3,13.4 -0.2,0.8 -0.2,1.7 -0.8,2.2 -0.4,-0.1 -0.4,-0.3 -0.4,-0.6 0.4,-6 0.9,-12 3,-17.7 0,0 0,-0.1 0,-0.1 1,-2.2 1.9,-4.9 4.8,-4.8 3,0.2 4.9,2.4 6.1,4.9 z"
   id="path19" />
		<path
   class="st9"
   d="m 60.1,150.6 c 0,3.2 -0.1,6.4 0,9.6 0,1.4 -0.8,1.1 -1.6,1.1 -0.8,0 -1.4,0.1 -1.4,-1.2 0.1,-6.4 0.1,-12.8 0,-19.2 0,-1.3 0.7,-1.2 1.5,-1.2 0.9,0 1.5,0 1.5,1.3 -0.1,3.2 0,6.4 0,9.6 z"
   id="path20" />
		<path
   class="st9"
   d="m 158.4,150.4 c 0,-3.1 0.1,-6.3 0,-9.4 0,-1.3 0.6,-1.2 1.5,-1.2 0.9,0 1.5,-0.1 1.5,1.2 -0.1,6.4 -0.1,12.8 0,19.2 0,1.4 -0.8,1.1 -1.6,1.1 -0.8,0 -1.5,0.1 -1.4,-1.1 0.1,-3.3 0,-6.6 0,-9.8 z"
   id="path21" />
		<path
   class="st3"
   d="m 60.1,133 c 0.2,1.2 0.2,2 -1.5,2 -1.9,0 -1.5,-1 -1.6,-2.1 -0.1,-1.2 0,-1.8 1.6,-1.8 1.7,0 1.7,0.8 1.5,1.9 z"
   id="path22" />
		<path
   class="st3"
   d="m 161.5,133.4 c 0.3,1.1 -0.2,1.5 -1.7,1.6 -2,0.1 -1.3,-1.2 -1.5,-2.2 -0.2,-1.4 0.4,-1.6 1.6,-1.7 2,-0.1 1.5,1.1 1.6,2.3 z"
   id="path23" />
		<path
   class="st8"
   d="m 302.4,63 c 0,0 0.1,0.1 0.1,0.1 0,0 0,-0.1 -0.1,-0.1 z"
   id="path24" />
	</g>
</g>

</svg>
