<svg xmlns="http://www.w3.org/2000/svg" id="Calque_2" data-name="Calque 2" viewBox="0 0 275.97 45.1"><defs><style>      .cls-1 {        fill: #510c76;      }      .cls-1, .cls-2 {        stroke-width: 0px;      }      .cls-2 {        fill: #636569;      }    </style></defs><g id="Calque_1-2" data-name="Calque 1"><path class="cls-1" d="m242,37.7c-.1.2-.2.4-.3.5-.2.1-.3.3-.5.3-.2.1-.5.1-.7.1h-1.5v-3.3h1.5c.3,0,.5,0,.7.1s.4.2.5.3c.1.1.3.3.3.5.1.2.1.4.1.7s0,.6-.1.8m.2-2.5c-.2-.2-.5-.4-.8-.5s-.6-.2-.9-.2h-2.3v4.8h2.3c.3,0,.6-.1.9-.2s.6-.3.8-.5c.2-.2.4-.5.5-.8s.2-.6.2-1-.1-.7-.2-1c-.1-.1-.3-.4-.5-.6"></path><polyline class="cls-1" points="234.4 38.4 232.6 34.6 232.6 34.6 231.5 34.6 231.5 39.4 232.2 39.4 232.2 35.5 234 39.4 234 39.4 234.7 39.4 236.5 35.5 236.5 39.4 237.3 39.4 237.3 34.6 236.1 34.6 234.4 38.4"></polyline><path class="cls-1" d="m246.3,35.8h1.3c.2,0,.4.1.5.2s.2.3.2.5-.1.4-.2.5-.3.2-.5.2h-1.3v-1.4m2.7.7c0-.2,0-.4-.1-.5-.1-.2-.2-.3-.3-.4-.1-.1-.3-.2-.4-.3-.2-.1-.3-.1-.5-.1h-2v3.3h.7v-.8h1.4l.4.8h.7l-.5-.9c.2-.1.3-.2.4-.4.1-.2.2-.4.2-.7"></path><path class="cls-1" d="m247.1,39.9c-1.6,0-2.9-1.3-2.9-2.9s1.3-2.9,2.9-2.9,2.9,1.3,2.9,2.9c.1,1.6-1.3,2.9-2.9,2.9m0-6.4c-1.9,0-3.5,1.6-3.5,3.5s1.6,3.5,3.5,3.5,3.5-1.6,3.5-3.5-1.5-3.5-3.5-3.5"></path><path class="cls-2" d="m75.1,36.2h1.1l2.2,5.3h-5.6l2.3-5.3m-1.2-1.8l-4.6,10.4h2.1l.7-1.6h7.1l.7,1.6h2l-4.5-10.4h-3.5Z"></path><path class="cls-2" d="m74.9,35.9h1.5l2.4,5.7h-6.3l2.4-5.7m-.8-1.3l-4.3,9.9h1.4l.7-1.6h7.5l.7,1.6h1.5l-4.2-9.9h-3.3Z"></path><path class="cls-2" d="m94,45.1c-2.1,0-3.6-.4-5.1-1.4l-.2-.1,1-1.6.2.1c1.4.9,2.6,1.3,4.4,1.3.9,0,3.1-.2,3.1-1.6,0-.5-.2-1.1-1.7-1.3l-3.2-.4c-2.2-.3-3.3-1.2-3.3-2.9,0-1.9,1.8-3.1,4.8-3.1,1.8,0,3.3.2,4.9,1.3l.2.1-.9,1.4-.2-.1c-1.2-.7-2.4-1-3.9-1-1.9,0-2.9.5-2.9,1.3,0,.6.4.9,1.6,1l3.2.4c2.9.4,3.4,1.9,3.4,3.1-.1,2.3-2,3.5-5.4,3.5"></path><path class="cls-2" d="m97.9,36.7c-1.2-.7-2.4-1-4.1-1-2.5,0-3.1.8-3.1,1.6,0,.9.7,1.2,1.9,1.3l3.2.4c2,.2,3.2,1.1,3.2,2.8,0,2.1-2,3.1-5,3.1-2,0-3.4-.4-5-1.4l.7-1.1c1.4.9,2.7,1.3,4.5,1.3,2,0,3.3-.6,3.3-1.8,0-1-.7-1.4-1.9-1.5l-3.2-.4c-1.9-.2-3.1-.9-3.1-2.6,0-2,2.1-2.9,4.5-2.9,1.8,0,3.2.2,4.7,1.3l-.6.9"></path><path class="cls-2" d="m111.5,45.1c-2.1,0-3.6-.4-5.1-1.4l-.2-.1,1-1.6.2.1c1.4.9,2.6,1.3,4.4,1.3.9,0,3.1-.2,3.1-1.6,0-.5-.2-1.1-1.7-1.3l-3.2-.4c-2.2-.3-3.3-1.2-3.3-2.9,0-1.9,1.8-3.1,4.8-3.1,1.8,0,3.3.2,4.9,1.3l.2.1-1,1.4-.2-.1c-1.2-.7-2.4-1-3.9-1-1.9,0-2.9.5-2.9,1.3,0,.6.4.9,1.6,1l3.2.4c2.9.4,3.5,1.9,3.5,3.1-.1,2.3-2,3.5-5.4,3.5"></path><path class="cls-2" d="m115.4,36.7c-1.2-.7-2.4-1-4.1-1-2.5,0-3.1.8-3.1,1.6,0,.9.7,1.2,1.9,1.3l3.2.4c2,.2,3.2,1.1,3.2,2.8,0,2.1-2,3.1-5,3.1-2,0-3.4-.4-5-1.4l.7-1.1c1.4.9,2.7,1.3,4.5,1.3,2,0,3.3-.6,3.3-1.8,0-1-.7-1.4-1.9-1.5l-3.2-.4c-1.9-.2-3.1-.9-3.1-2.6,0-2,2.1-2.9,4.5-2.9,1.8,0,3.2.2,4.7,1.3l-.6.9"></path><path class="cls-2" d="m129.5,45.1c-3.3,0-5.3-2-5.3-5.4v-5.3h1.9v5.4c0,1.6.6,3.6,3.4,3.6,2.2,0,3.4-1.3,3.4-3.6v-5.4h1.9v5.3c0,3.4-2,5.4-5.3,5.4"></path><path class="cls-2" d="m125.9,34.6v5.1c0,2.3,1.1,3.8,3.6,3.8s3.6-1.5,3.6-3.8v-5.1h1.4v5.1c0,3.3-2,5.1-5,5.1s-5-1.8-5-5.1v-5.1h1.4"></path><path class="cls-2" d="m148.6,40.6c1.5,0,2.4-.8,2.4-2.2s-.9-2.2-2.4-2.2h-4.1v4.4h4.1m1.7,4.2l-1.4-2.4h-4.5v2.4h-1.9v-10.4h6.1c2.5,0,4.3,1.7,4.3,4,0,1.6-.8,2.8-2.1,3.5l1.7,2.9h-2.2Z"></path><path class="cls-2" d="m144.2,40.9h4.4c1.6,0,2.6-.9,2.6-2.5,0-1.5-1.1-2.5-2.6-2.5h-4.4v5m4.4-6.3c2.3,0,4,1.5,4,3.8,0,1.6-.9,2.8-2.2,3.4l1.6,2.8h-1.6l-1.4-2.4h-4.8v2.4h-1.4v-9.9h5.8v-.1Z"></path><path class="cls-2" d="m165.7,36.2h1.1l2.2,5.3h-5.6l2.3-5.3m-1.2-1.8l-4.6,10.4h2.1l.7-1.6h7.1l.7,1.6h2l-4.5-10.4h-3.5Z"></path><path class="cls-2" d="m165.5,35.9h1.5l2.4,5.7h-6.3l2.4-5.7m-.9-1.3l-4.3,9.9h1.5l.7-1.6h7.4l.7,1.6h1.5l-4.2-9.9h-3.3Z"></path><polyline class="cls-2" points="188.7 34.4 188.7 42.1 181.8 34.4 179.9 34.4 179.9 44.8 181.8 44.8 181.8 37.1 188.6 44.8 190.6 44.8 190.6 34.4 188.7 34.4"></polyline><polyline class="cls-2" points="188.9 34.6 188.9 42.7 181.7 34.6 180.1 34.6 180.1 44.6 181.5 44.6 181.5 36.5 188.8 44.6 190.3 44.6 190.3 34.6 188.9 34.6"></polyline><path class="cls-2" d="m203.9,45.1c-3.5,0-5.8-2.2-5.8-5.5s2.4-5.4,5.8-5.4c2.2,0,4,.9,5,2.4l.2.2-1.6.9-.1-.2c-.8-1.1-2-1.6-3.6-1.6-2.3,0-3.8,1.4-3.8,3.7s1.6,3.7,3.8,3.7c1.6,0,2.7-.5,3.6-1.6l.1-.2,1.6.9-.2.2c-1.1,1.6-2.8,2.5-5,2.5"></path><path class="cls-2" d="m207.6,37.4c-.8-1.1-2-1.7-3.8-1.7-2.5,0-4,1.5-4,3.9s1.6,4,4,4c1.8,0,2.9-.6,3.8-1.7l1.2.7c-1,1.5-2.6,2.4-4.9,2.4-3.2,0-5.5-2-5.5-5.2s2.4-5.2,5.5-5.2c2.1,0,3.8.8,4.8,2.3l-1.1.5"></path><polyline class="cls-2" points="216.5 34.4 216.5 44.8 226.1 44.8 226.1 43 218.4 43 218.4 40.4 225 40.4 225 38.6 218.4 38.6 218.4 36.2 225.8 36.2 225.8 34.4 216.5 34.4"></polyline><polyline class="cls-2" points="216.7 34.6 216.7 44.6 225.8 44.6 225.8 43.3 218.2 43.3 218.2 40.1 224.8 40.1 224.8 38.8 218.2 38.8 218.2 35.9 225.5 35.9 225.5 34.6 216.7 34.6"></polyline><path class="cls-1" d="m53.8,12.5c-.3,2.5-2.1,4.3-4,4.1-1.9-.2-3.3-2.4-3-4.9s2.1-4.3,4-4.1,3.2,2.4,3,4.9m-24,3.1c-2.2.1-4.1-2.1-4.3-5s1.4-5.3,3.6-5.4c2.2-.1,4.1,2.1,4.3,5,.1,2.9-1.5,5.3-3.6,5.4m-18.6,3.4c-1.5.1-2.9-1.5-3.1-3.7-.2-2.1.9-4,2.4-4.1s2.9,1.5,3.1,3.7c.2,2.1-.9,3.9-2.4,4.1M57.2.1H4.6C2.1.1,0,2.2,0,4.7v19.2c.1,0,.3-.1.4-.1s.3-.1.4-.1c29.4-9.5,49.2-6.4,60.2-2.5.1,0,.3.1.4.2s.3.1.4.2V4.7c0-2.5-2-4.6-4.6-4.6"></path><path class="cls-1" d="m61,23.9c-2.3-.4-4.7-.7-7-1-.3,3.6-1.3,14.2-1.6,17.1h-1.9c-.2-3.9-.2-7-.6-10.7h-1.8c-.4,1.7-.7,4-1.7,10.7h-1.5c-.1-2.6-.7-14.5-.9-17.7-2.9-.1-5.8-.1-8.6-.1-.4,4.6-1.3,15.5-1.4,17.8h-1.5c-.6-4.4-.8-7.7-1.3-10.9-.6,0-1.2,0-1.8.1-.4,3.4-.5,6.4-1.1,10.8h-1.9c-.2-2.5-1.4-12.9-1.9-17.3-3,.2-5.8.5-8.6.8-.1,3.8-.3,14.5-.3,16.5h-1.5c-.4-2.8-.9-8.8-1.4-10-.3,0-.7,0-1,.1-.3,1-.5,6.5-.6,9.9h-1.2c-.2-2-1.6-12.5-2-15.4-2.5.4-4.9.8-7.1,1.2-.1,0-.3.1-.4.1S.1,26,0,26v14.3C0,42.8,2.1,44.9,4.6,44.9h52.6c2.5,0,4.6-2.1,4.6-4.6v-16.3c-.1,0-.3-.1-.4-.1h-.4"></path><path class="cls-1" d="m95.9,0h-3.4c-.7,0-1.3.6-1.3,1.3v8.7h-14.8V1.3c0-.7-.6-1.3-1.3-1.3h-3.4c-.7,0-1.3.6-1.3,1.3v24c0,.7.6,1.3,1.3,1.3h3.4c.7,0,1.3-.6,1.3-1.3v-9.6h14.7v9.6c0,.7.6,1.3,1.3,1.3h3.4c.7,0,1.3-.6,1.3-1.3V1.3c.1-.7-.5-1.3-1.2-1.3"></path><path class="cls-1" d="m126.7,0h-3.5c-.7,0-1.3.6-1.3,1.3v12.3c0,3.6-1.3,7.9-7.4,7.9-5,0-7.5-2.7-7.5-7.9V1.3c0-.7-.6-1.3-1.3-1.3h-3.4c-.7,0-1.3.6-1.3,1.3v12.3c0,8.4,5.2,13.6,13.5,13.6s13.5-5.2,13.5-13.6V1.3c0-.7-.6-1.3-1.3-1.3"></path><path class="cls-1" d="m165,0h-5.6c-.5,0-.9.3-1.2.7l-9,18.3L139.9.8c-.2-.4-.7-.7-1.2-.7h-5.7c-.7,0-1.3.6-1.3,1.3v24c0,.7.6,1.3,1.3,1.3h3.4c.7,0,1.3-.6,1.3-1.3V9.2l8.5,16.7c.2.4.7.7,1.2.7h3.4c.5,0,.9-.3,1.2-.7l8.3-16.6v16.1c0,.7.6,1.3,1.3,1.3h3.4c.7,0,1.3-.6,1.3-1.3V1.3c0-.7-.6-1.3-1.3-1.3"></path><path class="cls-1" d="m179.5,17l4.8-11.3h1.9l4.7,11.3h-11.4M190.5.8c-.2-.5-.7-.8-1.2-.8h-7.9c-.5,0-1,.3-1.2.8l-10.5,24c-.2.4-.1.9.1,1.2.2.4.6.6,1.1.6h3.7c.5,0,1-.3,1.2-.8l1.4-3.1h16.3l1.4,3.1c.2.5.7.8,1.2.8h3.6c.4,0,.8-.2,1.1-.6.2-.4.3-.8.1-1.2L190.5.8Z"></path><path class="cls-1" d="m230,0h-3.4c-.7,0-1.3.6-1.3,1.3v16.2L210,.5c-.2-.3-.6-.4-1-.4h-3.8c-.7,0-1.3.6-1.3,1.3v24c0,.7.6,1.3,1.3,1.3h3.4c.7,0,1.3-.6,1.3-1.3V9.2l15.3,17c.2.3.6.4,1,.4h3.8c.7,0,1.3-.6,1.3-1.3V1.3c0-.7-.6-1.3-1.3-1.3"></path><path class="cls-1" d="m240.1,0h-3.4c-.7,0-1.3.6-1.3,1.3v24c0,.7.6,1.3,1.3,1.3h3.4c.7,0,1.3-.6,1.3-1.3V1.3c0-.7-.6-1.3-1.3-1.3"></path><path class="cls-1" d="m254.6,17l4.8-11.3h1.9l4.7,11.3h-11.4m21.2,7.8l-10.2-24c-.2-.5-.7-.8-1.2-.8h-7.9c-.5,0-1,.3-1.2.8l-10.5,24c-.2.4-.1.9.1,1.2.2.4.6.6,1.1.6h3.7c.5,0,1-.3,1.2-.8l1.4-3.1h16.3l1.4,3.1c.2.5.7.8,1.2.8h3.6c.4,0,.8-.2,1.1-.6.1-.3.1-.8-.1-1.2"></path></g></svg>