<?xml version="1.0" encoding="UTF-8" standalone="no"?>
<svg
   id="Layer_1"
   data-name="Layer 1"
   viewBox="0 0 347.6 220"
   version="1.1"
   sodipodi:docname="iAFinancialGroup.svg"
   inkscape:version="1.3.2 (091e20e, 2023-11-25)"
   xmlns:inkscape="http://www.inkscape.org/namespaces/inkscape"
   xmlns:sodipodi="http://sodipodi.sourceforge.net/DTD/sodipodi-0.dtd"
   xmlns="http://www.w3.org/2000/svg"
   xmlns:svg="http://www.w3.org/2000/svg">
  <sodipodi:namedview
     id="namedview2"
     pagecolor="#ffffff"
     bordercolor="#000000"
     borderopacity="0.25"
     inkscape:showpageshadow="2"
     inkscape:pageopacity="0.0"
     inkscape:pagecheckerboard="0"
     inkscape:deskcolor="#d1d1d1"
     showgrid="false"
     inkscape:zoom="3.7"
     inkscape:cx="173.91892"
     inkscape:cy="110"
     inkscape:window-width="1920"
     inkscape:window-height="1027"
     inkscape:window-x="0"
     inkscape:window-y="25"
     inkscape:window-maximized="1"
     inkscape:current-layer="Layer_1" />
  <defs
     id="defs1">
    <style
       id="style1">.cls-1{fill:#f3f5f1}.cls-2{fill:none}.cls-3{fill:#003da5}.cls-4{fill:#7c878e}.cls-5{fill:#2f4995}</style>
  </defs>
  <title
     id="title1">iA Financial Group</title>
  <g
     id="layer1">
    <g
       id="g1675">
      <path
         id="polygon1603"
         class="cls-3"
         d="M63.35 134.17l8.28-55.1h15.92l-8.29 55.1H63.35z" />
      <circle
         id="circle1605"
         class="cls-3"
         cx="81.75"
         cy="64.66"
         r="9.71" />
      <path
         id="path1607"
         class="cls-3"
         d="M145.17 134.17h16.33L141 59.84h-14.44l-42.72 74.33h16.43l11.28-19.63h28.19zm-25.5-33.78l10.93-19 5.24 19z"
         transform="translate(.3)" />
      <path
         id="path1609"
         class="cls-4"
         d="M256.43 54.94a14.58 14.58 0 0 1 14.3 17.37l-6.58 44.31a1.62 1.62 0 0 0 0 .44 2.47 2.47 0 0 0 2.46 2.47H269v9.74h-6.84a9.7 9.7 0 0 1-9.75-9.64v-25.9H240a15.71 15.71 0 0 1-1.67-.09 14.92 14.92 0 0 1-13.12-12.89 15.12 15.12 0 0 1 .14-4.65l3.17-21.16z"
         transform="translate(.3)" />
      <path
         id="path1611"
         class="cls-4"
         d="M222.76 59.84h-20.69c-14.66 0-26.73 11.34-28.45 25.77l-7.28 48.54h12.51l5.42-19.63h40.59v19.65h12l5.42-35.56H240a20.64 20.64 0 0 1-2.22-.12 19.76 19.76 0 0 1-17.4-22.65l2.4-16"
         transform="translate(.3)" />
      <path
         id="polygon1613"
         class="cls-4"
         d="M188.26 119.41l-4.09 14.76h12.46l6.16-14.76h-14.53z" />
      <path
         id="path1615"
         class="cls-3"
         d="M63 144.62h14.3v3.75H67.13v4h9v3.75h-9v7.27H63z"
         transform="translate(.3)" />
      <path
         id="path1617"
         class="cls-3"
         d="M79.47 149h4.08v14.4h-4.08z"
         transform="translate(.3)" />
      <path
         id="path1619"
         class="cls-3"
         d="M86.82 149h4.08v2a5.09 5.09 0 0 1 4.2-2.31c3.08 0 4.88 2 4.88 5.34v9.31h-4.07v-8c0-1.93-.9-2.92-2.47-2.92s-2.55 1-2.55 2.92v8h-4.07z"
         transform="translate(.3)" />
      <path
         id="path1621"
         class="cls-3"
         d="M102 156.24v-.06c0-4.8 3.14-7.43 6.55-7.43a5.51 5.51 0 0 1 4.51 2.15V149h4.06v14.4H113v-2.07a5.3 5.3 0 0 1-4.51 2.34c-3.29 0-6.49-2.67-6.49-7.43zm11.08 0v-.06c0-2.39-1.58-4-3.49-4a3.65 3.65 0 0 0-3.52 4v.06a3.67 3.67 0 0 0 3.52 4c1.91-.03 3.49-1.62 3.49-4z"
         transform="translate(.3)" />
      <path
         id="path1623"
         class="cls-3"
         d="M120.11 149h4.07v2a5.09 5.09 0 0 1 4.22-2.31c3.08 0 4.87 2 4.87 5.34v9.31h-4.07v-8c0-1.93-.9-2.92-2.47-2.92s-2.55 1-2.55 2.92v8h-4.07z"
         transform="translate(.3)" />
      <path
         id="path1625"
         class="cls-3"
         d="M135.56 156.29a7.37 7.37 0 0 1 7.26-7.49h.28a7.07 7.07 0 0 1 5.73 2.42l-2.49 2.7a4.21 4.21 0 0 0-3.28-1.57 3.66 3.66 0 0 0-3.49 3.83v.13a3.68 3.68 0 0 0 3.38 4h.23a4.51 4.51 0 0 0 3.35-1.56l2.39 2.42a7.24 7.24 0 0 1-5.88 2.63 7.35 7.35 0 0 1-7.48-7.2z"
         transform="translate(.3)" />
      <path
         id="path1627"
         class="cls-3"
         d="M151.19 149h4.08v14.4h-4.08z"
         transform="translate(.3)" />
      <path
         id="path1629"
         class="cls-3"
         d="M157.57 156.24v-.06c0-4.8 3.14-7.43 6.55-7.43a5.51 5.51 0 0 1 4.51 2.15V149h4.08v14.4h-4.08v-2.07a5.27 5.27 0 0 1-4.51 2.34c-3.35 0-6.55-2.67-6.55-7.43zm11.08 0v-.06c0-2.39-1.58-4-3.49-4a3.65 3.65 0 0 0-3.52 4v.06a3.67 3.67 0 0 0 3.52 4c1.91-.03 3.49-1.62 3.49-4z"
         transform="translate(.3)" />
      <path
         id="path1631"
         class="cls-3"
         d="M175.87 143.82h4.07v19.58h-4.07z"
         transform="translate(.3)" />
      <path
         id="path1633"
         class="cls-3"
         d="M190.3 154.06V154a9.64 9.64 0 0 1 9.56-9.71h.24a10.32 10.32 0 0 1 7.38 2.57l-2.6 3.14a6.91 6.91 0 0 0-4.9-1.9 5.63 5.63 0 0 0-5.41 5.85 5.63 5.63 0 0 0 5.29 5.94h.39a6.64 6.64 0 0 0 3.89-1.12v-2.71H200v-3.61h8.12v8.12a12.2 12.2 0 0 1-8 3 9.26 9.26 0 0 1-9.78-9.56z"
         transform="translate(.3)" />
      <path
         id="path1635"
         class="cls-3"
         d="M211.16 149h4.08v2.9c.83-2 2.17-3.28 4.58-3.17V153h-.21c-2.71 0-4.38 1.63-4.38 5.07v5.31h-4.08z"
         transform="translate(.3)" />
      <path
         id="path1637"
         class="cls-3"
         d="M220.72 156.29a7.78 7.78 0 0 1 15.55-.06v.06a7.78 7.78 0 0 1-15.55 0zm11.53 0a3.81 3.81 0 0 0-3.66-4h-.12a3.68 3.68 0 0 0-3.73 3.63 2.62 2.62 0 0 0 0 .28v.06a3.81 3.81 0 0 0 3.66 4h.12a3.68 3.68 0 0 0 3.73-3.63 2.81 2.81 0 0 0 0-.34z"
         transform="translate(.3)" />
      <path
         id="path1639"
         class="cls-3"
         d="M238.56 158.33V149h4.07v8c0 1.93.91 2.92 2.48 2.92s2.55-1 2.55-2.92v-8h4.07v14.4h-4.07v-2a5.11 5.11 0 0 1-4.21 2.31c-3.1 0-4.89-2.06-4.89-5.36z"
         transform="translate(.3)" />
      <path
         id="path1641"
         class="cls-3"
         d="M254.81 149h4.08v2.07a5.27 5.27 0 0 1 4.51-2.34c3.35 0 6.55 2.63 6.55 7.43v.06c0 4.8-3.14 7.43-6.55 7.43a5.51 5.51 0 0 1-4.51-2.15v6.17h-4.08zm11 7.22v-.06a3.66 3.66 0 0 0-3.51-4c-1.92 0-3.5 1.58-3.5 4v.06c0 2.39 1.58 4 3.5 4s3.53-1.55 3.53-3.98z"
         transform="translate(.3)" />
      <path
         id="path1643"
         class="cls-5"
         d="M153.2 143.39a2.32 2.32 0 1 1-2.34 2.34 2.32 2.32 0 0 1 2.34-2.34z"
         transform="translate(.3)" />
      <path
         id="path1645"
         class="cls-5"
         d="M81.51 143.39a2.32 2.32 0 1 1-2.34 2.34 2.32 2.32 0 0 1 2.34-2.34z"
         transform="translate(.3)" />
    </g>
  </g>
</svg>
