<?xml version="1.0" encoding="UTF-8" standalone="no"?>
<!-- Generator: Adobe Illustrator 22.0.1, SVG Export Plug-In . SVG Version: 6.00 Build 0)  -->

<svg
   version="1.1"
   x="0px"
   y="0px"
   viewBox="0 0 347 220"
   style="enable-background:new 0 0 347 220;"
   xml:space="preserve"
   id="svg9"
   sodipodi:docname="manulife.svg"
   inkscape:version="1.3.2 (091e20e, 2023-11-25)"
   xmlns:inkscape="http://www.inkscape.org/namespaces/inkscape"
   xmlns:sodipodi="http://sodipodi.sourceforge.net/DTD/sodipodi-0.dtd"
   xmlns="http://www.w3.org/2000/svg"
   xmlns:svg="http://www.w3.org/2000/svg"><defs
   id="defs9" /><sodipodi:namedview
   id="namedview9"
   pagecolor="#ffffff"
   bordercolor="#000000"
   borderopacity="0.25"
   inkscape:showpageshadow="2"
   inkscape:pageopacity="0.0"
   inkscape:pagecheckerboard="0"
   inkscape:deskcolor="#d1d1d1"
   showgrid="false"
   inkscape:zoom="3.7"
   inkscape:cx="173.37838"
   inkscape:cy="110"
   inkscape:window-width="1920"
   inkscape:window-height="1027"
   inkscape:window-x="0"
   inkscape:window-y="25"
   inkscape:window-maximized="1"
   inkscape:current-layer="svg9" />
<style
   type="text/css"
   id="style1">
	.st0{fill:#F3F5F1;}
	.st1{fill:#00A758;}
</style>
<g
   id="Layer_1">
	
	<g
   id="g9"
   style="display:inline">
		<g
   id="g8">
			<g
   id="g7">
				<g
   id="g6">
					<g
   id="g3">
						<polygon
   class="st1"
   points="81.2,126.1 81.2,84.6 71.9,93.9 71.9,135.4 "
   id="polygon1" />
						<polygon
   class="st1"
   points="62.8,84.6 53.5,93.9 53.5,135.4 62.8,126.1 "
   id="polygon2" />
						<polygon
   class="st1"
   points="44.3,84.6 35,93.9 35,135.4 44.3,126.1 "
   id="polygon3" />
					</g>
					<g
   id="g5">
						<g
   id="g4">
							<path
   d="m 209.4,101.2 c -3.4,0 -6.5,1.8 -8.6,3.6 v -2.9 h -5.9 v 26.5 h 5.9 v -19.1 c 1.3,-1.3 4.2,-3.1 6.5,-3.1 2.8,0 3.7,2.3 3.7,4.9 v 17.4 h 5.9 v -19.1 c 0,-6.4 -4.2,-8.2 -7.5,-8.2 z m -29.3,0 c -4.7,0 -8.3,1.8 -10.4,4.6 l 3.3,3.9 c 1,-1.6 3.9,-3.7 6.8,-3.7 2.6,0 4.2,1.3 4.2,3.1 0,1.5 -0.8,2.6 -2.9,2.8 l -2.1,0.2 c -5.7,0.7 -11.4,2.9 -11.4,9 0,5 3.9,8 8.5,8 4.1,0 6.4,-2 7.8,-3.6 v 2.9 h 5.9 v -18.6 c -0.1,-5.5 -3.7,-8.6 -9.7,-8.6 z m 3.7,19.5 c -1.5,1.8 -3.7,3.6 -6.5,3.6 -2.3,0 -4.1,-1.5 -4.1,-3.6 0,-2.9 3.1,-4.2 6.5,-4.6 l 4.1,-0.5 h 0.2 z m -38.6,-11 v 0 L 134.3,91.5 h -7 v 37 h 6.5 v -26.1 0 L 145,121 156.2,102.4 h 0.2 v 26.2 h 6.5 V 91.4 h -6.8 z m 92.4,10.9 c -1.6,1.8 -3.7,3.3 -6,3.3 -2.8,0 -4.1,-2.1 -4.1,-5.2 v -16.8 h -5.9 v 18.7 c 0,6.7 4.7,8.5 8.1,8.5 3.4,0 6,-2 7.7,-3.4 v 2.9 h 6 v -26.7 h -5.9 z m 12.2,7.8 h 5.9 V 87.7 l -5.9,5.9 z m 31.6,-26.5 v -5.2 c 0,-2.3 1.5,-3.7 3.4,-3.7 1.1,0 2.4,0.5 3.3,1 l 1.8,-4.6 c -1.3,-0.7 -3.4,-1.3 -6,-1.3 -5.5,0 -8.3,3.9 -8.3,8.3 v 5.5 H 272 v 4.9 h 3.6 v 21.8 h 5.9 v -21.8 h 5.5 l 1.3,-4.9 z m 19.2,22.1 c -3.7,0 -6.8,-3.1 -6.8,-7.3 H 312 c 0.3,-10.9 -4.7,-15.5 -11.7,-15.5 -7.3,0 -12.5,6 -12.5,14 0,8.1 4.7,13.8 12.4,13.8 4.9,0 9,-2.6 11.1,-5.7 l -3.7,-3.4 c -1.3,2.3 -4.2,4.1 -7,4.1 z m -0.3,-18.1 c 3.6,0 5.7,3.1 5.7,6.4 h -11.9 c 0,-3.1 2.8,-6.4 6.2,-6.4 z m -35,-16.1 c -2.1,0 -3.7,1.6 -3.7,3.7 0,2.1 1.8,3.7 3.7,3.7 1.9,0 3.7,-1.8 3.7,-3.7 0,-1.9 -1.8,-3.7 -3.7,-3.7 z m -3.1,38.6 h 6 v -26.5 h -6 z"
   id="path3" />
						</g>
					</g>
				</g>
			</g>
		</g>
	</g>
</g>

</svg>
