<svg id="Layer_1" data-name="Layer 1" xmlns="http://www.w3.org/2000/svg" viewBox="0 0 347.6 220"><defs><style>.cls-1{fill:#f3f5f1;}.cls-2{fill:none;}.cls-3{fill:#df8d3e;}.cls-4{fill:#1b6ba9;}.cls-5{fill:#1c6caa;}.cls-6{fill:#1a6ba9;}.cls-7{fill:#1b6ca9;}</style></defs><title>My Dignity</title><rect class="cls-1" width="347.6" height="220"/><rect class="cls-2" x="98.4" y="89" width="140.79" height="53"/><path class="cls-3" d="M31.65,114.75c-.56-1.22-1-2.32-1.56-3.39a1.06,1.06,0,0,1,.1-1.27A55.07,55.07,0,0,1,37,102.31c2.08-2,4.08-4.07,6.11-6.1a8.7,8.7,0,0,1,4.31-2c1.21-.3,2.19.89,2.27,2.46a22.29,22.29,0,0,1-.92,6.89c-.15.53-.31,1-.46,1.57a.61.61,0,0,0,.14.67.56.56,0,0,0,.75-.07c.35-.28.7-.55,1-.85,2.2-2.07,4.25-4.28,6.3-6.49a33.34,33.34,0,0,1,5-4.62,9.38,9.38,0,0,1,2-1.17c1.87-.75,3.27,0,3.64,2a20,20,0,0,1-.11,5.62,21.37,21.37,0,0,1-1.58,6.24,1.73,1.73,0,0,0-.15.49c0,.42-.31,1,.21,1.2s.73-.32.93-.62c1.65-2.35,4-3.86,6.28-5.54a8.23,8.23,0,0,1,4-1.55,1.68,1.68,0,0,1,1.35.35,10.9,10.9,0,0,1,3.08,3.53A26.9,26.9,0,0,0,84,109.13a9.22,9.22,0,0,0,1,1.15c1.1,1,1.69,1,2.79,0a14.49,14.49,0,0,1,1.81-1.51,38.71,38.71,0,0,0,7.56-6.9,10.41,10.41,0,0,1,2.73-2.3,3.89,3.89,0,0,1,2.38-.44,1.81,1.81,0,0,1,1.74,1.82,11.76,11.76,0,0,1-.74,4.32,42.1,42.1,0,0,0-1.85,6.61c-.08.62-.42,1.39.25,1.8s1.13-.29,1.61-.61a29.4,29.4,0,0,0,5.08-4.16c3.41-3.6,7.26-6.77,10.63-10.43a5,5,0,0,1,4.86-1.24c1,.18,1.29.92,1.14,1.86a40.33,40.33,0,0,1-1.79,6.2c-1.22,3.66-2.84,7.19-4,10.88-.1.31-.49.72,0,1s.62-.16.88-.35a58.91,58.91,0,0,0,6.08-5.52c.57-.54.81-.54,1.09.22a25.45,25.45,0,0,0,1.16,2.62.9.9,0,0,1-.26,1.24,66.69,66.69,0,0,1-5.45,4.18,49.6,49.6,0,0,0-12.62,14.58,69,69,0,0,1-7.58,11.09,20.27,20.27,0,0,1-5.29,4.51,8.37,8.37,0,0,1-4.4,1.18,1.62,1.62,0,0,1-1.72-2.17,5.09,5.09,0,0,1,.89-1.95c1-1.3,1.92-2.62,2.94-3.9,1.55-1.95,2.87-4.11,4.4-6.09,2.57-3.34,5.41-6.45,8.29-9.54a4.76,4.76,0,0,0,1-1.43c.87-2.08,1.7-4.19,2.68-6.22a26.2,26.2,0,0,0,2-7.81c.08-.58.19-1.36-.28-1.64s-.93.38-1.34.71a18.31,18.31,0,0,0-3.2,3,13.12,13.12,0,0,1-2.31,2.34,24,24,0,0,0-4.73,4.11c-1.15,1.46-3,1.81-4.87,1.73-2.1-.09-3.13-1.45-2.72-3.55a2.74,2.74,0,0,0-.11-1.79,1.38,1.38,0,0,1,0-1,6.35,6.35,0,0,0,0-2.94c-.18-.94-.55-1.08-1.31-.49-1.38,1.06-2.71,2.19-4.12,3.22-3.71,2.69-6.17,2.49-9.42-.77-1.23-1.24-2.32-2.61-3.57-3.82-2.19-2.11-3.37-2.11-5.67-.16a43.6,43.6,0,0,0-5.53,6.07,56,56,0,0,1-5,5.57,3.23,3.23,0,0,1-3.06.67c-.76-.14-.89-.79-.91-1.43a10.09,10.09,0,0,1,.72-3.6,53.85,53.85,0,0,0,2.6-11.89c.06-.56.22-1.13-.39-1.46a1.31,1.31,0,0,0-1.59.38c-1.82,1.8-3.92,3.27-5.62,5.24-3,3.52-6.06,7.07-9.4,10.33-.91.88-1.84,1.6-3.27,1.17-1.22-.38-1.53-.74-1.29-2a43.21,43.21,0,0,1,1.68-5.8A31.7,31.7,0,0,0,40,108.4c.06-.45.15-.94-.32-1.2a1.21,1.21,0,0,0-1.26.17A5.62,5.62,0,0,0,37,108.7a53.87,53.87,0,0,1-4,4.37A16,16,0,0,0,31.65,114.75Z" transform="translate(0.3)"/><path class="cls-4" d="M133.32,116.6a2.21,2.21,0,0,1,1.12-.2,2.24,2.24,0,0,0,2.31-2.17,5.83,5.83,0,0,0,.07-1V98.62a7,7,0,0,0-.06-1,2.28,2.28,0,0,0-2.29-2.31c-.36-.05-.76.1-1.07-.2.1-.42.44-.26.66-.26,5.21,0,10.41-.06,15.61,0a17.26,17.26,0,0,1,9.26,2.64,9.85,9.85,0,0,1-1.08,17.69,19.07,19.07,0,0,1-8.28,1.71c-5.13,0-10.27,0-15.4,0C133.92,116.89,133.62,117,133.32,116.6ZM143,105h0c0,2.61,0,5.21,0,7.81,0,1.81.74,2.57,2.53,2.73a18.28,18.28,0,0,0,5.22-.19,7.71,7.71,0,0,0,4.31-2.41c4.14-4.57,2.71-12.64-2.76-15.46a14.56,14.56,0,0,0-8.6-1.3c-.64.07-.76.34-.75.91C143,99.75,143,102.39,143,105Z" transform="translate(0.3)"/><path class="cls-4" d="M210.26,95c.24-.3.6-.14.91-.14,2.68,0,5.35,0,8,0a2.57,2.57,0,0,1,1.83.69q7.54,6.44,15.12,12.82c.21.17.43.33.63.48.32-.17.2-.44.2-.65,0-3,0-6,0-9,0-2.4-.71-3.2-3.11-3.67a1.73,1.73,0,0,1-1-.51h9.7c-.4.49-.84.43-1.22.52A2.74,2.74,0,0,0,238.94,98a13.1,13.1,0,0,0-.1,1.53q0,8.28,0,16.54c0,.35.22.82-.21,1s-.76-.21-1.07-.47L218.94,101l-.71-.59c-.37.23-.2.57-.21.84,0,3.66,0,7.33,0,11,0,2.76.85,3.75,3.55,4.22.13,0,.27,0,.32.19-.61.37-8.88.43-9.86,0,.46-.43,1-.29,1.53-.42,1.83-.51,2.6-1.42,2.61-3.29,0-4.52,0-9,0-13.56a1.31,1.31,0,0,0-.57-1.2,13.94,13.94,0,0,0-5.14-2.9A.24.24,0,0,1,210.26,95Z" transform="translate(0.3)"/><path class="cls-5" d="M203.37,107.17h5.14c.19,0,.46-.1.52.18s-.22.34-.45.41c-1.63.51-2,1-2,2.73,0,1.44,0,2.88,0,4.31a.82.82,0,0,1-.67,1,29.18,29.18,0,0,1-17.28.22,11.26,11.26,0,0,1-6.09-4.49,9.85,9.85,0,0,1,1.88-13.24,16.26,16.26,0,0,1,9.84-3.63,29.05,29.05,0,0,1,7.82.91c.57.12,1.15.2,1.72.27a1.5,1.5,0,0,0,1.58-.74c.11-.2.17-.48.5-.42s.24.44.24.67c0,1.68,0,3.36,0,5,0,.21.11.51-.23.59s-.42-.16-.54-.37c-2.25-4.17-7.8-5.49-12.16-4.44a7,7,0,0,0-5.25,5.14,14.92,14.92,0,0,0-.1,8.8,7.8,7.8,0,0,0,7.2,5.76,12.29,12.29,0,0,0,3.48-.14,2,2,0,0,0,1.86-2.21c0-1.13,0-2.26,0-3.39a2.22,2.22,0,0,0-2-2.32c-.26-.06-.75.06-.68-.39s.52-.19.79-.2C200.09,107.16,201.73,107.17,203.37,107.17Z" transform="translate(0.3)"/><path class="cls-6" d="M303.73,94.93h10.56c-.31.48-.7.37-1,.41a8.11,8.11,0,0,0-4.77,2.39c-2.17,2.19-4,4.68-6,7a1.39,1.39,0,0,0-.24,1.06c0,2.53,0,5.07,0,7.6,0,2.14.64,2.82,2.74,3,.21,0,.5-.09.61.34h-13c.32-.46.66-.32.93-.34,1.72-.17,2.5-.89,2.55-2.61.06-2.36,0-4.72,0-7.08a1.38,1.38,0,0,0-.48-1c-2.63-2.78-5.27-5.56-7.89-8.36a5.55,5.55,0,0,0-3.92-2.16c-.07,0-.14-.12-.34-.3H297.2c-.22.5-.66.34-1,.39-1.5.29-1.75.85-.77,2.06s2.09,2.44,3.15,3.65c.67.78,1.37,1.53,2,2.32.33.4.54.39.87,0,1.3-1.59,2.63-3.16,3.93-4.74a3.9,3.9,0,0,0,.53-.87c.6-1.3.19-2.08-1.22-2.4A1.42,1.42,0,0,1,303.73,94.93Z" transform="translate(0.3)"/><path class="cls-7" d="M276.5,116.78h-13c.23-.5.59-.34.86-.36,1.84-.17,2.59-1,2.6-2.88,0-4.07,0-8.14,0-12.21,0-1.44,0-2.88,0-4.32,0-.65-.21-.8-.82-.79-1.4,0-2.81.06-4.21,0-1.83-.07-2.81.94-3.47,2.5-.15.36-.14,1.09-.68,1s-.25-.8-.26-1.22c0-1.09.06-2.19.07-3.28,0-.46.11-.69.66-.63,4.26.53,8.54.15,12.81.24,2.77.06,5.55,0,8.32,0,.37,0,.75,0,1.13,0,1.83-.18,1.83-.19,1.93,1.69,0,.93.07,1.85.1,2.77,0,.19.06.44-.23.48s-.34-.14-.38-.36a7.1,7.1,0,0,0-.22-.79,2.86,2.86,0,0,0-2.9-2.3c-1.71-.07-3.43,0-5.14,0-.77,0-.58.49-.58.9,0,4.38,0,8.76,0,13.14,0,1.1,0,2.19,0,3.29,0,2,.7,2.66,2.7,2.86C276,116.44,276.28,116.33,276.5,116.78Z" transform="translate(0.3)"/><path class="cls-7" d="M243.05,116.55c.78-.1,1.27-.14,1.76-.23a2.08,2.08,0,0,0,1.83-1.92,9.91,9.91,0,0,0,.09-1.33c0-4.76,0-9.51,0-14.27,0-2.66-.49-3.22-3.12-3.57-.09,0-.17-.08-.26-.28h13c-.45.46-.92.31-1.31.39-1.5.31-2.07.89-2.14,2.42-.06,1.13,0,2.26,0,3.39q0,6.06,0,12.11c0,2.33.51,2.88,2.81,3.16.18,0,.46-.07.5.21s-.24.26-.43.26H243.58C243.5,116.88,243.42,116.78,243.05,116.55Z" transform="translate(0.3)"/><path class="cls-7" d="M165.9,94.89h12.94c-.22.51-.61.35-.89.4-1.86.27-2.5.89-2.51,2.74q0,7.84,0,15.71c0,1.76.79,2.52,2.55,2.68a5.36,5.36,0,0,1,.7.1s.06.11.12.25h-13c.33-.5.71-.32,1-.36a2.34,2.34,0,0,0,2.45-2.38,7,7,0,0,0,.05-.92V98.94a13.1,13.1,0,0,0-.1-1.53,2.16,2.16,0,0,0-1.79-2c-.51-.12-1-.21-1.53-.31Z" transform="translate(0.3)"/></svg>