<svg fill="none" id="a" height="62" viewBox="0 0 347.6 220" width="106" xmlns="http://www.w3.org/2000/svg" xmlns:xlink="http://www.w3.org/1999/xlink" ><defs><style>.cls-4{fill:none;stroke:#000;stroke-width:1px;}.cls-5{fill:#ffdf02;}.cls-6{fill:#ffdf02;}</style></defs><title>RBC</title><path class="cls-4" d="M108.15,138.79c0,3.08-1.26,4.87-3.72,5.81a92.52,92.52,0,0,1-63.4,0c-2.46-.94-3.72-2.73-3.72-5.81V57.08h70.84Z" transform="translate(0.3)"/><path class="cls-5" d="M56.31,106.87C46.5,100.75,43.26,98,43,94a9.56,9.56,0,0,1,.48-3.17l-.93-.62a8.25,8.25,0,0,0-1.21,4.16A9.79,9.79,0,0,0,43,99.87c1.38,2.12,2.83,3.45,6.4,6.13a24.31,24.31,0,0,1,8,9.79h.55v-4c5.2,3,9.78,5.73,12,10.69h.54c-.88-5.14-3.79-9.1-14.19-15.6M85.1,93.48a11.53,11.53,0,0,0-4.95,4.15l4.38-.23a28.58,28.58,0,0,1,.57-3.92Zm15.8,15.65a10.24,10.24,0,0,0,.8-3.4l-6.41-.36A22.08,22.08,0,0,1,94,110ZM94,93.24A26,26,0,0,1,95,96.82l3.77-.21A12.19,12.19,0,0,0,94,93.24ZM92.25,97a21.62,21.62,0,0,0-1.81-4.5c-.26,0-.52,0-.78,0a10.87,10.87,0,0,0-1.29.1,39.42,39.42,0,0,0-1.55,4.72Zm3.15,2a22.2,22.2,0,0,1,.11,4.5l6.17-.33a12.09,12.09,0,0,0-1.16-3.94Zm-2.1,4.62a27.9,27.9,0,0,0-.57-4.74l-6.23-.29a41.39,41.39,0,0,0-.84,5.43Zm1-13.32.73-1-1.13-1.51.18-.33,3.18,1.71-.69,2.1a14.23,14.23,0,0,1,1.61,1l2-3.38-5.31-2.77H83.14L73.61,91.8a25.15,25.15,0,0,1,4.6,3.94A14.32,14.32,0,0,1,89.7,89.65,14.83,14.83,0,0,1,94.26,90.29ZM70.76,90,76,86.81A7.86,7.86,0,0,0,72.49,86c-1.81,0-4.87.81-6.35,1,.66.46,3,2,4.62,3Zm1.08-11.88c-1.87-.41-2.91-.18-4,.85a3.83,3.83,0,0,0,1.91.33A2.82,2.82,0,0,0,71.84,78.08Zm29.65,44.4h-.67c0-3.66-3.35-4.66-6.87-4.66H83a18.43,18.43,0,0,1,.24,5.91h-.54c-1-8.22-5.67-12.3-12.17-16.66v3.75H70c-1.73-3.86-5.53-7.49-9.12-10.06l-2.92-2.09v4h-.55c-1.52-4-4.29-7-8.23-10.55-4.26-3.83-6-6.13-7-8.77a12.48,12.48,0,0,1-.79-4.64c0-3.14,1.55-6,3.52-7v1.52a7.68,7.68,0,0,0-1.49,4.62,10.36,10.36,0,0,0,1.13,4.71C46.93,87.13,55,92.73,60.14,96.17c16,10.7,19.14,12.57,21.79,18.25a13.87,13.87,0,0,1,.83,2.47c2.31-.36,10.67-1.63,12.21-1.88.29,0,.91-.12,1.23-.14a12,12,0,0,0,3.55-3.52l-6.11-.47a18.55,18.55,0,0,1-.91,1.76h-.5c.17-.62.32-1.23.44-1.84l-1.56-.11v-.33l1.69-.21a30.23,30.23,0,0,0,.51-4.9l-7.7-.43c0,.78,0,1.53,0,2.22h-.5q-.24-1.16-.39-2.28L83,104.67v-.52l1.61-.09a35.72,35.72,0,0,1-.16-5.57L80,98.28a10.09,10.09,0,0,1,.59,1.24,14.72,14.72,0,0,1,.41,7.36h-.54a16.5,16.5,0,0,0-1.19-5c-1.25-2.93-4-5.53-8.73-8.54v3.76H70c-1.56-4.94-5.44-7.68-11.21-10.64C54,84,52.52,81,52.79,76.48l1.6,1a7.1,7.1,0,0,0,7.11,6.7,31,31,0,0,0,5.74-.65c2.63-.54,5.07-1,7.11-.27V80.7h-1.6a5.43,5.43,0,0,1-3.44,1.09c-1.88,0-5.43-1.05-5.43-5,0-3.45,2.92-4,5.29-4,1.27,0,3.39,0,4.1-.09a1.76,1.76,0,0,0,1.19-.37,1.44,1.44,0,0,0,.41-.89,8.75,8.75,0,0,0,.08-1.6V67.31h-11v4.36l-4.17-1.58V69h2V67.31H54.35V63.69H51.81a3,3,0,0,0-3,2.79c-.11,1.76.68,3.24,2.5,3.24h.32v2.11h-.32a5.44,5.44,0,0,1-5.58-5.55,6,6,0,0,1,6.22-5.82H57.3v3.62H78.17v5.35c0,.9,0,2.11-.13,2.88a3.27,3.27,0,0,1-1.32,2.36,5.14,5.14,0,0,1-3.15.69c-1.26,0-2.51,0-3.76-.13-2.38-.15-3.06.76-3.15,1.62a2.26,2.26,0,0,0,0,.52,4.83,4.83,0,0,1,4.48-.91c3.15,1,4,1.08,5.69-.21l.17.37a4.15,4.15,0,0,1-1,1h1.52v8.24L82.3,83H95.6l6.54,3.42a2.15,2.15,0,0,1,1.27,1.71,3.13,3.13,0,0,1-.38,2l-2.52,4.16a14.3,14.3,0,0,1-1.65,20.9,7.3,7.3,0,0,1,3.91,2.9l-1.28,4.39" transform="translate(0.3)"/><path class="cls-6" d="M73.15,140.16H70.63V133H73c3.3,0,4.57,1,4.57,3.46,0,2.67-1.66,3.75-4.45,3.75ZM73,125.87c2,0,3.34.43,3.34,2.56s-1.81,2.9-3.88,2.9H70.63v-5.46Zm4,6.07a4,4,0,0,0,3.49-3.78c0-1.89-.8-4-6.38-4H64.66v.15a2.8,2.8,0,0,1,1,.61,3.84,3.84,0,0,1,.88,2.79v14.09h7.8c4.29,0,7.39-1.63,7.39-5.38,0-3-2.37-4.35-4.8-4.51m-26.49-6.07h2.75c2.28,0,3.48.67,3.48,3.1,0,2.16-1.56,3.45-4.07,3.45H50.47Zm7.25,16H62.8l-6.49-8.3c2.6-.69,4.55-2.12,4.55-4.7,0-3-1.82-4.64-6.57-4.64H44.47v.15a3,3,0,0,1,1,.62,4.16,4.16,0,0,1,.89,3.11v13.76h4.08V134H52l5.75,7.82M98.25,126.6A3.24,3.24,0,0,1,99.67,128a.22.22,0,0,0,.17,0l.89-3s-1.59-1.14-5.38-1.14c-5.74,0-10,2.89-10,9.21,0,7.13,5.11,9,9.62,9,4.2,0,5.85-1.33,5.85-1.33V138.7a7.08,7.08,0,0,1-4.66,1.38c-2.63,0-6.48-1.19-6.56-7.05-.08-5.41,2.28-7.17,5.44-7.17a6.11,6.11,0,0,1,3.24.74M113.33,144h.33a1.09,1.09,0,0,0,.76-.17.69.69,0,0,0,.18-.5.57.57,0,0,0-.35-.6,2.1,2.1,0,0,0-.56-.08h-.36Zm.87-2.14a1.38,1.38,0,0,1,1.47,1.45,1.27,1.27,0,0,1-1.11,1.37,1.29,1.29,0,0,1,.2.21c.28.36,1.19,1.93,1.19,1.93h-1.18c-.19-.33-.27-.46-.46-.82-.49-.89-.65-1.13-.82-1.21a.38.38,0,0,0-.16,0v2.07h-1v-5Zm-.29-1a3.56,3.56,0,1,0,3.4,3.55A3.46,3.46,0,0,0,113.91,140.81Zm0,8a4.4,4.4,0,0,1-4.41-4.41v0a4.41,4.41,0,1,1,4.43,4.43h0M143.58,57v93.05h2.21V57h-2.21M163.5,87V63.85h4.87V87H163.5m18.95,0V75.92c0-1.93-.33-2.5-1.5-2.5a5.24,5.24,0,0,0-3.1,1.53V87h-4.46V74.65a12.36,12.36,0,0,0-.6-4l4-1.13a4.35,4.35,0,0,1,.63,2.13,22,22,0,0,1,2-1.26,7,7,0,0,1,3.07-.74,4.24,4.24,0,0,1,4.1,2.47,7,7,0,0,1,.34,2.44V87h-4.41m14.64.54a15.18,15.18,0,0,1-6.9-2l1.6-3.26a12.5,12.5,0,0,0,5.67,1.93,2.08,2.08,0,0,0,2.26-1.93c0-1.17-.83-1.77-2.63-2.1l-2-.37A6,6,0,0,1,192,78.12a5.08,5.08,0,0,1-1-3.06c0-3.34,2.63-5.57,6.6-5.57a12.74,12.74,0,0,1,6.1,1.6l-1.46,3A9,9,0,0,0,198,72.86c-1.3,0-2.16.66-2.16,1.66s.57,1.34,2.13,1.74l2.07.53a5.33,5.33,0,0,1,3.4,1.93,4.55,4.55,0,0,1,.93,2.91c0,3.53-2.93,5.93-7.3,5.93m22-.07a3.86,3.86,0,0,1-1.33-1.66,6.4,6.4,0,0,1-4.5,1.63c-2.4,0-4.47-1.13-5-2.77a10.38,10.38,0,0,1-.36-3.4V70.35l4.4-.83v11a6.78,6.78,0,0,0,.36,2.8,1.79,1.79,0,0,0,1.57.8A3.31,3.31,0,0,0,217,82.46v-12l4.27-.89v13a4.92,4.92,0,0,0,1,3.1l-3.17,1.8m15.56-13.63a2.5,2.5,0,0,0-1.3-.34A3.58,3.58,0,0,0,230.61,75V87h-4.46V75.62a15.35,15.35,0,0,0-.64-5l4-1.06a5.6,5.6,0,0,1,.71,2.43,5.21,5.21,0,0,1,4-2.43,3.42,3.42,0,0,1,1.66.36l-1.23,3.94m11.72,5.7c-3.1,0-4.17.57-4.17,2.6a2,2,0,0,0,2,2.23,3.21,3.21,0,0,0,2.33-1.16l.07-3.67Zm3.81,8.33a4.74,4.74,0,0,1-2.4-2.06,9.77,9.77,0,0,1-1,.89,5.81,5.81,0,0,1-3.43.94c-3.8,0-5.87-1.93-5.87-5.34,0-4,2.76-5.86,8.2-5.86.33,0,.63,0,1,0v-.7c0-1.9-.37-2.53-2-2.53a9.35,9.35,0,0,0-4.93,1.93L237.8,72a16.6,16.6,0,0,1,2.77-1.4,11.57,11.57,0,0,1,4.67-1c2.86,0,4.83,1.07,5.5,3a7.83,7.83,0,0,1,.3,3.07l-.1,5.73c0,1.87.1,2.67,1.6,3.8l-2.36,2.73M264.92,87V75.92c0-1.93-.34-2.5-1.5-2.5a5.21,5.21,0,0,0-3.1,1.53V87h-4.47V74.65a12.36,12.36,0,0,0-.6-4l4-1.13a4.27,4.27,0,0,1,.64,2.13,20.67,20.67,0,0,1,2-1.26,6.93,6.93,0,0,1,3.06-.74,4.24,4.24,0,0,1,4.1,2.47,6.73,6.73,0,0,1,.34,2.44V87h-4.4m19.89-.66a8,8,0,0,1-4.16,1.06c-4.71,0-7.44-3.26-7.44-8.79,0-3.94,1.5-6.54,3.5-7.91a8.16,8.16,0,0,1,4.23-1.26,7.32,7.32,0,0,1,3.31.76,7.55,7.55,0,0,1,1.66,1.2l-2.16,2.94A4.29,4.29,0,0,0,281,73c-2,0-2.9,1.74-2.9,5.74,0,2.23.3,3.57.87,4.3a2.6,2.6,0,0,0,2,1,4.56,4.56,0,0,0,3.07-1.41l.26-.23,2,2.7a7.16,7.16,0,0,1-1.57,1.27m13.47-9.94a4.46,4.46,0,0,0-.53-2.56,2.17,2.17,0,0,0-2-1c-1.7,0-2.66,1.33-2.66,3.7v.06h5.17ZM293,79.89V80c0,2.64,1.3,4.14,3.6,4.14a6.67,6.67,0,0,0,4.33-1.7l1.74,2.67a9.79,9.79,0,0,1-6.44,2.36c-4.89,0-8.07-3.46-8.07-8.83,0-3.07.64-5.1,2.14-6.77a6.7,6.7,0,0,1,5.37-2.3,7,7,0,0,1,4.93,1.8c1.57,1.6,2.27,3.9,2.27,7.47v1H293" transform="translate(0.3)"/></svg>