<?xml version="1.0" encoding="UTF-8" standalone="no"?>
<svg
   id="Layer_1"
   data-name="Layer 1"
   viewBox="0 0 347.6 220"
   version="1.1"
   sodipodi:docname="spi.svg"
   inkscape:version="1.3.2 (091e20e, 2023-11-25)"
   xmlns:inkscape="http://www.inkscape.org/namespaces/inkscape"
   xmlns:sodipodi="http://sodipodi.sourceforge.net/DTD/sodipodi-0.dtd"
   xmlns="http://www.w3.org/2000/svg"
   xmlns:svg="http://www.w3.org/2000/svg">
  <sodipodi:namedview
     id="namedview7"
     pagecolor="#ffffff"
     bordercolor="#000000"
     borderopacity="0.25"
     inkscape:showpageshadow="2"
     inkscape:pageopacity="0.0"
     inkscape:pagecheckerboard="0"
     inkscape:deskcolor="#d1d1d1"
     showgrid="false"
     inkscape:zoom="3.7"
     inkscape:cx="173.91892"
     inkscape:cy="110"
     inkscape:window-width="1920"
     inkscape:window-height="1027"
     inkscape:window-x="0"
     inkscape:window-y="25"
     inkscape:window-maximized="1"
     inkscape:current-layer="Layer_1" />
  <defs
     id="defs1">
    <style
       id="style1">.cls-1{fill:#f3f5f1;}.cls-2{fill:none;}.cls-3,.cls-6{fill:#169cbe;}.cls-3,.cls-5{fill-rule:evenodd;}.cls-4,.cls-5{fill:#bb0036;}</style>
  </defs>
  <title
     id="title1">SPI ENGLSIH</title>
  <g
     id="s"
     style="display:inline">
    <path
       class="cls-3"
       d="m 24.62,129.7 a 12.73,12.73 0 0 0 2.17,1.43 c 7.74,-2.1 18.16,-3.47 29.75,-3.72 a 14,14 0 0 0 2.86,-9 10.63,10.63 0 0 0 -3.19,-8.09 q -3.36,-2.86 -11.93,-5.06 c -0.2,0 -2.31,-0.44 -3.19,-0.67 q -8.75,-1.84 -8.74,-4.55 a 3.39,3.39 0 0 1 1.51,-3 10,10 0 0 1 5,-1 9.08,9.08 0 0 1 5.55,1.51 l 1.34,1.35 a 5.35,5.35 0 0 0 4.88,2.87 h 7.22 A 14.8,14.8 0 0 0 52.64,90.82 q -5.2,-3.89 -14,-3.88 -8.05,0 -13.1,3.88 a 13.41,13.41 0 0 0 -4.88,10.61 10.38,10.38 0 0 0 3.36,8.09 q 3,3 11.94,5.22 a 31.88,31.88 0 0 0 4.53,1 q 7.06,1.52 7.06,4.55 a 3.57,3.57 0 0 1 -2,3.2 10.75,10.75 0 0 1 -5.21,1.18 11.86,11.86 0 0 1 -6.65,-1.67 6.19,6.19 0 0 1 -2.52,-5 H 19.74 v 0.51 q 0,7.32 4.88,11.19 z"
       transform="translate(0.3)"
       id="path2" />
  </g>
  <g
     id="i_copy"
     data-name="i copy"
     style="display:inline">
    <path
       class="cls-3"
       d="M 96.06,131.84 V 108 a 5.45,5.45 0 0 0 -1.72,-4 5.69,5.69 0 0 0 -4.12,-1.68 H 84 v 26.8 a 84.25,84.25 0 0 1 12.06,2.72 z"
       transform="translate(0.3)"
       id="path3" />
  </g>
  <g
     id="Ellipse_2"
     data-name="Ellipse 2"
     style="display:inline">
    <circle
       class="cls-4"
       cx="90.339996"
       cy="93.5"
       r="6.0300002"
       id="circle3" />
  </g>
  <g
     id="l"
     style="display:inline">
    <path
       class="cls-3"
       d="m 71.62,89.4 a 5.68,5.68 0 0 0 -4,-1.6 h -6.08 v 36.54 H 73.3 v -31 A 5.26,5.26 0 0 0 71.62,89.4 Z"
       transform="translate(0.3)"
       id="path4" />
  </g>
  <g
     id="l_copy"
     data-name="l copy"
     style="display:inline">
    <path
       class="cls-3"
       d="m 81.73,128.78 v -1.06 a 5.93,5.93 0 0 0 -1.56,-4.12 5,5 0 0 0 -3.87,-1.72 l -14.72,0.05 -0.06,5.45 a 157.2,157.2 0 0 1 20.21,1.4 z"
       transform="translate(0.3)"
       id="path5" />
  </g>
  <g
     id="Ellipse_1"
     data-name="Ellipse 1"
     style="display:inline">
    <path
       class="cls-5"
       d="m 20.38,136.09 c 8.76,-2 23,-3.31 39,-3.31 17.54,0 32.88,1.56 41.31,3.89 -7.73,-4 -23.07,-6.77 -40.74,-6.77 -16.82,0 -31.52,2.48 -39.57,6.19 z"
       transform="translate(0.3)"
       id="path6" />
  </g>
  <g
     id="Specialty_Life_insurance"
     data-name="Specialty Life insurance"
     style="display:inline">
    <path
       class="cls-3"
       d="m 131.68,102.29 c 0,-7.2 -10.83,-4.86 -10.83,-9.23 0,-1.34 1.29,-2.08 3.28,-2.08 a 12,12 0 0 1 5.87,1.86 l 1.41,-3 a 13.22,13.22 0 0 0 -7,-2 c -4.36,0 -7.32,2.14 -7.32,5.57 0,7.11 10.86,4.63 10.86,9.08 0,1.54 -1.41,2.43 -3.77,2.43 a 10.65,10.65 0 0 1 -6.8,-2.91 l -1.46,2.91 a 12.35,12.35 0 0 0 8.21,3.17 c 4.39,-0.03 7.55,-2.23 7.55,-5.8 z M 142.21,88 h -8 v 20 h 3.38 v -6 h 4.63 c 5,0 7.95,-2.63 7.95,-7.14 C 150.16,90.44 147.26,88 142.21,88 Z m -0.15,10.94 h -4.48 V 91 h 4.48 c 3.1,0 4.86,1.26 4.86,3.88 0,2.62 -1.76,4.01 -4.86,4.01 z m 24.72,6 h -11.32 v -5.53 h 9.82 v -3 h -9.82 V 91 h 11 v -3 h -14.38 v 20 h 14.7 z m 11.47,3.17 A 11.45,11.45 0 0 0 186,104.8 l -2,-2.22 a 8.36,8.36 0 0 1 -5.6,2.37 7.045,7.045 0 1 1 0,-14.09 7.87,7.87 0 0 1 5.6,2.55 L 186,91 a 11.12,11.12 0 0 0 -7.63,-3.08 c -6,0 -10.57,4.37 -10.57,10 a 10.17,10.17 0 0 0 10.45,10.17 z M 191.42,88 H 188 v 20 h 3.39 z m 18.75,20 h 3.62 L 205,88 h -3.47 l -8.88,20 h 3.54 l 1.92,-4.52 h 10.13 z m -10.8,-7.52 3.79,-8.88 3.79,8.88 z m 27.73,4.46 h -8.7 V 88 H 215 v 20 h 12.1 z m 25.22,3.06 v -6.66 L 259.7,88 h -3.44 l -5.63,9.74 -5.74,-9.74 h -18.37 v 3 h 6.34 v 17 h 3.39 V 91 h 6.38 v -1 l 6.37,11.4 v 6.6 z m 27.87,-3.06 h -8.7 V 88 h -3.39 v 20 h 12.09 z M 285.38,88 H 282 v 20 h 3.39 z m 7.23,11.8 h 9.13 v -3 h -9.13 V 91 h 10.08 v -3 h -13.46 v 20 h 3.38 z m 26.39,5.12 h -11.32 v -5.51 h 9.82 v -3 h -9.82 V 91 h 11 v -3 h -14.39 v 20 H 319 Z m -201.1,31.42 h 4.29 V 111 h -4.29 z m 27,-7.13 L 131.26,111 H 127 v 25.32 h 4.29 v -18.14 l 13.57,18.16 h 4.21 V 111 h -4.17 z m 13,-11.72 c 0,-1.7 1.64,-2.64 4.15,-2.64 a 15.28,15.28 0 0 1 7.45,2.35 l 1.78,-3.76 a 16.64,16.64 0 0 0 -8.9,-2.6 c -5.53,0 -9.28,2.71 -9.28,7 0,9 13.75,5.86 13.75,11.5 0,2 -1.78,3.08 -4.76,3.08 a 13.45,13.45 0 0 1 -8.62,-3.69 l -1.86,3.69 a 15.69,15.69 0 0 0 10.4,4 c 5.6,0 9.6,-2.78 9.6,-7.3 0.02,-9.06 -13.73,-6.12 -13.73,-11.63 z m 34.23,8.36 c 0,4.3 -2.58,6.84 -6.72,6.84 -4.14,0 -6.84,-2.57 -6.84,-6.84 V 111 h -4.29 v 14.83 c 0,6.62 4.22,10.67 11.09,10.67 6.87,0 11.05,-4.05 11.05,-10.67 V 111 h -4.29 z m 29.17,-6.19 c 0,-5.5 -3.74,-8.64 -10.25,-8.64 H 200.7 v 25.32 h 4.3 v -7.63 h 6 a 10.86,10.86 0 0 0 1.16,0 l 4.66,7.67 h 4.87 L 216,127.87 c 3.39,-1.3 5.28,-4.16 5.28,-8.21 z m -10.3,5.21 h -6 v -10 h 6 c 3.93,0 6.18,1.59 6.18,4.92 0,3.33 -2.18,5.08 -6.18,5.08 z m 22,-13.85 -11.23,25.32 h 4.47 l 2.44,-5.72 h 12.83 l 2.44,5.72 h 4.58 L 237.47,111 Z m -2.72,15.81 4.8,-11.25 4.8,11.25 z M 268,129.21 254.36,111 h -4.22 v 25.32 h 4.29 V 118.18 L 268,136.34 h 4.22 V 111 H 268 Z m 20.44,3.33 a 8.92,8.92 0 1 1 0,-17.83 10,10 0 0 1 7.09,3.22 l 2.51,-3.11 a 14.05,14.05 0 0 0 -9.67,-3.91 c -7.53,0 -13.38,5.53 -13.38,12.73 a 12.87,12.87 0 0 0 13.24,12.88 14.5,14.5 0 0 0 9.85,-4.16 l -2.55,-2.82 a 10.55,10.55 0 0 1 -7.1,3 z m 16.45,0 v -7 h 12.43 v -3.8 h -12.44 v -6.87 h 13.89 V 111 h -18.18 v 25.32 h 18.62 v -3.82 z"
       transform="translate(0.3)"
       id="path7" />
  </g>
  <g
     id="Shape_1"
     data-name="Shape 1"
     style="display:inline">
    <rect
       class="cls-6"
       x="106.93"
       y="87.5"
       width="0.82999998"
       height="48.790001"
       id="rect7" />
  </g>
</svg>
