<?xml version="1.0" encoding="UTF-8" standalone="no"?>
<svg
   width="2500"
   height="2500"
   viewBox="0 0 192.756 192.756"
   version="1.1"
   id="svg8"
   sodipodi:docname="sunlife.svg"
   inkscape:version="1.3.2 (091e20e, 2023-11-25)"
   xmlns:inkscape="http://www.inkscape.org/namespaces/inkscape"
   xmlns:sodipodi="http://sodipodi.sourceforge.net/DTD/sodipodi-0.dtd"
   xmlns="http://www.w3.org/2000/svg"
   xmlns:svg="http://www.w3.org/2000/svg">
  <defs
     id="defs8" />
  <sodipodi:namedview
     id="namedview8"
     pagecolor="#ffffff"
     bordercolor="#000000"
     borderopacity="0.25"
     inkscape:showpageshadow="2"
     inkscape:pageopacity="0.0"
     inkscape:pagecheckerboard="0"
     inkscape:deskcolor="#d1d1d1"
     showgrid="false"
     inkscape:zoom="0.3256"
     inkscape:cx="1248.4644"
     inkscape:cy="1250"
     inkscape:window-width="1920"
     inkscape:window-height="1027"
     inkscape:window-x="0"
     inkscape:window-y="25"
     inkscape:window-maximized="1"
     inkscape:current-layer="svg8" />
  <g
     fill-rule="evenodd"
     clip-rule="evenodd"
     id="g8"
     style="display:inline">
    <path
       d="m 25.072,94.071 c -0.344,-1.102 -0.758,-3.375 -3.306,-3.375 -1.308,0 -2.341,0.827 -2.341,2.273 0,3.374 7.506,3.236 7.506,7.988 0,3.167 -3.03,4.338 -5.784,4.338 -2.066,0 -3.374,-0.482 -4.132,-0.896 -0.62,-1.377 -0.758,-2.41 -0.758,-4.2 l 1.171,-0.207 c 0.345,1.378 1.102,4.477 4.062,4.477 1.515,0 2.479,-1.033 2.479,-2.479 0,-3.856 -7.231,-3.512 -7.231,-8.125 0,-2.823 2.135,-3.994 5.234,-3.994 1.79,0 2.754,0.344 3.649,0.826 0.207,1.102 0.275,2.273 0.275,3.375 h -0.824 z m 11.913,10.054 c -0.688,0.482 -1.859,1.171 -3.649,1.171 -3.581,0 -3.719,-1.997 -3.719,-4.477 v -3.236 c 0,-0.826 0,-1.859 -0.689,-1.859 -0.413,0 -0.757,0.138 -0.826,0.207 v -0.688 c 1.722,-0.551 3.099,-0.689 4.27,-0.758 v 6.197 c 0,1.791 0.344,3.306 2.686,3.306 0.895,0 1.446,-0.413 1.721,-0.551 v -5.854 c 0,-0.826 0,-1.859 -0.688,-1.859 -0.344,0 -0.619,0.138 -0.757,0.207 v -0.688 c 1.791,-0.551 3.03,-0.689 4.338,-0.758 v 6.68 c 0,1.859 0,2.686 0.758,2.686 0.137,0 0.413,0.069 0.688,0 v 0.551 c -1.102,0.413 -2.342,0.688 -3.512,0.896 z m 7.093,-6.542 c 0,-0.826 0,-1.859 -0.757,-1.859 -0.344,0 -0.689,0.138 -0.758,0.207 v -0.688 c 1.722,-0.551 3.03,-0.689 4.201,-0.758 v 1.239 c 0.62,-0.481 1.722,-1.239 3.787,-1.239 2.135,0 3.512,0.964 3.512,3.925 v 4.477 c 0,1.102 0.138,1.377 0.964,1.446 l 0.482,0.068 v 0.551 H 49.794 V 104.4 l 0.482,-0.068 c 0.826,-0.069 0.964,-0.345 0.964,-1.446 v -3.168 c 0,-1.79 0,-3.994 -2.41,-3.994 -0.964,0 -1.583,0.482 -1.997,0.827 v 6.335 c 0,1.102 0.138,1.377 0.964,1.446 l 0.551,0.068 v 0.551 H 42.632 V 104.4 l 0.482,-0.068 c 0.826,-0.069 0.964,-0.345 0.964,-1.446 z m 37.254,28.027 0.482,-0.139 c 1.171,-0.138 1.171,-0.138 1.171,-2.616 v -8.194 c 0,-2.342 0,-2.41 -1.102,-2.617 l -0.551,-0.068 v -0.551 h 10.812 c 0.206,1.102 0.275,2.41 0.275,3.58 l -0.826,0.069 c -0.551,-2.066 -0.689,-2.823 -3.719,-2.823 h -1.859 v 6.197 h 1.859 c 1.859,0 2.272,0 2.479,-0.896 l 0.138,-0.895 h 0.62 v 4.545 h -0.62 l -0.138,-0.827 c -0.207,-0.895 -0.757,-0.895 -2.479,-0.895 h -1.859 v 3.374 c 0,2.41 0,2.479 1.171,2.616 l 0.482,0.139 v 0.551 h -6.335 v -0.55 z m 12.464,0 0.482,-0.069 c 0.826,-0.138 0.964,-0.345 0.964,-1.515 v -5.303 c 0,-0.758 0,-1.79 -0.688,-1.79 -0.344,0 -0.62,0.138 -0.757,0.138 v -0.62 c 1.79,-0.619 3.03,-0.757 4.269,-0.826 v 8.401 c 0,1.17 0.139,1.377 1.033,1.515 l 0.414,0.069 v 0.551 h -5.716 v -0.551 z m 1.101,-13.428 c 0,-0.826 0.688,-1.515 1.653,-1.515 0.895,0 1.653,0.688 1.653,1.515 0,0.964 -0.758,1.584 -1.653,1.584 -0.964,0 -1.653,-0.62 -1.653,-1.584 z m 7.712,6.542 c 0,-0.758 0,-1.79 -0.756,-1.79 -0.346,0 -0.689,0.138 -0.758,0.138 v -0.62 c 1.721,-0.619 3.029,-0.757 4.199,-0.826 v 1.309 c 0.621,-0.482 1.723,-1.309 3.789,-1.309 2.064,0 3.512,0.964 3.512,3.994 v 4.407 c 0,1.17 0.137,1.445 0.963,1.515 l 0.482,0.069 v 0.551 h -5.715 v -0.551 l 0.482,-0.069 c 0.824,-0.069 0.963,-0.345 0.963,-1.515 v -3.168 c 0,-1.722 0,-3.925 -2.41,-3.925 -1.033,0 -1.584,0.481 -1.996,0.826 v 6.267 c 0,1.17 0.137,1.445 0.963,1.515 l 0.551,0.069 v 0.551 h -5.783 v -0.551 l 0.551,-0.069 c 0.826,-0.069 0.963,-0.345 0.963,-1.515 z m 18.799,4.752 c 0,0.413 0.07,0.964 0.07,1.17 -0.207,0.138 -0.621,0.551 -1.377,0.551 -1.102,0 -1.791,-0.826 -1.791,-1.859 0,-1.652 1.516,-2.41 2.893,-2.41 0.068,0 0.068,0.069 0.205,0.069 z m 4.547,2.203 h -0.207 c -1.516,0 -1.516,-1.652 -1.516,-3.236 v -2.823 c 0,-2.548 -0.482,-3.994 -3.512,-3.994 -2.342,0 -3.926,1.239 -5.027,2.41 0.207,0.482 0.344,0.688 0.621,1.171 h 0.273 c 0.346,-0.758 0.965,-2.272 2.824,-2.272 1.652,0 1.996,1.171 1.996,2.479 v 0.62 c -1.928,0.413 -6.059,1.171 -6.059,4.062 0,1.377 1.238,2.41 3.098,2.41 1.584,0 2.617,-0.688 3.238,-1.171 0.412,0.62 0.756,1.171 2.271,1.171 1.033,0 1.721,-0.413 2.066,-0.551 z m 2.479,-6.955 c 0,-0.758 0,-1.79 -0.689,-1.79 -0.412,0 -0.688,0.138 -0.758,0.138 v -0.62 c 1.791,-0.619 2.961,-0.757 4.201,-0.826 v 1.309 c 0.619,-0.482 1.721,-1.309 3.719,-1.309 2.135,0 3.512,0.964 3.512,3.994 v 4.407 c 0,1.17 0.139,1.445 1.033,1.515 l 0.482,0.069 v 0.551 h -5.785 v -0.551 l 0.551,-0.069 c 0.826,-0.069 0.965,-0.345 0.965,-1.515 v -3.168 c 0,-1.722 0,-3.925 -2.48,-3.925 -0.895,0 -1.582,0.481 -1.928,0.826 v 6.267 c 0,1.17 0.139,1.445 0.965,1.515 l 0.482,0.069 v 0.551 h -5.646 v -0.551 l 0.412,-0.069 c 0.826,-0.069 0.965,-0.345 0.965,-1.515 v -5.303 z m 22.103,6.61 c -0.688,0.551 -1.996,1.171 -4.199,1.171 -2.549,0 -5.51,-1.652 -5.51,-4.958 0,-4.132 3.512,-5.922 6.197,-5.922 1.652,0 2.549,0.275 3.168,0.758 -0.137,0.757 -0.275,1.17 -0.895,1.858 h -0.207 c -0.551,-0.619 -1.377,-1.515 -2.686,-1.515 -1.516,0 -2.549,1.378 -2.549,3.649 0,3.306 1.998,4.82 4.408,4.82 0.758,0 1.791,-0.275 2.066,-0.344 z m 1.24,0.276 0.482,-0.069 c 0.895,-0.138 1.033,-0.345 1.033,-1.515 v -5.303 c 0,-0.758 0,-1.79 -0.689,-1.79 -0.412,0 -0.758,0.138 -0.826,0.138 v -0.62 c 1.721,-0.619 3.1,-0.757 4.27,-0.826 v 8.401 c 0,1.17 0.137,1.377 0.963,1.515 l 0.553,0.069 v 0.551 h -5.785 v -0.551 z m 1.034,-13.428 c 0,-0.826 0.688,-1.515 1.652,-1.515 0.895,0 1.652,0.688 1.652,1.515 0,0.964 -0.758,1.584 -1.652,1.584 -0.965,0 -1.652,-0.62 -1.652,-1.584 z m 12.533,11.294 v 1.17 a 1.987,1.987 0 0 1 -1.379,0.551 c -1.102,0 -1.789,-0.826 -1.789,-1.859 0,-1.652 1.514,-2.41 2.893,-2.41 0.068,0 0.137,0.069 0.275,0.069 z m 4.406,2.203 h -0.139 c -1.514,0 -1.514,-1.652 -1.514,-3.236 v -2.823 c 0,-2.548 -0.482,-3.994 -3.512,-3.994 -2.342,0 -3.926,1.239 -5.027,2.41 0.207,0.482 0.344,0.688 0.689,1.171 h 0.205 c 0.275,-0.758 0.965,-2.272 2.824,-2.272 1.652,0 2.066,1.171 2.066,2.479 v 0.62 c -1.998,0.413 -6.129,1.171 -6.129,4.062 0,1.377 1.238,2.41 3.029,2.41 1.652,0 2.617,-0.688 3.305,-1.171 0.414,0.62 0.758,1.171 2.342,1.171 0.965,0 1.652,-0.413 1.998,-0.551 z m 1.033,-0.069 0.482,-0.069 c 0.826,-0.138 0.963,-0.345 0.963,-1.515 v -10.055 c 0,-1.996 0,-2.892 -0.758,-2.892 -0.275,0 -0.551,0.069 -0.688,0.069 v -0.552 c 1.996,-0.413 3.029,-0.619 4.338,-0.619 v 14.048 c 0,1.17 0.068,1.377 0.965,1.515 l 0.412,0.069 v 0.551 h -5.715 v -0.55 z m -133.385,-0.069 0.551,-0.069 c 1.17,-0.206 1.17,-0.138 1.17,-2.686 v -8.194 c 0,-2.135 0,-2.41 -1.17,-2.548 l -0.551,-0.138 v -0.551 h 6.404 v 0.551 l -0.551,0.138 c -1.102,0.138 -1.102,0.413 -1.102,2.548 v 10.398 c 0.688,0.138 0.895,0.275 1.584,0.275 3.305,0 3.374,-1.515 3.994,-3.374 l 0.896,0.138 c -0.207,1.446 -0.275,2.686 -0.826,4.062 H 37.398 Z m 12.326,0 h 0.482 c 0.826,-0.138 0.964,-0.345 0.964,-1.515 v -5.303 c 0,-0.758 0,-1.79 -0.688,-1.79 -0.345,0 -0.62,0.138 -0.758,0.138 v -0.62 c 1.791,-0.619 3.03,-0.757 4.27,-0.826 v 8.401 c 0,1.17 0.138,1.377 0.964,1.515 h 0.482 v 0.551 h -5.716 z m 1.102,-13.359 c 0,-0.826 0.688,-1.515 1.652,-1.515 0.895,0 1.584,0.688 1.584,1.515 0,0.964 -0.689,1.584 -1.584,1.584 -0.963,0 -1.652,-0.689 -1.652,-1.584 z m 7.644,4.752 v -1.033 c 0,-3.03 1.653,-6.197 5.302,-6.197 1.239,0 2.066,0.344 2.548,0.757 -0.138,0.62 -0.344,1.102 -0.964,1.653 h -0.138 c -0.482,-0.413 -1.584,-1.309 -2.41,-1.309 -1.446,0 -1.584,1.79 -1.584,3.856 v 1.239 c 0.757,0.069 2.204,0.138 2.961,0.275 v 0.551 c -1.033,0.069 -1.928,0.138 -2.961,0.207 v 7.093 c 0,1.17 0.138,1.377 1.033,1.515 h 0.964 v 0.551 h -6.267 v -0.551 h 0.551 c 0.827,-0.138 0.964,-0.345 0.964,-1.515 v -7.092 z m 9.365,3.442 c 0,-0.413 0,-3.925 1.997,-3.925 1.516,0 2.272,1.309 2.341,2.961 -1.377,0.483 -2.823,0.689 -4.338,0.964 z m 6.886,4.132 c -0.275,0.207 -1.309,0.62 -2.548,0.62 -3.236,0 -3.925,-2.41 -4.2,-3.719 a 35.729,35.729 0 0 0 7.093,-2.203 c -0.276,-1.24 -0.895,-3.581 -4.614,-3.581 -2.754,0 -5.44,1.997 -5.44,5.578 0,3.58 2.755,5.302 5.44,5.302 2.479,0 3.925,-0.964 4.545,-1.446 z"
       fill="#ffffff"
       id="path2"
       style="display:inline;fill:#dfb22f;fill-opacity:1" />
    <path
       d="m 89.664,68.317 c 0,-1.859 0.276,-3.719 0.964,-5.44 l -0.207,-0.138 c -1.446,1.171 -2.754,2.617 -3.649,4.27 1.033,0.413 1.997,0.826 2.892,1.308 z m -9.916,-2.341 a 15.791,15.791 0 0 1 -1.997,-5.165 h -0.207 c -0.688,1.722 -1.033,3.65 -0.896,5.578 a 11.973,11.973 0 0 1 3.1,-0.413 z m 5.096,0.55 c -0.551,-1.79 -0.758,-3.718 -0.551,-5.578 l -0.207,-0.069 c -1.102,1.584 -1.859,3.306 -2.341,5.096 1.102,0.069 2.135,0.276 3.099,0.551 z m 9.021,4.821 A 13.82,13.82 0 0 1 96.137,66.32 L 96,66.113 c -1.791,0.758 -3.306,1.928 -4.545,3.236 0.826,0.621 1.652,1.31 2.41,1.998 z m 3.168,3.994 c 0.895,-1.652 2.135,-3.03 3.58,-4.27 l -0.068,-0.138 c -1.93,0.276 -3.719,0.896 -5.303,1.859 0.619,0.758 1.308,1.654 1.791,2.549 z m 1.928,4.201 c 0.068,0.138 0.137,0.344 0.137,0.551 1.309,-1.377 2.824,-2.411 4.545,-3.168 l -0.068,-0.207 c -1.791,-0.207 -3.719,-0.069 -5.578,0.413 0.413,0.758 0.689,1.584 0.964,2.411 z m 0.275,10.742 c 1.721,-0.482 3.648,-0.688 5.508,-0.413 l 0.07,-0.207 a 14.331,14.331 0 0 0 -5.027,-2.479 42.863,42.863 0 0 1 -0.551,3.099 z m 0.344,-8.263 c 0.139,1.102 0.275,2.135 0.275,3.167 1.584,-0.964 3.375,-1.583 5.234,-1.859 v -0.207 c -1.722,-0.757 -3.65,-1.101 -5.509,-1.101 z m -1.033,10.191 c -0.275,0.964 -0.826,1.928 -1.309,2.823 1.859,0 3.719,0.413 5.441,1.102 l 0.137,-0.206 c -1.101,-1.515 -2.617,-2.824 -4.269,-3.719 z M 74.652,66.871 v -0.069 c -1.377,-1.17 -2.479,-2.686 -3.305,-4.407 l -0.138,0.069 c -0.207,1.859 0,3.787 0.551,5.578 0.895,-0.482 1.859,-0.827 2.892,-1.171 z m 15.356,35.395 c 1.584,0.896 3.03,2.135 4.132,3.649 l 0.207,-0.137 a 13.155,13.155 0 0 0 -1.791,-5.234 c -0.758,0.62 -1.653,1.171 -2.548,1.722 z m 4.132,-3.168 c 1.721,0.552 3.444,1.378 4.958,2.479 l 0.139,-0.138 c -0.689,-1.722 -1.723,-3.374 -3.1,-4.683 -0.62,0.827 -1.24,1.653 -1.997,2.342 z M 67.215,91.937 c 1.033,0.069 2.134,0 3.167,-0.207 l -0.414,-0.62 c -1.446,-2.823 -2.547,-5.785 -3.098,-8.401 -0.689,0 -1.447,0 -2.204,-0.068 -2.066,-0.276 -3.443,-1.378 -3.443,-1.378 a 19.351,19.351 0 0 0 -0.345,7.713 c 10e-4,0 1.517,3.029 6.337,2.961 z"
       fill="#dfb22f"
       id="path3"
       style="display:inline" />
    <path
       d="m 74.446,99.787 c 0.62,-0.069 1.308,-0.138 1.928,-0.276 a 29.597,29.597 0 0 1 -5.371,-6.679 c -1.102,0.138 -2.135,0.276 -3.099,0.276 -5.785,-0.138 -6.749,-2.204 -6.749,-2.204 0.069,0.138 0.275,0.62 0.275,0.827 a 38.09,38.09 0 0 0 1.446,3.512 c 0.414,0.688 0.827,1.377 1.377,2.065 0.001,0 2.962,3.305 10.193,2.479 z M 67.628,81.47 a 20.399,20.399 0 0 0 5.784,-1.653 c 0.275,-0.138 0.482,-0.207 0.758,-0.344 -1.584,-3.581 -2.893,-7.093 -3.788,-10.261 -0.069,0.069 -0.138,0.069 -0.207,0.138 -0.551,0.345 -1.102,0.758 -1.653,1.102 -1.651,2.341 -1.927,6.404 -0.894,11.018 z"
       fill="#dfb22f"
       id="path4"
       style="display:inline" />
    <path
       d="m 66.595,81.539 c -0.688,-4.201 -0.344,-7.988 1.24,-10.536 -2.961,2.479 -5.027,5.646 -6.06,9.158 0.275,0.276 1.859,1.446 4.82,1.378 z m 10.812,18.937 c -3.374,0.758 -7.162,0.964 -10.398,-0.551 4.89,4.613 11.913,6.197 18.386,4.132 -2.479,-0.07 -5.303,-1.447 -7.988,-3.581 z"
       fill="#dfb22f"
       id="path5"
       style="display:inline" />
    <path
       d="m 92.763,91.248 c -1.583,2.135 -4.201,4.338 -7.23,6.128 -0.275,0.139 -0.62,0.346 -1.033,0.552 a 4.677,4.677 0 0 0 -0.551,0.206 c -1.377,0.689 -3.305,1.446 -5.44,2.066 2.686,2.272 5.372,3.58 7.712,3.649 0.62,-0.275 1.309,-0.62 1.997,-0.896 0,-0.068 -2.204,-2.893 -2.961,-3.925 0.069,-0.069 0.207,-0.069 0.275,-0.138 0.62,-0.345 1.171,-0.688 1.583,-0.896 a 20.437,20.437 0 0 0 5.922,-6.06 c 0.62,-1.033 1.102,-2.065 1.309,-3.03 l -0.138,-0.069 c -0.275,0.761 -0.826,1.587 -1.445,2.413 z"
       fill="#dfb22f"
       id="path6"
       style="display:inline" />
    <path
       d="m 92.487,77.338 c -0.688,1.79 -1.721,3.719 -3.374,5.44 -2.065,2.479 -4.889,4.751 -8.263,6.61 -0.207,0.138 -0.275,0.207 -0.482,0.207 -0.275,0.206 -0.62,0.344 -0.826,0.481 a 6.901,6.901 0 0 1 -0.758,0.345 c -1.239,0.551 -2.41,0.964 -3.512,1.377 0,0 -0.688,0.275 -1.446,0.344 v 0.069 c -0.551,0.138 -1.033,0.275 -1.653,0.413 1.653,2.617 3.443,4.82 5.302,6.61 2.41,-0.551 4.408,-1.308 5.716,-1.996 0.275,-0.069 0.482,-0.138 0.689,-0.207 -1.24,-1.79 -2.411,-3.787 -3.65,-5.785 h 0.069 c 0.275,-0.068 0.482,-0.206 0.826,-0.344 0.62,-0.413 1.171,-0.688 1.653,-1.032 2.754,-1.722 5.027,-3.995 6.748,-6.267 1.515,-2.135 2.548,-4.27 2.961,-6.06 z"
       fill="#dfb22f"
       id="path7"
       style="display:inline" />
    <path
       d="m 74.652,80.574 c -0.206,0.138 -0.481,0.207 -0.757,0.345 -1.584,0.62 -3.649,1.377 -5.991,1.652 0.62,2.548 1.721,5.302 3.167,7.988 0.138,0.344 0.276,0.688 0.482,0.964 2.617,-0.482 4.889,-1.377 6.542,-2.066 0.344,-0.138 0.62,-0.275 0.826,-0.413 l -1.239,-2.272 c 0.069,0.069 -1.377,-2.824 -2.135,-4.27 a 3.217,3.217 0 0 0 -0.345,-0.689 c 0.138,-0.068 0.207,-0.068 0.345,-0.137 0,-0.069 0.138,-0.138 0.275,-0.207 h 0.069 l 0.895,-0.482 c 3.443,-1.928 5.854,-4.545 7.23,-7.023 a 15.923,15.923 0 0 0 1.309,-3.099 l -0.138,-0.138 c -0.344,0.896 -0.826,1.791 -1.515,2.755 -1.583,2.203 -4.201,4.544 -7.505,6.335 l -0.138,0.069 c 0,0 -0.482,0.275 -1.377,0.688 z"
       fill="#dfb22f"
       id="path8"
       style="display:inline" />
  </g>
</svg>
